# Blender v2.83.1 OBJ File: 'Masterfile.blend'
# www.blender.org
o Breaker_Housing_Cube.043
v -0.305247 -0.481865 -0.098123
v -0.305247 0.481865 -0.098123
v -0.305247 -0.481865 -0.334923
v -0.305247 0.481865 -0.334923
v 0.305247 -0.481865 -0.098123
v 0.305247 0.481865 -0.098123
v 0.305247 -0.481865 -0.334923
v 0.305247 0.481865 -0.334923
v -0.305247 -0.160621 -0.098123
v -0.305247 0.160622 -0.098123
v 0.305247 0.160621 -0.098123
v 0.305247 -0.160622 -0.098123
v -0.240076 -0.481865 -0.098123
v 0.240076 -0.481865 -0.098123
v 0.240076 0.481865 -0.098123
v -0.240076 0.481865 -0.098123
v 0.240076 -0.160622 -0.098123
v -0.240076 -0.160621 -0.098123
v 0.240076 0.160622 -0.098123
v -0.240076 0.160622 -0.098123
v -0.054121 0.460198 -0.108523
v -0.054121 0.339802 -0.108523
v -0.054121 0.460198 -0.080849
v -0.054121 0.339802 -0.080849
v -0.305247 -0.062736 0.037425
v -0.305247 0.062736 0.037425
v -0.305247 -0.022963 0.069223
v -0.305247 0.022963 0.069223
v 0.305247 0.062736 0.037425
v 0.305247 -0.062736 0.037425
v 0.305247 0.022963 0.069223
v 0.305247 -0.022963 0.069223
v 0.240076 -0.062736 0.037425
v 0.240076 0.062736 0.037425
v 0.240076 -0.022963 0.069223
v 0.240076 0.022963 0.069223
v -0.240076 0.062736 0.037425
v -0.240076 -0.062736 0.037425
v -0.240076 0.022963 0.069223
v -0.240076 -0.022963 0.069223
v 0.054121 0.339802 -0.080849
v 0.054121 0.460198 -0.080849
v 0.054121 0.339802 -0.108523
v 0.054121 0.460198 -0.108523
v 0.054121 0.432580 -0.080849
v 0.054121 0.367420 -0.080849
v -0.054121 0.367420 -0.080849
v -0.054121 0.432580 -0.080849
v 0.054121 0.367420 -0.001546
v 0.054121 0.339802 -0.012565
v -0.054121 0.432580 -0.001546
v -0.054121 0.460198 -0.012565
v -0.054121 0.339802 -0.012565
v 0.054121 0.460198 -0.012565
v 0.054121 0.432580 -0.001546
v -0.054121 0.367420 -0.001546
v -0.054121 -0.339802 -0.108523
v -0.054121 -0.460198 -0.108523
v -0.054121 -0.339802 -0.080849
v -0.054121 -0.460198 -0.080849
v 0.054121 -0.460198 -0.080849
v 0.054121 -0.339802 -0.080849
v 0.054121 -0.460198 -0.108523
v 0.054121 -0.339802 -0.108523
v 0.054121 -0.367420 -0.080849
v 0.054121 -0.432580 -0.080849
v -0.054121 -0.432580 -0.080849
v -0.054121 -0.367420 -0.080849
v 0.054121 -0.432580 -0.001546
v 0.054121 -0.460198 -0.012565
v -0.054121 -0.367420 -0.001546
v -0.054121 -0.339802 -0.012565
v -0.054121 -0.460198 -0.012565
v 0.054121 -0.339802 -0.012565
v 0.054121 -0.367420 -0.001546
v -0.054121 -0.432580 -0.001546
vt 0.541667 0.000000
vt 0.625000 0.250000
vt 0.375000 0.250000
vt 0.625000 0.500000
vt 0.541667 0.750000
vt 0.458333 0.750000
vt 0.625000 0.916667
vt 0.541667 1.000000
vt 0.541667 0.916667
vt 0.375000 0.500000
vt 0.291667 0.750000
vt 0.208333 0.750000
vt 0.875000 0.500000
vt 0.791667 0.750000
vt 0.708333 0.750000
vt 0.458333 0.916667
vt 0.375000 1.000000
vt 0.375000 0.916667
vt 0.525392 0.833333
vt 0.537306 0.833333
vt 0.541667 0.833333
vt 0.375000 0.833333
vt 0.375000 0.750000
vt 0.458333 0.833333
vt 0.474608 0.916667
vt 0.462694 0.916667
vt 0.458333 0.916667
vt 0.541667 0.833333
vt 0.625000 0.750000
vt 0.458333 0.833333
vt 0.458333 1.000000
vt 0.458333 1.000000
vt 0.541667 0.750000
vt 0.525392 0.000000
vt 0.537306 0.000000
vt 0.541667 0.000000
vt 0.474608 0.750000
vt 0.462694 0.750000
vt 0.458333 0.750000
vt 0.541667 1.000000
vt 0.541667 0.916667
vt 0.541667 0.916667
vt 0.541667 1.000000
vt 0.541667 0.916667
vt 0.458333 1.000000
vt 0.458333 0.916667
vt 0.541667 0.750000
vt 0.541667 0.833333
vt 0.541667 0.750000
vt 0.458333 0.833333
vt 0.458333 0.750000
vt 0.541667 0.750000
vt 0.541667 1.000000
vt 0.541667 1.000000
vt 0.375000 0.500000
vt 0.125000 0.750000
vt 0.125000 0.500000
vt 0.875000 0.500000
vt 0.625000 0.750000
vt 0.625000 0.500000
vt 0.625000 0.750000
vt 0.541667 0.750000
vt 0.458333 1.000000
vt 0.458333 0.750000
vt 0.458333 0.000000
vt 0.541667 0.000000
vt 0.625000 0.250000
vt 0.458333 0.750000
vt 0.375000 1.000000
vt 0.375000 0.750000
vt 0.375000 0.750000
vt 0.125000 0.750000
vt 0.875000 0.750000
vt 0.625000 0.000000
vt 0.625000 0.000000
vt 0.375000 0.000000
vt 0.458333 0.000000
vt 0.541667 0.750000
vt 0.541667 1.000000
vt 0.541667 1.000000
vt 0.375000 0.500000
vt 0.125000 0.750000
vt 0.125000 0.500000
vt 0.875000 0.500000
vt 0.625000 0.750000
vt 0.625000 0.500000
vt 0.625000 0.750000
vt 0.541667 0.750000
vt 0.458333 1.000000
vt 0.458333 0.750000
vt 0.458333 0.000000
vt 0.541667 0.000000
vt 0.625000 0.250000
vt 0.458333 0.750000
vt 0.375000 1.000000
vt 0.375000 0.750000
vt 0.375000 0.750000
vt 0.125000 0.750000
vt 0.875000 0.750000
vt 0.625000 0.000000
vt 0.625000 0.000000
vt 0.375000 0.000000
vt 0.458333 0.000000
vt 0.375000 0.000000
vt 0.458333 0.000000
vt 0.625000 0.000000
vt 0.625000 1.000000
vt 0.125000 0.750000
vt 0.125000 0.500000
vt 0.875000 0.750000
vt 0.509118 0.833333
vt 0.490882 0.916667
vt 0.625000 0.833333
vt 0.509118 0.000000
vt 0.490882 0.750000
vt 0.541667 1.000000
vt 0.541667 0.833333
vt 0.375000 0.250000
vt 0.375000 0.000000
vt 0.625000 1.000000
vt 0.458333 1.000000
vt 0.875000 0.750000
vt 0.541667 0.000000
vt 0.375000 0.250000
vt 0.375000 0.000000
vt 0.625000 1.000000
vt 0.458333 1.000000
vt 0.875000 0.750000
vt 0.541667 0.000000
vn -1.0000 0.0000 0.0000
vn 1.0000 0.0000 0.0000
vn 0.0000 0.0000 1.0000
vn 0.0000 -1.0000 0.0000
vn 0.0000 1.0000 0.0000
vn -0.0000 -0.8107 0.5855
vn -0.0000 -0.7242 0.6896
vn 0.0000 0.8107 0.5855
vn 0.0000 0.7242 0.6896
vn -0.0000 0.3309 0.9437
vn 0.0000 -0.3309 0.9437
vn 0.0000 0.3706 0.9288
vn -0.0000 -0.3706 0.9288
s 1
f 10/1/1 4/2/1 3/3/1
f 8/4/2 11/5/2 12/6/2
f 16/7/3 10/8/3 20/9/3
f 7/10/4 14/11/4 13/12/4
f 4/13/5 16/14/5 15/15/5
f 18/16/3 1/17/3 13/18/3
f 35/19/1 36/20/1 34/21/1
f 12/6/3 14/22/3 5/23/3
f 17/24/3 13/18/3 14/22/3
f 39/25/2 40/26/2 38/27/2
f 19/28/3 18/16/3 17/24/3
f 6/29/3 19/28/3 11/5/3
f 19/28/3 16/7/3 20/9/3
f 12/6/6 33/30/7 17/24/6
f 18/16/6 25/31/7 9/32/6
f 19/28/8 29/33/9 11/5/8
f 27/34/1 28/35/1 26/36/1
f 31/37/2 32/38/2 30/39/2
f 26/40/9 39/41/10 37/42/9
f 28/43/10 40/44/11 39/41/10
f 27/45/11 38/27/7 40/46/11
f 34/21/9 31/47/10 29/33/9
f 36/48/10 32/49/11 31/47/10
f 35/50/11 30/39/7 32/51/11
f 10/8/8 37/42/9 20/9/8
f 45/52/4 51/53/4 48/54/4
f 43/55/4 24/56/4 22/57/4
f 21/58/5 42/59/5 44/60/5
f 45/52/2 54/61/2 55/62/2
f 45/52/3 47/63/3 46/64/3
f 44/60/2 45/52/2 46/64/2
f 47/65/1 48/66/1 21/67/1
f 54/61/12 51/53/12 55/62/12
f 49/68/13 53/69/13 50/70/13
f 41/71/4 53/72/4 24/56/4
f 23/73/5 54/61/5 42/59/5
f 47/63/5 49/68/5 46/64/5
f 48/66/1 52/74/1 23/75/1
f 47/65/1 53/76/1 56/77/1
f 46/64/2 50/70/2 41/71/2
f 65/78/4 71/79/4 68/80/4
f 63/81/4 60/82/4 58/83/4
f 57/84/5 62/85/5 64/86/5
f 65/78/2 74/87/2 75/88/2
f 65/78/3 67/89/3 66/90/3
f 64/86/2 65/78/2 66/90/2
f 67/91/1 68/92/1 57/93/1
f 74/87/12 71/79/12 75/88/12
f 69/94/13 73/95/13 70/96/13
f 61/97/4 73/98/4 60/82/4
f 59/99/5 74/87/5 62/85/5
f 67/89/5 69/94/5 66/90/5
f 68/92/1 72/100/1 59/101/1
f 67/91/1 73/102/1 76/103/1
f 66/90/2 70/96/2 61/97/2
f 3/3/1 1/104/1 9/105/1
f 10/1/1 2/106/1 4/2/1
f 3/3/1 9/105/1 10/1/1
f 5/23/2 7/10/2 12/6/2
f 7/10/2 8/4/2 12/6/2
f 8/4/2 6/29/2 11/5/2
f 16/7/3 2/107/3 10/8/3
f 1/108/4 3/109/4 13/12/4
f 3/109/4 7/10/4 13/12/4
f 7/10/4 5/23/4 14/11/4
f 6/29/5 8/4/5 15/15/5
f 8/4/5 4/13/5 15/15/5
f 4/13/5 2/110/5 16/14/5
f 18/16/3 9/32/3 1/17/3
f 34/21/1 19/28/1 17/24/1
f 17/24/1 33/111/1 34/21/1
f 33/111/1 35/19/1 34/21/1
f 12/6/3 17/24/3 14/22/3
f 17/24/3 18/16/3 13/18/3
f 38/27/2 18/16/2 20/9/2
f 20/9/2 37/112/2 38/27/2
f 37/112/2 39/25/2 38/27/2
f 19/28/3 20/9/3 18/16/3
f 6/29/3 15/113/3 19/28/3
f 19/28/3 15/113/3 16/7/3
f 12/6/6 30/39/7 33/30/7
f 18/16/6 38/27/7 25/31/7
f 19/28/8 34/21/9 29/33/9
f 26/36/1 10/1/1 9/105/1
f 9/105/1 25/114/1 26/36/1
f 25/114/1 27/34/1 26/36/1
f 30/39/2 12/6/2 11/5/2
f 11/5/2 29/115/2 30/39/2
f 29/115/2 31/37/2 30/39/2
f 26/40/9 28/43/10 39/41/10
f 28/43/10 27/116/11 40/44/11
f 27/45/11 25/31/7 38/27/7
f 34/21/9 36/48/10 31/47/10
f 36/48/10 35/117/11 32/49/11
f 35/50/11 33/30/7 30/39/7
f 10/8/8 26/40/9 37/42/9
f 45/52/4 55/62/4 51/53/4
f 43/55/4 41/71/4 24/56/4
f 21/58/5 23/73/5 42/59/5
f 45/52/2 42/59/2 54/61/2
f 45/52/3 48/54/3 47/63/3
f 41/71/2 43/55/2 46/64/2
f 43/55/2 44/60/2 46/64/2
f 44/60/2 42/59/2 45/52/2
f 22/118/1 24/119/1 47/65/1
f 48/66/1 23/75/1 21/67/1
f 22/118/1 47/65/1 21/67/1
f 54/61/12 52/120/12 51/53/12
f 49/68/13 56/121/13 53/69/13
f 41/71/4 50/70/4 53/72/4
f 23/73/5 52/122/5 54/61/5
f 47/63/5 56/121/5 49/68/5
f 48/66/1 51/123/1 52/74/1
f 47/65/1 24/119/1 53/76/1
f 46/64/2 49/68/2 50/70/2
f 65/78/4 75/88/4 71/79/4
f 63/81/4 61/97/4 60/82/4
f 57/84/5 59/99/5 62/85/5
f 65/78/2 62/85/2 74/87/2
f 65/78/3 68/80/3 67/89/3
f 61/97/2 63/81/2 66/90/2
f 63/81/2 64/86/2 66/90/2
f 64/86/2 62/85/2 65/78/2
f 58/124/1 60/125/1 67/91/1
f 68/92/1 59/101/1 57/93/1
f 58/124/1 67/91/1 57/93/1
f 74/87/12 72/126/12 71/79/12
f 69/94/13 76/127/13 73/95/13
f 61/97/4 70/96/4 73/98/4
f 59/99/5 72/128/5 74/87/5
f 67/89/5 76/127/5 69/94/5
f 68/92/1 71/129/1 72/100/1
f 67/91/1 60/125/1 73/102/1
f 66/90/2 69/94/2 70/96/2
