# Blender v2.83.1 OBJ File: 'Masterfile.blend'
# www.blender.org
o Breaker_Handle_Cylinder.005
v -0.258757 -0.004189 -0.034113
v 0.258757 -0.004189 -0.034113
v -0.258757 -0.016924 -0.029913
v 0.258757 -0.016924 -0.029913
v -0.258757 -0.027083 -0.021160
v 0.258757 -0.027083 -0.021160
v -0.258757 -0.033119 -0.009185
v 0.258757 -0.033119 -0.009185
v -0.258757 -0.034113 0.004189
v 0.258757 -0.034113 0.004189
v -0.258757 -0.029913 0.016924
v 0.258757 -0.029913 0.016924
v -0.258757 -0.021160 0.027083
v 0.258757 -0.021160 0.027083
v -0.258757 -0.009185 0.033119
v 0.258757 -0.009185 0.033119
v -0.258757 0.004189 0.034113
v 0.258757 0.004189 0.034113
v -0.258757 0.016924 0.029913
v 0.258757 0.016924 0.029913
v -0.258757 0.027083 0.021160
v 0.258757 0.027083 0.021160
v -0.258757 0.033119 0.009185
v 0.258757 0.033119 0.009185
v -0.258757 0.034113 -0.004189
v 0.258757 0.034113 -0.004189
v -0.258757 0.029913 -0.016924
v 0.258758 0.029913 -0.016924
v -0.258757 0.021160 -0.027083
v 0.258757 0.021160 -0.027083
v -0.258757 0.009185 -0.033119
v 0.258757 0.009185 -0.033119
v -0.232615 0.004189 0.034113
v -0.232615 0.407097 -0.024769
v -0.232615 -0.004189 -0.034113
v -0.232615 0.400997 -0.074452
v -0.205026 0.004189 0.034113
v -0.205026 0.407097 -0.024769
v -0.205026 -0.004189 -0.034113
v -0.205026 0.400997 -0.074452
v 0.232615 0.400997 -0.074452
v -0.222615 0.391723 -0.071394
v 0.222615 0.391723 -0.071394
v -0.222615 0.384325 -0.065020
v 0.222615 0.384325 -0.065020
v -0.222615 0.379929 -0.056299
v 0.222615 0.379929 -0.056299
v -0.222615 0.379206 -0.046561
v 0.222615 0.379206 -0.046561
v -0.222615 0.382264 -0.037286
v 0.222615 0.382264 -0.037286
v -0.222615 0.388638 -0.029888
v 0.222615 0.388638 -0.029888
v -0.222615 0.397359 -0.025493
v 0.222615 0.397359 -0.025493
v 0.232615 0.407097 -0.024769
v -0.232615 0.416371 -0.027827
v 0.232615 0.416371 -0.027827
v -0.232615 0.423770 -0.034202
v 0.232615 0.423769 -0.034202
v -0.232615 0.428165 -0.042922
v 0.232615 0.428165 -0.042922
v -0.232615 0.428889 -0.052661
v 0.232615 0.428889 -0.052661
v -0.232615 0.425830 -0.061935
v 0.232615 0.425830 -0.061935
v -0.232615 0.419456 -0.069333
v 0.232615 0.419456 -0.069333
v -0.232615 0.410736 -0.073729
v 0.232615 0.410736 -0.073729
v 0.205026 0.004189 0.034113
v 0.205026 0.407097 -0.024769
v 0.205026 -0.004189 -0.034113
v 0.205026 0.400997 -0.074452
v 0.232615 0.004189 0.034113
v 0.232615 -0.004189 -0.034113
v -0.232615 0.000000 -0.000000
vt 1.000000 1.000000
vt 0.937500 0.500000
vt 1.000000 0.500000
vt 0.937500 1.000000
vt 0.875000 0.500000
vt 0.875000 1.000000
vt 0.812500 0.500000
vt 0.812500 1.000000
vt 0.750000 0.500000
vt 0.750000 1.000000
vt 0.687500 0.500000
vt 0.687500 1.000000
vt 0.625000 0.500000
vt 0.625000 1.000000
vt 0.562500 0.500000
vt 0.562500 1.000000
vt 0.500000 0.500000
vt 0.500000 1.000000
vt 0.437500 0.500000
vt 0.437500 1.000000
vt 0.375000 0.500000
vt 0.375000 1.000000
vt 0.312500 0.500000
vt 0.312500 1.000000
vt 0.250000 0.500000
vt 0.250000 1.000000
vt 0.187500 0.500000
vt 0.125000 1.000000
vt 0.125000 0.500000
vt 0.625000 0.000000
vt 0.375000 0.250000
vt 0.375000 0.000000
vt 0.062500 0.500000
vt 0.062500 1.000000
vt 0.000000 0.500000
vt 0.625000 0.500000
vt 0.375000 0.500000
vt 0.375000 0.375000
vt 0.625000 0.500000
vt 0.375000 0.750000
vt 0.375000 0.500000
vt 0.625000 0.750000
vt 0.375000 1.000000
vt 0.125000 0.750000
vt 0.125000 0.625000
vt 0.875000 0.500000
vt 1.000000 1.000000
vt 0.937500 0.500000
vt 1.000000 0.500000
vt 0.937500 1.000000
vt 0.875000 0.500000
vt 0.875000 1.000000
vt 0.812500 0.500000
vt 0.812500 1.000000
vt 0.750000 0.500000
vt 0.750000 1.000000
vt 0.687500 0.500000
vt 0.687500 1.000000
vt 0.625000 0.500000
vt 0.625000 1.000000
vt 0.562500 0.500000
vt 0.562500 1.000000
vt 0.500000 0.500000
vt 0.437500 1.000000
vt 0.437500 0.500000
vt 0.375000 0.500000
vt 0.312500 1.000000
vt 0.312500 0.500000
vt 0.250000 0.500000
vt 0.250000 1.000000
vt 0.187500 0.500000
vt 0.125000 1.000000
vt 0.125000 0.500000
vt 0.062500 0.500000
vt 0.062500 1.000000
vt 0.000000 0.500000
vt 0.000000 0.000000
vt 0.000000 0.000000
vt 0.000000 0.000000
vt 0.625000 0.000000
vt 0.375000 0.250000
vt 0.375000 0.000000
vt 0.625000 0.250000
vt 0.375000 0.500000
vt 0.375000 0.250000
vt 0.625000 0.500000
vt 0.375000 0.750000
vt 0.375000 0.500000
vt 0.625000 0.750000
vt 0.375000 1.000000
vt 0.125000 0.750000
vt 0.125000 0.500000
vt 0.875000 0.500000
vt 0.000000 0.000000
vt 0.000000 0.000000
vt 0.000000 0.000000
vt 0.187500 1.000000
vt 0.625000 0.250000
vt 0.000000 1.000000
vt 0.375000 0.250000
vt 0.625000 0.250000
vt 0.625000 1.000000
vt 0.125000 0.500000
vt 0.875000 0.750000
vt 0.500000 1.000000
vt 0.375000 1.000000
vt 0.187500 1.000000
vt 0.000000 1.000000
vt 0.000000 0.000000
vt 0.000000 0.000000
vt 0.000000 0.000000
vt 0.000000 0.000000
vt 0.000000 0.000000
vt 0.000000 0.000000
vt 0.625000 0.250000
vt 0.625000 0.500000
vt 0.625000 1.000000
vt 0.875000 0.750000
vt 0.000000 0.000000
vt 0.000000 0.000000
vt 0.000000 0.000000
vt 0.000000 0.000000
vt 0.000000 0.000000
vt 0.000000 0.000000
vn 0.0000 -0.1219 -0.9925
vn -0.0000 -0.4924 -0.8704
vn -0.0000 -0.7880 -0.6157
vn -0.0000 -0.9636 -0.2672
vn 0.0000 -0.9925 0.1219
vn 0.0000 -0.8704 0.4924
vn -0.0000 -0.6157 0.7880
vn 0.0000 -0.2672 0.9636
vn 0.0000 0.1219 0.9925
vn 0.0000 0.4924 0.8704
vn 0.0000 0.7880 0.6157
vn 0.0000 0.9636 0.2672
vn -0.0000 0.9925 -0.1219
vn -0.0000 0.8704 -0.4924
vn 0.0000 0.6157 -0.7880
vn 0.0000 -0.0991 -0.9951
vn 0.0000 0.2672 -0.9636
vn -1.0000 0.0000 0.0000
vn 1.0000 -0.0000 0.0000
vn 0.0000 0.1446 0.9895
vn 0.0000 -0.0546 -0.9985
vn 0.0000 -0.4570 -0.8895
vn 0.0000 -0.2283 0.9736
vn 0.0000 0.1886 0.9821
vn 1.0000 -0.0001 0.0000
s 1
f 2/1/1 3/2/2 1/3/1
f 4/4/2 5/5/3 3/2/2
f 6/6/3 7/7/4 5/5/3
f 8/8/4 9/9/5 7/7/4
f 10/10/5 11/11/6 9/9/5
f 12/12/6 13/13/7 11/11/6
f 14/14/7 15/15/8 13/13/7
f 16/16/8 17/17/9 15/15/8
f 18/18/9 19/19/10 17/17/9
f 20/20/10 21/21/11 19/19/10
f 22/22/11 23/23/12 21/21/11
f 24/24/12 25/25/13 23/23/12
f 26/26/13 27/27/14 25/25/13
f 27/27/14 30/28/15 29/29/15
f 36/30/16 39/31/16 35/32/16
f 30/28/15 31/33/17 29/29/15
f 32/34/17 1/35/1 31/33/17
f 36/36/18 35/37/18 77/38/18
f 40/39/19 37/40/19 39/41/19
f 38/42/20 33/43/20 37/40/20
f 37/40/5 33/44/5 77/45/5
f 36/46/13 38/42/13 40/39/13
f 41/47/21 42/48/22 36/49/21
f 43/50/22 44/51/3 42/48/22
f 45/52/3 46/53/4 44/51/3
f 47/54/4 48/55/5 46/53/4
f 49/56/5 50/57/6 48/55/5
f 51/58/6 52/59/7 50/57/6
f 53/60/7 54/61/23 52/59/7
f 55/62/23 34/63/24 54/61/23
f 34/63/24 58/64/10 57/65/10
f 58/64/10 59/66/11 57/65/10
f 59/66/11 62/67/12 61/68/12
f 62/67/12 63/69/13 61/68/12
f 64/70/13 65/71/14 63/69/13
f 65/71/14 68/72/15 67/73/15
f 68/72/15 69/74/17 67/73/15
f 70/75/17 36/76/21 69/74/17
f 69/77/18 36/78/18 57/79/18
f 74/80/16 76/81/16 73/82/16
f 72/83/18 73/84/18 71/85/18
f 41/86/19 75/87/19 76/88/19
f 56/89/20 71/90/20 75/87/20
f 76/88/5 71/91/5 73/92/5
f 74/93/13 56/89/13 41/86/13
f 58/94/19 68/95/19 64/96/19
f 2/1/1 4/4/2 3/2/2
f 4/4/2 6/6/3 5/5/3
f 6/6/3 8/8/4 7/7/4
f 8/8/4 10/10/5 9/9/5
f 10/10/5 12/12/6 11/11/6
f 12/12/6 14/14/7 13/13/7
f 14/14/7 16/16/8 15/15/8
f 16/16/8 18/18/9 17/17/9
f 18/18/9 20/20/10 19/19/10
f 20/20/10 22/22/11 21/21/11
f 22/22/11 24/24/12 23/23/12
f 24/24/12 26/26/13 25/25/13
f 26/26/13 28/97/14 27/27/14
f 27/27/14 28/97/14 30/28/15
f 36/30/16 40/98/16 39/31/16
f 30/28/15 32/34/17 31/33/17
f 32/34/17 2/99/1 1/35/1
f 77/38/18 33/100/18 34/101/18
f 34/101/18 36/36/18 77/38/18
f 40/39/19 38/42/19 37/40/19
f 38/42/20 34/102/20 33/43/20
f 77/45/5 35/103/5 39/41/5
f 39/41/5 37/40/5 77/45/5
f 36/46/13 34/104/13 38/42/13
f 41/47/21 43/50/22 42/48/22
f 43/50/22 45/52/3 44/51/3
f 45/52/3 47/54/4 46/53/4
f 47/54/4 49/56/5 48/55/5
f 49/56/5 51/58/6 50/57/6
f 51/58/6 53/60/7 52/59/7
f 53/60/7 55/62/23 54/61/23
f 55/62/23 56/105/24 34/63/24
f 34/63/24 56/105/24 58/64/10
f 58/64/10 60/106/11 59/66/11
f 59/66/11 60/106/11 62/67/12
f 62/67/12 64/70/13 63/69/13
f 64/70/13 66/107/14 65/71/14
f 65/71/14 66/107/14 68/72/15
f 68/72/15 70/75/17 69/74/17
f 70/75/17 41/108/21 36/76/21
f 36/78/18 34/109/18 57/79/18
f 57/79/18 59/110/18 61/111/18
f 61/111/18 63/112/18 57/79/18
f 63/112/18 65/113/18 57/79/18
f 65/113/18 67/114/18 57/79/18
f 67/114/18 69/77/18 57/79/18
f 74/80/16 41/115/16 76/81/16
f 72/83/18 74/116/18 73/84/18
f 41/86/19 56/89/19 75/87/19
f 56/89/20 72/117/20 71/90/20
f 76/88/5 75/87/5 71/91/5
f 74/93/13 72/118/13 56/89/13
f 62/119/19 60/120/19 58/94/19
f 58/94/19 56/121/19 41/122/19
f 41/122/19 70/123/19 68/95/19
f 68/95/19 66/124/25 64/96/19
f 64/96/19 62/119/19 58/94/19
f 58/94/19 41/122/19 68/95/19
