# Blender v2.83.1 OBJ File: 'Masterfile.blend'
# www.blender.org
o Cabinet_Filing_Cube.036
v -0.550000 0.150000 0.850000
v -0.550000 2.950000 0.850000
v -0.600000 0.000000 -0.850000
v -0.600000 3.000000 -0.850000
v 0.550000 0.150000 0.850000
v 0.550000 2.950000 0.850000
v 0.600000 0.000000 -0.850000
v 0.600000 3.000000 -0.850000
v -0.550000 1.100000 0.850000
v -0.550000 2.050000 0.850000
v 0.550000 2.050000 0.850000
v 0.550000 1.100000 0.850000
v -0.550000 2.000000 0.850000
v -0.600000 3.000000 0.850000
v 0.600000 3.000000 0.850000
v 0.550000 2.000000 0.850000
v -0.550000 1.050000 0.850000
v -0.600000 2.000000 0.850000
v 0.600000 2.000000 0.850000
v 0.550000 1.050000 0.850000
v 0.600000 1.050000 0.850000
v 0.600000 0.000000 0.850000
v -0.600000 0.000000 0.850000
v -0.600000 1.050000 0.850000
v -0.550000 2.050000 -0.713902
v -0.550000 2.950000 -0.713902
v 0.550000 2.950000 -0.713902
v 0.550000 2.050000 -0.713902
v -0.550000 1.100000 -0.713902
v -0.550000 2.000000 -0.713902
v 0.550000 2.000000 -0.713902
v 0.550000 1.100000 -0.713902
v 0.550000 1.050000 -0.713902
v 0.550000 0.150000 -0.713902
v -0.550000 0.150000 -0.713902
v -0.550000 1.050000 -0.713902
v -0.542431 1.108292 0.871135
v -0.542431 1.992688 0.871135
v -0.542431 1.108292 -0.699615
v -0.542431 1.992688 -0.699615
v 0.542431 1.108292 0.871135
v 0.542431 1.992688 0.871135
v 0.542431 1.108292 -0.699615
v 0.542431 1.992688 -0.699615
v -0.542431 1.778993 0.871135
v -0.542431 1.868644 0.871135
v 0.542431 1.868644 0.871135
v 0.542431 1.778993 0.871135
v -0.483416 1.108292 0.871135
v 0.483416 1.108292 0.871135
v 0.483416 1.992688 0.871135
v -0.483416 1.992688 0.871135
v 0.483416 1.778993 0.871135
v -0.483416 1.778993 0.871135
v 0.483416 1.868644 0.871135
v -0.483416 1.868644 0.871135
v 0.483416 1.888428 0.732583
v -0.483416 1.888428 0.732583
v 0.483416 1.928746 0.826647
v -0.483416 1.928746 0.826647
v -0.542431 2.055840 0.871135
v -0.542431 2.940236 0.871135
v -0.542431 2.055840 -0.699615
v -0.542431 2.940236 -0.699615
v 0.542431 2.055840 0.871135
v 0.542431 2.940236 0.871135
v 0.542431 2.055840 -0.699615
v 0.542431 2.940236 -0.699615
v -0.542431 2.726541 0.871135
v -0.542431 2.816191 0.871135
v 0.542431 2.816191 0.871135
v 0.542431 2.726541 0.871135
v -0.483416 2.055840 0.871135
v 0.483416 2.055840 0.871135
v 0.483416 2.940236 0.871135
v -0.483416 2.940236 0.871135
v 0.483416 2.726541 0.871135
v -0.483416 2.726541 0.871135
v 0.483416 2.816191 0.871135
v -0.483416 2.816191 0.871135
v 0.483416 2.835975 0.732583
v -0.483416 2.835975 0.732583
v 0.483416 2.876294 0.826647
v -0.483416 2.876294 0.826647
v -0.542431 0.158402 0.871135
v -0.542431 1.042798 0.871135
v -0.542431 0.158402 -0.699615
v -0.542431 1.042798 -0.699615
v 0.542431 0.158402 0.871135
v 0.542431 1.042798 0.871135
v 0.542431 0.158402 -0.699615
v 0.542431 1.042798 -0.699615
v -0.542431 0.829103 0.871135
v -0.542431 0.918754 0.871135
v 0.542431 0.918754 0.871135
v 0.542431 0.829103 0.871135
v -0.483416 0.158402 0.871135
v 0.483416 0.158402 0.871135
v 0.483416 1.042798 0.871135
v -0.483416 1.042798 0.871135
v 0.483416 0.829103 0.871135
v -0.483416 0.829103 0.871135
v 0.483416 0.918754 0.871135
v -0.483416 0.918754 0.871135
v 0.483416 0.938538 0.732583
v -0.483416 0.938538 0.732583
v 0.483416 0.978856 0.826647
v -0.483416 0.978856 0.826647
vt 0.458333 0.000000
vt 0.541667 0.000000
vt 0.625000 0.250000
vt 0.375000 0.500000
vt 0.375000 0.250000
vt 0.625000 0.500000
vt 0.541667 0.750000
vt 0.458333 0.750000
vt 0.125000 0.750000
vt 0.125000 0.500000
vt 0.875000 0.500000
vt 0.625000 0.750000
vt 0.379167 0.989583
vt 0.454167 0.989583
vt 0.454167 0.989583
vt 0.462500 0.760417
vt 0.462500 0.989583
vt 0.462500 0.989583
vt 0.545833 0.760417
vt 0.545833 0.989583
vt 0.545833 0.989583
vt 0.620833 0.989583
vt 0.541667 1.000000
vt 0.620833 0.760417
vt 0.625000 1.000000
vt 0.458333 1.000000
vt 0.537500 0.760417
vt 0.379167 0.760417
vt 0.454167 0.760417
vt 0.375000 1.000000
vt 0.375000 0.750000
vt 0.537500 0.989583
vt 0.454167 0.760417
vt 0.379167 0.989583
vt 0.379167 0.760417
vt 0.537500 0.760417
vt 0.462500 0.760417
vt 0.620833 0.760417
vt 0.545833 0.760417
vt 0.620833 0.989583
vt 0.537500 0.989583
vt 0.458333 0.000000
vt 0.541667 0.000000
vt 0.625000 0.250000
vt 0.375000 0.500000
vt 0.375000 0.250000
vt 0.625000 0.500000
vt 0.541667 0.750000
vt 0.458333 0.750000
vt 0.625000 0.916667
vt 0.541667 1.000000
vt 0.541667 0.916667
vt 0.291667 0.750000
vt 0.208333 0.750000
vt 0.875000 0.500000
vt 0.791667 0.750000
vt 0.708333 0.750000
vt 0.458333 0.916667
vt 0.375000 1.000000
vt 0.375000 0.916667
vt 0.458333 1.000000
vt 0.375000 0.833333
vt 0.375000 0.750000
vt 0.458333 0.833333
vt 0.541667 0.833333
vt 0.458333 0.833333
vt 0.625000 0.750000
vt 0.625000 0.833333
vt 0.541667 0.833333
vt 0.458333 0.916667
vt 0.541667 0.916667
vt 0.458333 0.000000
vt 0.541667 0.000000
vt 0.625000 0.250000
vt 0.375000 0.500000
vt 0.375000 0.250000
vt 0.625000 0.500000
vt 0.541667 0.750000
vt 0.458333 0.750000
vt 0.625000 0.916667
vt 0.541667 1.000000
vt 0.541667 0.916667
vt 0.291667 0.750000
vt 0.208333 0.750000
vt 0.875000 0.500000
vt 0.791667 0.750000
vt 0.708333 0.750000
vt 0.458333 0.916667
vt 0.375000 1.000000
vt 0.375000 0.916667
vt 0.458333 1.000000
vt 0.375000 0.833333
vt 0.375000 0.750000
vt 0.458333 0.833333
vt 0.541667 0.833333
vt 0.458333 0.833333
vt 0.625000 0.750000
vt 0.625000 0.833333
vt 0.541667 0.833333
vt 0.458333 0.916667
vt 0.541667 0.916667
vt 0.458333 0.000000
vt 0.541667 0.000000
vt 0.625000 0.250000
vt 0.375000 0.500000
vt 0.375000 0.250000
vt 0.625000 0.500000
vt 0.541667 0.750000
vt 0.458333 0.750000
vt 0.625000 0.916667
vt 0.541667 1.000000
vt 0.541667 0.916667
vt 0.291667 0.750000
vt 0.208333 0.750000
vt 0.875000 0.500000
vt 0.791667 0.750000
vt 0.708333 0.750000
vt 0.458333 0.916667
vt 0.375000 1.000000
vt 0.375000 0.916667
vt 0.458333 1.000000
vt 0.375000 0.833333
vt 0.375000 0.750000
vt 0.458333 0.833333
vt 0.541667 0.833333
vt 0.458333 0.833333
vt 0.625000 0.750000
vt 0.625000 0.833333
vt 0.541667 0.833333
vt 0.458333 0.916667
vt 0.541667 0.916667
vt 0.375000 0.000000
vt 0.625000 0.000000
vt 0.875000 0.750000
vt 0.375000 0.000000
vt 0.625000 0.000000
vt 0.625000 1.000000
vt 0.125000 0.750000
vt 0.125000 0.500000
vt 0.875000 0.750000
vt 0.375000 0.000000
vt 0.625000 0.000000
vt 0.625000 1.000000
vt 0.125000 0.750000
vt 0.125000 0.500000
vt 0.875000 0.750000
vt 0.375000 0.000000
vt 0.625000 0.000000
vt 0.625000 1.000000
vt 0.125000 0.750000
vt 0.125000 0.500000
vt 0.875000 0.750000
vn -1.0000 0.0000 0.0000
vn 0.0000 0.0000 -1.0000
vn 1.0000 0.0000 0.0000
vn 0.0000 -1.0000 0.0000
vn 0.0000 1.0000 0.0000
vn 0.0000 0.0000 1.0000
vn 0.0000 -0.9191 0.3940
vn 0.0000 0.7847 0.6198
vn 0.0000 -0.5949 -0.8038
s off
f 24/1/1 18/2/1 4/3/1
f 4/3/2 7/4/2 3/5/2
f 8/6/3 19/7/3 21/8/3
f 7/4/4 23/9/4 3/10/4
f 4/11/5 15/12/5 8/6/5
f 1/13/3 36/14/3 17/15/3
f 12/16/5 29/17/5 9/18/5
f 11/19/5 25/20/5 10/21/5
f 2/22/6 18/23/6 10/21/6
f 11/19/6 15/12/6 6/24/6
f 6/24/6 14/25/6 2/22/6
f 9/18/6 18/23/6 24/26/6
f 12/16/6 19/7/6 16/27/6
f 5/28/6 21/8/6 20/29/6
f 1/13/6 24/26/6 23/30/6
f 1/13/6 22/31/6 5/28/6
f 19/7/6 11/19/6 16/27/6
f 18/23/6 13/32/6 10/21/6
f 13/32/6 11/19/6 10/21/6
f 24/26/6 17/15/6 9/18/6
f 21/8/6 12/16/6 20/29/6
f 17/15/6 12/16/6 9/18/6
f 33/33/6 35/34/6 34/35/6
f 31/36/6 29/17/6 32/37/6
f 27/38/6 25/20/6 28/39/6
f 10/21/3 26/40/3 2/22/3
f 13/32/4 31/36/4 16/27/4
f 5/28/5 35/34/5 1/13/5
f 6/24/1 28/39/1 11/19/1
f 9/18/3 30/41/3 13/32/3
f 17/15/4 33/33/4 20/29/4
f 2/22/4 27/38/4 6/24/4
f 16/27/1 32/37/1 12/16/1
f 20/29/1 34/35/1 5/28/1
f 45/42/1 46/43/1 40/44/1
f 40/44/2 43/45/2 39/46/2
f 44/47/3 47/48/3 48/49/3
f 52/50/6 46/51/6 56/52/6
f 43/45/4 50/53/4 49/54/4
f 40/55/5 52/56/5 51/57/5
f 54/58/6 37/59/6 49/60/6
f 56/52/6 45/61/6 54/58/6
f 48/49/6 50/62/6 41/63/6
f 53/64/6 49/60/6 50/62/6
f 47/48/6 53/64/6 48/49/6
f 55/65/1 57/66/1 53/64/1
f 42/67/6 55/65/6 47/48/6
f 51/68/6 56/52/6 55/65/6
f 59/69/7 58/70/7 57/66/7
f 53/64/8 58/70/8 54/58/8
f 56/52/3 58/70/3 60/71/3
f 56/52/9 59/69/9 55/65/9
f 69/72/1 70/73/1 64/74/1
f 64/74/2 67/75/2 63/76/2
f 68/77/3 71/78/3 72/79/3
f 76/80/6 70/81/6 80/82/6
f 67/75/4 74/83/4 73/84/4
f 64/85/5 76/86/5 75/87/5
f 78/88/6 61/89/6 73/90/6
f 80/82/6 69/91/6 78/88/6
f 72/79/6 74/92/6 65/93/6
f 77/94/6 73/90/6 74/92/6
f 71/78/6 77/94/6 72/79/6
f 79/95/1 81/96/1 77/94/1
f 66/97/6 79/95/6 71/78/6
f 75/98/6 80/82/6 79/95/6
f 83/99/7 82/100/7 81/96/7
f 77/94/8 82/100/8 78/88/8
f 80/82/3 82/100/3 84/101/3
f 80/82/9 83/99/9 79/95/9
f 93/102/1 94/103/1 88/104/1
f 88/104/2 91/105/2 87/106/2
f 92/107/3 95/108/3 96/109/3
f 100/110/6 94/111/6 104/112/6
f 91/105/4 98/113/4 97/114/4
f 88/115/5 100/116/5 99/117/5
f 102/118/6 85/119/6 97/120/6
f 104/112/6 93/121/6 102/118/6
f 96/109/6 98/122/6 89/123/6
f 101/124/6 97/120/6 98/122/6
f 95/108/6 101/124/6 96/109/6
f 103/125/1 105/126/1 101/124/1
f 90/127/6 103/125/6 95/108/6
f 99/128/6 104/112/6 103/125/6
f 107/129/7 106/130/7 105/126/7
f 101/124/8 106/130/8 102/118/8
f 104/112/3 106/130/3 108/131/3
f 104/112/9 107/129/9 103/125/9
f 3/5/1 23/132/1 24/1/1
f 18/2/1 14/133/1 4/3/1
f 3/5/1 24/1/1 4/3/1
f 4/3/2 8/6/2 7/4/2
f 22/31/3 7/4/3 21/8/3
f 7/4/3 8/6/3 21/8/3
f 8/6/3 15/12/3 19/7/3
f 7/4/4 22/31/4 23/9/4
f 4/11/5 14/134/5 15/12/5
f 1/13/3 35/34/3 36/14/3
f 12/16/5 32/37/5 29/17/5
f 11/19/5 28/39/5 25/20/5
f 2/22/6 14/25/6 18/23/6
f 11/19/6 19/7/6 15/12/6
f 6/24/6 15/12/6 14/25/6
f 9/18/6 13/32/6 18/23/6
f 12/16/6 21/8/6 19/7/6
f 5/28/6 22/31/6 21/8/6
f 1/13/6 17/15/6 24/26/6
f 1/13/6 23/30/6 22/31/6
f 13/32/6 16/27/6 11/19/6
f 17/15/6 20/29/6 12/16/6
f 33/33/6 36/14/6 35/34/6
f 31/36/6 30/41/6 29/17/6
f 27/38/6 26/40/6 25/20/6
f 10/21/3 25/20/3 26/40/3
f 13/32/4 30/41/4 31/36/4
f 5/28/5 34/35/5 35/34/5
f 6/24/1 27/38/1 28/39/1
f 9/18/3 29/17/3 30/41/3
f 17/15/4 36/14/4 33/33/4
f 2/22/4 26/40/4 27/38/4
f 16/27/1 31/36/1 32/37/1
f 20/29/1 33/33/1 34/35/1
f 39/46/1 37/135/1 45/42/1
f 46/43/1 38/136/1 40/44/1
f 39/46/1 45/42/1 40/44/1
f 40/44/2 44/47/2 43/45/2
f 41/63/3 43/45/3 48/49/3
f 43/45/3 44/47/3 48/49/3
f 44/47/3 42/67/3 47/48/3
f 52/50/6 38/137/6 46/51/6
f 37/138/4 39/139/4 49/54/4
f 39/139/4 43/45/4 49/54/4
f 43/45/4 41/63/4 50/53/4
f 42/67/5 44/47/5 51/57/5
f 44/47/5 40/55/5 51/57/5
f 40/55/5 38/140/5 52/56/5
f 54/58/6 45/61/6 37/59/6
f 56/52/6 46/51/6 45/61/6
f 48/49/6 53/64/6 50/62/6
f 53/64/6 54/58/6 49/60/6
f 47/48/6 55/65/6 53/64/6
f 55/65/1 59/69/1 57/66/1
f 42/67/6 51/68/6 55/65/6
f 51/68/6 52/50/6 56/52/6
f 59/69/7 60/71/7 58/70/7
f 53/64/8 57/66/8 58/70/8
f 56/52/3 54/58/3 58/70/3
f 56/52/9 60/71/9 59/69/9
f 63/76/1 61/141/1 69/72/1
f 70/73/1 62/142/1 64/74/1
f 63/76/1 69/72/1 64/74/1
f 64/74/2 68/77/2 67/75/2
f 65/93/3 67/75/3 72/79/3
f 67/75/3 68/77/3 72/79/3
f 68/77/3 66/97/3 71/78/3
f 76/80/6 62/143/6 70/81/6
f 61/144/4 63/145/4 73/84/4
f 63/145/4 67/75/4 73/84/4
f 67/75/4 65/93/4 74/83/4
f 66/97/5 68/77/5 75/87/5
f 68/77/5 64/85/5 75/87/5
f 64/85/5 62/146/5 76/86/5
f 78/88/6 69/91/6 61/89/6
f 80/82/6 70/81/6 69/91/6
f 72/79/6 77/94/6 74/92/6
f 77/94/6 78/88/6 73/90/6
f 71/78/6 79/95/6 77/94/6
f 79/95/1 83/99/1 81/96/1
f 66/97/6 75/98/6 79/95/6
f 75/98/6 76/80/6 80/82/6
f 83/99/7 84/101/7 82/100/7
f 77/94/8 81/96/8 82/100/8
f 80/82/3 78/88/3 82/100/3
f 80/82/9 84/101/9 83/99/9
f 87/106/1 85/147/1 93/102/1
f 94/103/1 86/148/1 88/104/1
f 87/106/1 93/102/1 88/104/1
f 88/104/2 92/107/2 91/105/2
f 89/123/3 91/105/3 96/109/3
f 91/105/3 92/107/3 96/109/3
f 92/107/3 90/127/3 95/108/3
f 100/110/6 86/149/6 94/111/6
f 85/150/4 87/151/4 97/114/4
f 87/151/4 91/105/4 97/114/4
f 91/105/4 89/123/4 98/113/4
f 90/127/5 92/107/5 99/117/5
f 92/107/5 88/115/5 99/117/5
f 88/115/5 86/152/5 100/116/5
f 102/118/6 93/121/6 85/119/6
f 104/112/6 94/111/6 93/121/6
f 96/109/6 101/124/6 98/122/6
f 101/124/6 102/118/6 97/120/6
f 95/108/6 103/125/6 101/124/6
f 103/125/1 107/129/1 105/126/1
f 90/127/6 99/128/6 103/125/6
f 99/128/6 100/110/6 104/112/6
f 107/129/7 108/131/7 106/130/7
f 101/124/8 105/126/8 106/130/8
f 104/112/3 102/118/3 106/130/3
f 104/112/9 108/131/9 107/129/9
