# Blender v2.83.1 OBJ File: 'Masterfile.blend'
# www.blender.org
o Cabinet_Filing_Drawer_Cube.037
v -0.542431 -0.464848 0.871135
v -0.542431 0.419547 0.871135
v -0.542431 -0.464848 -0.699615
v -0.542431 0.419547 -0.699615
v 0.542431 -0.464848 0.871135
v 0.542431 0.419547 0.871135
v 0.542431 -0.464848 -0.699615
v 0.542431 0.419547 -0.699615
v -0.542431 0.205852 0.871135
v -0.542431 0.295503 0.871135
v 0.542431 0.295503 0.871135
v 0.542431 0.205852 0.871135
v -0.483416 -0.464848 0.871135
v 0.483416 -0.464848 0.871135
v 0.483416 0.419547 0.871135
v -0.483416 0.419547 0.871135
v 0.483416 0.205852 0.871135
v -0.483416 0.205852 0.871135
v 0.483416 0.295503 0.871135
v -0.483416 0.295503 0.871135
v 0.483416 0.315287 0.732583
v -0.483416 0.315287 0.732583
v 0.483416 0.355606 0.826647
v -0.483416 0.355606 0.826647
vt 0.458333 0.000000
vt 0.541667 0.000000
vt 0.625000 0.250000
vt 0.375000 0.500000
vt 0.375000 0.250000
vt 0.625000 0.500000
vt 0.541667 0.750000
vt 0.458333 0.750000
vt 0.625000 0.916667
vt 0.541667 1.000000
vt 0.541667 0.916667
vt 0.291667 0.750000
vt 0.208333 0.750000
vt 0.875000 0.500000
vt 0.791667 0.750000
vt 0.708333 0.750000
vt 0.458333 0.916667
vt 0.375000 1.000000
vt 0.375000 0.916667
vt 0.458333 1.000000
vt 0.375000 0.833333
vt 0.375000 0.750000
vt 0.458333 0.833333
vt 0.541667 0.833333
vt 0.458333 0.833333
vt 0.625000 0.833333
vt 0.541667 0.833333
vt 0.458333 0.916667
vt 0.541667 0.916667
vt 0.375000 0.000000
vt 0.625000 0.000000
vt 0.625000 0.750000
vt 0.625000 1.000000
vt 0.125000 0.750000
vt 0.125000 0.500000
vt 0.875000 0.750000
vn -1.0000 0.0000 0.0000
vn 0.0000 0.0000 -1.0000
vn 1.0000 0.0000 0.0000
vn 0.0000 0.0000 1.0000
vn 0.0000 -1.0000 0.0000
vn 0.0000 1.0000 -0.0000
vn 0.0000 -0.9191 0.3940
vn 0.0000 0.7847 0.6198
vn 0.0000 -0.5949 -0.8038
s off
f 9/1/1 10/2/1 4/3/1
f 4/3/2 7/4/2 3/5/2
f 8/6/3 11/7/3 12/8/3
f 16/9/4 10/10/4 20/11/4
f 7/4/5 14/12/5 13/13/5
f 4/14/6 16/15/6 15/16/6
f 18/17/4 1/18/4 13/19/4
f 20/11/4 9/20/4 18/17/4
f 12/8/4 14/21/4 5/22/4
f 17/23/4 13/19/4 14/21/4
f 12/8/4 19/24/4 17/23/4
f 19/24/1 21/25/1 17/23/1
f 11/7/4 15/26/4 19/24/4
f 15/26/4 20/11/4 19/24/4
f 23/27/7 22/28/7 21/25/7
f 17/23/8 22/28/8 18/17/8
f 20/11/3 22/28/3 24/29/3
f 20/11/9 23/27/9 19/24/9
f 3/5/1 1/30/1 9/1/1
f 10/2/1 2/31/1 4/3/1
f 3/5/1 9/1/1 4/3/1
f 4/3/2 8/6/2 7/4/2
f 5/22/3 7/4/3 12/8/3
f 7/4/3 8/6/3 12/8/3
f 8/6/3 6/32/3 11/7/3
f 16/9/4 2/33/4 10/10/4
f 1/34/5 3/35/5 13/13/5
f 3/35/5 7/4/5 13/13/5
f 7/4/5 5/22/5 14/12/5
f 6/32/6 8/6/6 15/16/6
f 8/6/6 4/14/6 15/16/6
f 4/14/6 2/36/6 16/15/6
f 18/17/4 9/20/4 1/18/4
f 20/11/4 10/10/4 9/20/4
f 12/8/4 17/23/4 14/21/4
f 17/23/4 18/17/4 13/19/4
f 12/8/4 11/7/4 19/24/4
f 19/24/1 23/27/1 21/25/1
f 11/7/4 6/32/4 15/26/4
f 15/26/4 16/9/4 20/11/4
f 23/27/7 24/29/7 22/28/7
f 17/23/8 21/25/8 22/28/8
f 20/11/3 18/17/3 22/28/3
f 20/11/9 24/29/9 23/27/9
