# Blender v2.83.1 OBJ File: 'Masterfile.blend'
# www.blender.org
o Cabinet_Wall_Large_LeftD_Cylinder
v -1.145000 0.250000 1.375000
v -1.145000 4.490000 1.375000
v -1.109645 0.250000 1.389645
v -1.109645 4.490000 1.389645
v -1.095000 0.250000 1.425000
v -1.095000 4.490000 1.425000
v -1.109645 0.250000 1.460355
v -1.109645 4.490000 1.460355
v -1.145000 0.250000 1.475000
v -1.145000 4.490000 1.475000
v -1.180355 0.250000 1.460355
v -1.180355 4.490000 1.460355
v -1.195000 0.250000 1.425000
v -1.195000 4.490000 1.425000
v -1.180355 0.250000 1.389645
v -1.180355 4.490000 1.389645
v 0.000000 0.369250 1.475000
v 0.000000 4.444850 1.475000
v 0.000000 0.369250 1.425000
v 0.000000 4.444850 1.425000
v -1.145000 4.444850 1.475000
v -1.145000 0.369250 1.475000
v -1.095000 4.444850 1.425000
v -1.095000 0.369250 1.425000
v -1.145000 0.250000 1.425000
vt 1.000000 1.000000
vt 0.875000 0.500000
vt 1.000000 0.500000
vt 0.875000 1.000000
vt 0.750000 0.833333
vt 0.750000 0.666667
vt 0.625000 1.000000
vt 0.500000 0.833333
vt 0.500000 0.666667
vt 0.375000 1.000000
vt 0.250000 0.500000
vt 0.375000 0.500000
vt 0.250000 0.490000
vt 0.010000 0.250000
vt 0.250000 0.010000
vt 0.250000 1.000000
vt 0.125000 0.500000
vt 0.125000 1.000000
vt 0.000000 0.500000
vt 0.580294 0.080294
vt 0.510000 0.250000
vt 0.580294 0.419706
vt 0.625000 0.250000
vt 0.375000 0.500000
vt 0.375000 0.250000
vt 0.625000 0.500000
vt 0.375000 0.750000
vt 0.625000 0.750000
vt 0.375000 1.000000
vt 0.125000 0.500000
vt 0.125000 0.750000
vt 0.875000 0.500000
vt 0.750000 0.500000
vt 0.750000 1.000000
vt 0.625000 0.500000
vt 0.500000 0.500000
vt 0.500000 1.000000
vt 0.490000 0.250000
vt 0.419706 0.419706
vt 0.080294 0.419706
vt 0.080294 0.080294
vt 0.419706 0.080294
vt 0.000000 1.000000
vt 0.750000 0.490000
vt 0.919706 0.419706
vt 0.990000 0.250000
vt 0.919706 0.080294
vt 0.750000 0.010000
vt 0.625000 1.000000
vt 0.875000 0.750000
vn -0.0000 0.0000 -1.0000
vn 0.7071 0.0000 -0.7071
vn 1.0000 0.0000 -0.0000
vn 0.7071 0.0000 0.7071
vn -0.0000 0.0000 1.0000
vn -0.7071 0.0000 0.7071
vn -1.0000 0.0000 -0.0000
vn 0.0000 1.0000 0.0000
vn -0.7071 0.0000 -0.7071
vn 0.0000 -1.0000 0.0000
s 1
f 2/1/1 3/2/2 1/3/1
f 4/4/2 23/5/3 24/6/3
f 24/6/3 23/5/3 8/7/4
f 8/7/4 21/8/5 22/9/5
f 22/9/5 21/8/5 12/10/6
f 12/10/6 13/11/7 11/12/6
f 2/13/8 14/14/8 10/15/8
f 14/16/7 15/17/9 13/11/7
f 16/18/9 1/19/1 15/17/9
f 11/20/10 13/21/10 15/22/10
f 23/23/1 19/24/1 24/25/1
f 20/26/3 17/27/3 19/24/3
f 18/28/5 22/29/5 17/27/5
f 24/30/10 17/27/10 22/31/10
f 23/32/8 18/28/8 20/26/8
f 2/1/1 4/4/2 3/2/2
f 5/33/3 3/2/2 24/6/3
f 3/2/2 4/4/2 24/6/3
f 4/4/2 6/34/3 23/5/3
f 7/35/4 5/33/3 24/6/3
f 23/5/3 6/34/3 8/7/4
f 7/35/4 24/6/3 8/7/4
f 9/36/5 7/35/4 22/9/5
f 7/35/4 8/7/4 22/9/5
f 8/7/4 10/37/5 21/8/5
f 11/12/6 9/36/5 22/9/5
f 21/8/5 10/37/5 12/10/6
f 11/12/6 22/9/5 12/10/6
f 12/10/6 14/16/7 13/11/7
f 6/38/8 4/39/8 2/13/8
f 2/13/8 16/40/8 14/14/8
f 14/14/8 12/41/8 10/15/8
f 10/15/8 8/42/8 6/38/8
f 6/38/8 2/13/8 10/15/8
f 14/16/7 16/18/9 15/17/9
f 16/18/9 2/43/1 1/19/1
f 15/22/10 1/44/10 3/45/10
f 3/45/10 5/46/10 15/22/10
f 5/46/10 7/47/10 15/22/10
f 7/47/10 9/48/10 15/22/10
f 9/48/10 11/20/10 15/22/10
f 23/23/1 20/26/1 19/24/1
f 20/26/3 18/28/3 17/27/3
f 18/28/5 21/49/5 22/29/5
f 24/30/10 19/24/10 17/27/10
f 23/32/8 21/50/8 18/28/8
l 25 9
l 1 25
