# Blender v2.83.1 OBJ File: 'Masterfile.blend'
# www.blender.org
o Desk_Small_Cube.034
v -0.924805 1.703702 1.924805
v -0.924805 1.703702 -1.924805
v 0.924805 1.703702 1.924805
v 0.924805 1.703702 -1.924805
v -0.924805 0.000000 -1.774805
v -0.924805 1.703702 -1.774805
v -0.924805 0.000000 -1.924805
v -0.774805 0.000000 -1.774805
v -0.774805 1.703702 -1.774805
v -0.774805 0.000000 -1.924805
v -0.774805 1.703702 -1.924805
v -0.924805 0.000000 1.924805
v 0.774805 0.000000 1.924805
v -0.924805 0.000000 1.774805
v -0.924805 1.703702 1.774805
v -0.774805 0.000000 1.924805
v -0.774805 1.703702 1.924805
v -0.774805 0.000000 1.774805
v -0.774805 1.703702 1.774805
v 0.774805 1.703702 1.924805
v 0.774805 0.000000 1.774805
v 0.774805 1.703702 1.774805
v 0.924805 0.000000 1.924805
v 0.924805 0.000000 1.774805
v 0.924805 1.703702 1.774805
v 0.774805 0.000000 -1.774805
v 0.774805 1.703702 -1.774805
v 0.774805 0.000000 -1.924805
v 0.774805 1.703702 -1.924805
v 0.924805 0.000000 -1.774805
v 0.924805 1.703702 -1.774805
v 0.924805 0.000000 -1.924805
v -1.000000 1.837421 1.950000
v -0.950000 1.837421 2.000000
v -0.950000 1.837421 -2.000000
v -1.000000 1.837421 -1.950000
v 0.950000 1.837421 2.000000
v 1.000000 1.837421 1.950000
v 1.000000 1.837421 -1.950000
v 0.950000 1.837421 -2.000000
v -1.000000 1.703702 -1.950000
v -0.950000 1.703702 -2.000000
v -0.964645 1.703702 -1.964645
v -0.950000 1.703702 2.000000
v -1.000000 1.703702 1.950000
v -0.964645 1.703702 1.964645
v 0.950000 1.703702 -2.000000
v 1.000000 1.703702 -1.950000
v 0.964645 1.703702 -1.964645
v 1.000000 1.703702 1.950000
v 0.950000 1.703702 2.000000
v 0.964645 1.703702 1.964645
vt 0.868750 0.750000
vt 0.631250 0.750000
vt 0.625000 0.746875
vt 0.625000 0.503125
vt 0.375000 0.746875
vt 0.375000 0.503125
vt 0.125000 0.746875
vt 0.125000 0.503125
vt 0.134399 0.745300
vt 0.625000 0.003125
vt 0.375000 0.246875
vt 0.375000 0.003125
vt 0.365601 0.504700
vt 0.134399 0.504700
vt 0.625000 0.256250
vt 0.375000 0.493750
vt 0.375000 0.256250
vt 0.131250 0.500000
vt 0.368750 0.500000
vt 0.368750 0.750000
vt 0.131250 0.750000
vt 0.365601 0.745300
vt 0.625000 0.000000
vt 0.375000 0.250000
vt 0.375000 0.000000
vt 0.625000 0.250000
vt 0.375000 0.500000
vt 0.625000 0.500000
vt 0.375000 0.750000
vt 0.625000 0.750000
vt 0.375000 1.000000
vt 0.625000 0.000000
vt 0.375000 0.250000
vt 0.375000 0.000000
vt 0.625000 0.250000
vt 0.375000 0.500000
vt 0.625000 0.500000
vt 0.375000 0.750000
vt 0.625000 0.750000
vt 0.375000 1.000000
vt 0.625000 0.000000
vt 0.375000 0.250000
vt 0.375000 0.000000
vt 0.625000 0.250000
vt 0.375000 0.500000
vt 0.625000 0.500000
vt 0.375000 0.750000
vt 0.625000 0.750000
vt 0.375000 1.000000
vt 0.625000 0.000000
vt 0.375000 0.250000
vt 0.375000 0.000000
vt 0.625000 0.250000
vt 0.375000 0.500000
vt 0.625000 0.500000
vt 0.375000 0.750000
vt 0.625000 0.750000
vt 0.375000 1.000000
vt 0.128125 0.501562
vt 0.129419 0.502210
vt 0.128125 0.748438
vt 0.129419 0.747790
vt 0.371875 0.501562
vt 0.370581 0.502210
vt 0.371875 0.748438
vt 0.370581 0.747790
vt 0.625000 0.993750
vt 0.375000 1.000000
vt 0.375000 0.993750
vt 0.625000 0.246875
vt 0.625000 0.493750
vt 0.375000 0.756250
vt 0.625000 0.756250
vt 0.875000 0.503125
vt 0.631250 0.500000
vt 0.868750 0.500000
vt 0.875000 0.746875
vt 0.625000 1.000000
vt 0.625000 1.000000
vt 0.625000 1.000000
vt 0.625000 1.000000
vt 0.625000 1.000000
vn 0.0000 1.0000 -0.0000
vn 1.0000 0.0000 0.0000
vn 0.0000 -1.0000 0.0000
vn -1.0000 0.0000 0.0000
vn 0.0000 0.0000 -1.0000
vn 0.0000 0.0000 1.0000
vn -0.7071 0.0000 0.7071
vn -0.7071 0.0000 -0.7071
vn 0.7071 0.0000 -0.7071
vn 0.7071 0.0000 0.7071
s off
f 34/1/1 37/2/1 38/3/1
f 39/4/2 50/5/2 48/6/2
f 45/7/3 41/8/3 1/9/3
f 33/10/4 41/11/4 45/12/4
f 4/13/3 1/9/3 2/14/3
f 35/15/5 47/16/5 42/17/5
f 42/18/3 47/19/3 2/14/3
f 51/20/3 44/21/3 3/22/3
f 48/6/3 50/5/3 4/13/3
f 6/23/4 7/24/4 5/25/4
f 2/26/5 10/27/5 7/24/5
f 11/28/2 8/29/2 10/27/2
f 9/30/6 5/31/6 8/29/6
f 1/32/4 14/33/4 12/34/4
f 15/35/5 18/36/5 14/33/5
f 19/37/2 16/38/2 18/36/2
f 17/39/6 12/40/6 16/38/6
f 20/41/4 21/42/4 13/43/4
f 22/44/5 24/45/5 21/42/5
f 25/46/2 23/47/2 24/45/2
f 3/48/6 13/49/6 23/47/6
f 27/50/4 28/51/4 26/52/4
f 29/53/5 32/54/5 28/51/5
f 4/55/2 30/56/2 32/54/2
f 31/57/6 26/58/6 30/56/6
f 41/8/3 42/59/3 43/60/3
f 44/21/3 45/61/3 46/62/3
f 47/19/3 48/63/3 49/64/3
f 50/5/3 51/65/3 52/66/3
f 34/67/7 45/68/7 44/69/7
f 42/17/8 36/70/8 35/15/8
f 48/6/9 40/71/9 39/4/9
f 51/72/10 38/3/10 37/73/10
f 37/73/6 44/69/6 51/72/6
f 38/3/1 39/4/1 36/74/1
f 39/4/1 40/75/1 36/74/1
f 40/75/1 35/76/1 36/74/1
f 36/74/1 33/77/1 38/3/1
f 33/77/1 34/1/1 38/3/1
f 39/4/2 38/3/2 50/5/2
f 43/60/3 2/14/3 41/8/3
f 2/14/3 1/9/3 41/8/3
f 1/9/3 46/62/3 45/7/3
f 33/10/4 36/70/4 41/11/4
f 4/13/3 3/22/3 1/9/3
f 35/15/5 40/71/5 47/16/5
f 49/64/3 4/13/3 47/19/3
f 4/13/3 2/14/3 47/19/3
f 2/14/3 43/60/3 42/18/3
f 46/62/3 1/9/3 44/21/3
f 1/9/3 3/22/3 44/21/3
f 3/22/3 52/66/3 51/20/3
f 52/66/3 3/22/3 50/5/3
f 3/22/3 4/13/3 50/5/3
f 4/13/3 49/64/3 48/6/3
f 6/23/4 2/26/4 7/24/4
f 2/26/5 11/28/5 10/27/5
f 11/28/2 9/30/2 8/29/2
f 9/30/6 6/78/6 5/31/6
f 1/32/4 15/35/4 14/33/4
f 15/35/5 19/37/5 18/36/5
f 19/37/2 17/39/2 16/38/2
f 17/39/6 1/79/6 12/40/6
f 20/41/4 22/44/4 21/42/4
f 22/44/5 25/46/5 24/45/5
f 25/46/2 3/48/2 23/47/2
f 3/48/6 20/80/6 13/49/6
f 27/50/4 29/53/4 28/51/4
f 29/53/5 4/55/5 32/54/5
f 4/55/2 31/57/2 30/56/2
f 31/57/6 27/81/6 26/58/6
f 34/67/7 33/82/7 45/68/7
f 42/17/8 41/11/8 36/70/8
f 48/6/9 47/16/9 40/71/9
f 51/72/10 50/5/10 38/3/10
f 37/73/6 34/67/6 44/69/6
