# Blender v2.83.1 OBJ File: 'Masterfile.blend'
# www.blender.org
o Door_Double_Windowed_A_Cube.022
v -3.333333 0.000000 0.187500
v -3.333333 4.333333 0.187500
v -3.333333 0.000000 -0.187500
v -3.333333 4.333333 -0.187500
v -0.000000 0.000000 -0.119431
v -0.141260 0.000000 -0.187500
v -0.141260 4.333333 -0.187500
v 0.000000 4.333333 -0.119431
v -0.141260 0.000000 0.187500
v 0.000000 0.000000 0.119431
v -0.000000 4.333333 0.119431
v -0.141260 4.333333 0.187500
v 0.000000 4.333333 -0.039810
v -0.000000 4.333333 0.039810
v -0.000000 0.000000 -0.039810
v 0.000000 0.000000 0.039810
v 0.050000 4.333333 -0.039810
v 0.050000 4.333333 0.039810
v 0.050000 0.000000 -0.039810
v 0.050000 0.000000 0.039810
v -0.603615 3.068400 0.187500
v -0.603615 3.068400 -0.187500
v -2.603615 3.068400 -0.187500
v -2.603615 3.068400 0.187500
v -2.603615 3.569525 0.187500
v -2.603615 3.569525 -0.187500
v -0.603615 3.569525 0.187500
v -0.603615 3.569525 -0.187500
v -2.603615 3.068400 0.093750
v -2.603615 3.068400 -0.093750
v -0.603615 3.569525 0.093750
v -0.603615 3.569525 -0.093750
v -0.603615 3.068400 -0.093750
v -0.603615 3.068400 0.093750
v -2.603615 3.569525 -0.093750
v -2.603615 3.569525 0.093750
v -2.553615 3.118512 0.093750
v -2.553615 3.118512 -0.093750
v -0.653615 3.519412 0.093750
v -0.653615 3.519412 -0.093750
v -0.653615 3.118512 -0.093750
v -0.653615 3.118512 0.093750
v -2.553615 3.519412 -0.093750
v -2.553615 3.519412 0.093750
vt 0.625000 0.000000
vt 0.375000 0.250000
vt 0.375000 0.000000
vt 0.375000 0.937500
vt 0.552023 0.985712
vt 0.375000 1.000000
vt 0.875000 0.500000
vt 0.812500 0.750000
vt 0.812500 0.500000
vt 0.750000 0.666667
vt 0.750000 0.583333
vt 0.187500 0.500000
vt 0.125000 0.750000
vt 0.125000 0.500000
vt 0.250000 0.666667
vt 0.250000 0.750000
vt 0.187500 0.750000
vt 0.375000 0.875000
vt 0.625000 0.708333
vt 0.625000 0.875000
vt 0.552023 0.264288
vt 0.552023 0.303447
vt 0.375000 0.312500
vt 0.625000 0.312500
vt 0.375000 0.375000
vt 0.291667 0.625000
vt 0.625000 0.375000
vt 0.625000 0.541667
vt 0.333333 0.750000
vt 0.625000 0.708333
vt 0.333333 0.750000
vt 0.625000 0.541667
vt 0.291667 0.625000
vt 0.250000 0.583333
vt 0.250000 0.666667
vt 0.750000 0.666667
vt 0.750000 0.583333
vt 0.875000 0.648438
vt 0.625000 0.632812
vt 0.875000 0.632812
vt 0.625000 0.648438
vt 0.375000 0.632812
vt 0.625000 0.148438
vt 0.375000 0.132812
vt 0.625000 0.132812
vt 0.580934 0.264288
vt 0.625000 0.250000
vt 0.125000 0.648438
vt 0.125000 0.632812
vt 0.625000 1.000000
vt 0.580934 0.985712
vt 0.625000 0.937500
vt 0.375000 0.617187
vt 0.125000 0.601562
vt 0.375000 0.601562
vt 0.875000 0.632812
vt 0.625000 0.117188
vt 0.375000 0.101562
vt 0.625000 0.101562
vt 0.125000 0.617188
vt 0.125000 0.617188
vt 0.625000 0.617188
vt 0.625000 0.601562
vt 0.375000 0.117188
vt 0.375000 0.117188
vt 0.875000 0.617188
vt 0.875000 0.601562
vt 0.375000 0.617187
vt 0.125000 0.632812
vt 0.625000 0.132812
vt 0.625000 0.117188
vt 0.625000 0.632812
vt 0.625000 0.617188
vt 0.875000 0.617188
vt 0.375000 0.632812
vt 0.552023 0.946553
vt 0.580934 0.946553
vt 0.875000 0.750000
vt 0.750000 0.500000
vt 0.750000 0.750000
vt 0.250000 0.583333
vt 0.250000 0.500000
vt 0.375000 0.648438
vt 0.375000 0.148438
vt 0.580934 0.303447
vt 0.375000 0.132812
vn -1.0000 0.0000 0.0000
vn 0.0000 0.0000 1.0000
vn 0.0000 1.0000 0.0000
vn 0.0000 -1.0000 0.0000
vn 1.0000 0.0000 0.0000
vn 0.4341 0.0000 0.9009
vn 0.0000 0.0000 -1.0000
vn 0.4341 0.0000 -0.9009
s off
f 2/1/1 3/2/1 1/3/1
f 9/4/2 24/5/2 1/6/2
f 4/7/3 12/8/3 7/9/3
f 14/10/3 13/11/3 7/9/3
f 6/12/4 1/13/4 3/14/4
f 16/15/4 10/16/4 9/17/4
f 10/18/5 14/19/5 11/20/5
f 11/20/6 9/4/6 10/18/6
f 23/21/7 22/22/7 6/23/7
f 7/24/8 5/25/8 6/23/8
f 15/26/5 8/27/5 13/28/5
f 16/29/2 18/30/2 14/19/2
f 20/31/5 17/32/5 18/30/5
f 13/28/7 19/33/7 15/26/7
f 16/15/4 19/34/4 20/35/4
f 13/11/3 18/36/3 17/37/3
f 27/38/4 36/39/4 31/40/4
f 25/41/5 29/42/5 36/39/5
f 28/43/1 33/44/1 32/45/1
f 26/46/7 4/47/7 7/24/7
f 29/42/3 21/48/3 34/49/3
f 2/50/2 25/51/2 12/52/2
f 30/53/3 22/54/3 23/55/3
f 36/39/2 39/56/2 31/40/2
f 31/57/1 21/58/1 27/59/1
f 30/53/7 41/60/7 33/61/7
f 35/62/5 23/55/5 26/63/5
f 31/57/2 42/64/2 34/65/2
f 32/66/4 26/63/4 28/67/4
f 35/62/7 38/68/7 30/53/7
f 38/68/3 42/69/3 41/60/3
f 40/70/1 42/64/1 39/71/1
f 44/72/5 38/68/5 43/73/5
f 39/56/4 43/73/4 40/74/4
f 29/42/2 44/72/2 36/39/2
f 33/44/7 40/70/7 32/45/7
f 34/49/2 37/75/2 29/42/2
f 32/66/7 43/73/7 35/62/7
f 2/1/1 4/47/1 3/2/1
f 9/4/2 12/52/2 21/76/2
f 12/52/2 27/77/2 21/76/2
f 24/5/2 2/50/2 1/6/2
f 9/4/2 21/76/2 24/5/2
f 4/7/3 2/78/3 12/8/3
f 13/11/3 8/79/3 7/9/3
f 7/9/3 12/8/3 14/10/3
f 12/8/3 11/80/3 14/10/3
f 6/12/4 9/17/4 1/13/4
f 9/17/4 6/12/4 15/81/4
f 6/12/4 5/82/4 15/81/4
f 15/81/4 16/15/4 9/17/4
f 10/18/5 16/29/5 14/19/5
f 11/20/6 12/52/6 9/4/6
f 3/2/7 4/47/7 23/21/7
f 4/47/7 26/46/7 23/21/7
f 22/22/7 7/24/7 6/23/7
f 3/2/7 23/21/7 6/23/7
f 7/24/8 8/27/8 5/25/8
f 15/26/5 5/82/5 8/27/5
f 16/29/2 20/31/2 18/30/2
f 20/31/5 19/33/5 17/32/5
f 13/28/7 17/32/7 19/33/7
f 16/15/4 15/81/4 19/34/4
f 13/11/3 14/10/3 18/36/3
f 27/38/4 25/41/4 36/39/4
f 25/41/5 24/83/5 29/42/5
f 28/43/1 22/84/1 33/44/1
f 7/24/7 22/22/7 28/85/7
f 28/85/7 26/46/7 7/24/7
f 29/42/3 24/83/3 21/48/3
f 2/50/2 24/5/2 25/51/2
f 25/51/2 27/77/2 12/52/2
f 30/53/3 33/61/3 22/54/3
f 36/39/2 44/72/2 39/56/2
f 31/57/1 34/65/1 21/58/1
f 30/53/7 38/68/7 41/60/7
f 35/62/5 30/53/5 23/55/5
f 31/57/2 39/71/2 42/64/2
f 32/66/4 35/62/4 26/63/4
f 35/62/7 43/73/7 38/68/7
f 38/68/3 37/75/3 42/69/3
f 40/70/1 41/86/1 42/64/1
f 44/72/5 37/75/5 38/68/5
f 39/56/4 44/72/4 43/73/4
f 29/42/2 37/75/2 44/72/2
f 33/44/7 41/86/7 40/70/7
f 34/49/2 42/69/2 37/75/2
f 32/66/7 40/74/7 43/73/7
