# Blender v2.83.1 OBJ File: 'Masterfile.blend'
# www.blender.org
o Door_Single_Frame_Cube.001
v -2.000000 0.000000 0.750000
v -2.000000 5.000000 0.750000
v 2.000000 0.000000 0.750000
v 2.000000 5.000000 0.750000
v -1.333333 0.000000 0.750000
v 1.333333 0.000000 0.750000
v 1.333333 5.000000 0.750000
v -1.333333 5.000000 0.750000
v -2.000000 4.333333 0.750000
v 2.000000 4.333333 0.750000
v 0.933333 4.333333 0.750000
v 1.333333 3.933333 0.750000
v 1.733333 4.333333 0.750000
v 1.333333 4.733333 0.750000
v -1.333333 3.933333 0.750000
v -0.933333 4.333333 0.750000
v -1.333333 4.733333 0.750000
v -1.733333 4.333333 0.750000
v -2.000000 0.000000 0.375000
v -2.000000 5.000000 0.375000
v 2.000000 0.000000 0.375000
v 2.000000 5.000000 0.375000
v 1.333333 5.000000 0.375000
v -1.333333 5.000000 0.375000
v -1.333333 0.000000 0.375000
v 1.333333 0.000000 0.375000
v 2.000000 4.333333 0.375000
v -2.000000 4.333333 0.375000
v -1.333333 3.933333 0.375000
v -0.933333 4.333333 0.375000
v 0.933333 4.333333 0.375000
v 1.333333 3.933333 0.375000
v -1.200000 0.000000 0.375000
v 1.200000 0.000000 0.375000
v -1.200000 3.815555 0.375000
v -0.840000 4.175555 0.375000
v 0.840000 4.175555 0.375000
v 1.200000 3.815555 0.375000
v -2.000000 0.000000 0.000000
v -2.000000 5.000000 0.000000
v 2.000000 0.000000 0.000000
v 2.000000 5.000000 0.000000
v 1.333333 5.000000 0.000000
v -1.333333 5.000000 0.000000
v -1.333333 0.000000 0.000000
v 1.333333 0.000000 0.000000
v 2.000000 4.333333 0.000000
v -2.000000 4.333333 0.000000
v -1.200000 0.000000 0.000000
v 1.200000 0.000000 0.000000
v -1.200000 3.815555 0.000000
v -0.840000 4.175555 0.000000
v 0.840000 4.175555 0.000000
v 1.200000 3.815555 0.000000
vt 0.625000 0.666667
vt 0.500000 0.750000
vt 0.500000 0.666667
vt 0.488462 0.916667
vt 0.500000 1.000000
vt 0.375000 1.000000
vt 0.375000 0.666667
vt 0.291667 0.750000
vt 0.291667 0.666667
vt 0.875000 0.666667
vt 0.791667 0.750000
vt 0.791667 0.666667
vt 0.708333 0.666667
vt 0.625000 0.750000
vt 0.708333 0.750000
vt 0.208333 0.666667
vt 0.125000 0.750000
vt 0.125000 0.666667
vt 0.575000 0.833333
vt 0.500000 0.783333
vt 0.500000 0.698611
vt 0.500000 0.904167
vt 0.500000 0.718055
vt 0.575000 0.916667
vt 0.625000 0.916667
vt 0.625000 1.000000
vt 0.488462 0.833333
vt 0.375000 0.750000
vt 0.500000 0.845833
vt 0.500000 0.916667
vt 0.500000 0.966667
vt 0.485897 0.697008
vt 0.375000 0.833333
vt 0.291667 0.625000
vt 0.291667 0.625000
vt 0.347222 0.722222
vt 0.485897 0.697008
vt 0.347222 0.722222
vt 0.483333 0.727350
vt 0.500000 0.000000
vt 0.375000 0.083333
vt 0.375000 0.000000
vt 0.500000 0.625000
vt 0.375000 0.625000
vt 0.375000 0.916667
vt 0.208333 0.625000
vt 0.125000 0.625000
vt 0.791667 0.625000
vt 0.708333 0.625000
vt 0.625000 0.625000
vt 0.875000 0.625000
vt 0.625000 0.000000
vt 0.500000 0.083333
vt 0.500000 0.625000
vt 0.500000 0.718055
vt 0.500000 0.625000
vt 0.500000 0.698611
vt 0.319444 0.777778
vt 0.483333 0.727350
vt 0.208333 0.666667
vt 0.319444 0.777778
vt 0.480769 0.632692
vt 0.484615 0.628846
vt 0.625000 0.083333
vt 0.500000 0.125000
vt 0.375000 0.125000
vt 0.875000 0.750000
vt 0.208333 0.750000
vt 0.625000 0.833333
vt 0.500000 0.833333
vt 0.291667 0.666667
vt 0.208333 0.625000
vt 0.291667 0.708333
vt 0.333333 0.666667
vt 0.625000 0.125000
vn 1.0000 0.0000 0.0000
vn -0.0000 0.0000 1.0000
vn 0.0000 -1.0000 0.0000
vn 0.0000 1.0000 0.0000
vn -1.0000 0.0000 0.0000
vn -0.7071 -0.7071 0.0000
vn 0.7071 -0.7071 0.0000
s off
f 22/1/1 10/2/1 27/3/1
f 15/4/2 9/5/2 1/6/2
f 21/7/3 6/8/3 26/9/3
f 20/10/4 8/11/4 24/12/4
f 23/13/4 4/14/4 22/1/4
f 24/12/4 7/15/4 23/13/4
f 25/16/3 1/17/3 19/18/3
f 4/14/2 14/19/2 13/20/2
f 31/21/3 16/22/3 30/23/3
f 17/24/2 8/25/2 2/26/2
f 10/2/2 13/20/2 12/27/2
f 8/25/2 17/24/2 16/22/2
f 27/3/1 3/28/1 21/7/1
f 11/29/2 13/20/2 14/19/2
f 16/30/2 18/31/2 15/4/2
f 32/32/5 6/33/5 12/27/5
f 26/9/3 50/34/3 46/35/3
f 31/21/6 12/27/6 11/29/6
f 26/36/2 38/37/2 34/38/2
f 29/39/7 16/22/7 15/4/7
f 9/40/5 19/41/5 1/42/5
f 47/43/1 21/7/1 41/44/1
f 5/45/1 29/39/1 15/4/1
f 45/46/3 19/18/3 39/47/3
f 44/48/4 23/13/4 43/49/4
f 43/49/4 22/1/4 42/50/4
f 40/51/4 24/12/4 44/48/4
f 41/44/3 26/9/3 46/35/3
f 42/50/1 27/3/1 47/43/1
f 2/52/5 28/53/5 9/40/5
f 53/54/3 36/55/3 52/56/3
f 29/39/2 36/55/2 30/23/2
f 30/23/2 37/57/2 31/21/2
f 25/58/2 35/59/2 29/39/2
f 32/32/2 37/57/2 38/37/2
f 45/46/3 33/60/3 25/16/3
f 33/61/1 51/62/1 35/59/1
f 51/62/7 36/55/7 35/59/7
f 53/54/6 38/37/6 37/57/6
f 54/63/5 34/38/5 38/37/5
f 20/64/5 48/65/5 28/53/5
f 28/53/5 39/66/5 19/41/5
f 22/1/1 4/14/1 10/2/1
f 1/6/2 5/45/2 15/4/2
f 15/4/2 18/31/2 9/5/2
f 21/7/3 3/28/3 6/8/3
f 20/10/4 2/67/4 8/11/4
f 23/13/4 7/15/4 4/14/4
f 24/12/4 8/11/4 7/15/4
f 25/16/3 5/68/3 1/17/3
f 13/20/2 10/2/2 4/14/2
f 4/14/2 7/69/2 14/19/2
f 31/21/3 11/29/3 16/22/3
f 9/5/2 18/31/2 2/26/2
f 18/31/2 17/24/2 2/26/2
f 6/33/2 3/28/2 12/27/2
f 3/28/2 10/2/2 12/27/2
f 16/22/2 11/29/2 7/69/2
f 11/29/2 14/19/2 7/69/2
f 7/69/2 8/25/2 16/22/2
f 27/3/1 10/2/1 3/28/1
f 11/29/2 12/70/2 13/20/2
f 16/30/2 17/24/2 18/31/2
f 32/32/5 26/36/5 6/33/5
f 26/9/3 34/71/3 50/34/3
f 31/21/6 32/32/6 12/27/6
f 26/36/2 32/32/2 38/37/2
f 29/39/7 30/23/7 16/22/7
f 9/40/5 28/53/5 19/41/5
f 47/43/1 27/3/1 21/7/1
f 5/45/1 25/58/1 29/39/1
f 45/46/3 25/16/3 19/18/3
f 44/48/4 24/12/4 23/13/4
f 43/49/4 23/13/4 22/1/4
f 40/51/4 20/10/4 24/12/4
f 41/44/3 21/7/3 26/9/3
f 42/50/1 22/1/1 27/3/1
f 2/52/5 20/64/5 28/53/5
f 53/54/3 37/57/3 36/55/3
f 29/39/2 35/59/2 36/55/2
f 30/23/2 36/55/2 37/57/2
f 25/58/2 33/61/2 35/59/2
f 32/32/2 31/21/2 37/57/2
f 45/46/3 49/72/3 33/60/3
f 33/61/1 49/73/1 51/62/1
f 51/62/7 52/56/7 36/55/7
f 53/54/6 54/63/6 38/37/6
f 54/63/5 50/74/5 34/38/5
f 20/64/5 40/75/5 48/65/5
f 28/53/5 48/65/5 39/66/5
