# Blender v2.83.1 OBJ File: 'Masterfile.blend'
# www.blender.org
o Door_Double_Windowed_B_Cube.023
v 3.333333 0.000000 0.187500
v 3.333333 4.333333 0.187500
v 3.333333 0.000000 -0.187500
v 3.333333 4.333333 -0.187500
v 0.141260 0.000000 -0.187500
v -0.000000 0.000000 -0.119431
v 0.000000 4.333333 -0.119431
v 0.141260 4.333333 -0.187500
v 0.000000 0.000000 0.119431
v 0.141260 0.000000 0.187500
v 0.141260 4.333333 0.187500
v -0.000000 4.333333 0.119431
v 0.000000 4.333333 -0.039810
v -0.000000 4.333333 0.039810
v -0.000000 0.000000 -0.039810
v 0.000000 0.000000 0.039810
v 0.055000 4.333333 -0.039810
v 0.055000 4.333333 0.039810
v 0.055000 0.000000 -0.039810
v 0.055000 0.000000 0.039810
v 0.141260 4.333333 0.000000
v 0.141260 0.000000 0.000000
v 2.603615 3.569525 -0.187500
v 2.603615 3.569525 0.187500
v 0.603615 3.569525 -0.187500
v 0.603615 3.569525 0.187500
v 2.603615 3.068400 -0.187500
v 2.603615 3.068400 0.187500
v 0.603615 3.068400 -0.187500
v 0.603615 3.068400 0.187500
v 2.603615 3.569525 -0.093750
v 2.603615 3.569525 0.093750
v 0.603615 3.569525 0.093750
v 0.603615 3.569525 -0.093750
v 2.603615 3.068400 0.093750
v 2.603615 3.068400 -0.093750
v 0.603615 3.068400 -0.093750
v 0.603615 3.068400 0.093750
v 2.553615 3.519412 -0.093750
v 2.553615 3.519412 0.093750
v 0.653615 3.519412 0.093750
v 0.653615 3.519412 -0.093750
v 2.553615 3.118512 0.093750
v 2.553615 3.118512 -0.093750
v 0.653615 3.118512 -0.093750
v 0.653615 3.118512 0.093750
vt 0.375000 0.437500
vt 0.552023 0.485712
vt 0.375000 0.500000
vt 0.625000 0.500000
vt 0.375000 0.750000
vt 0.312500 0.750000
vt 0.312500 0.625000
vt 0.687500 0.625000
vt 0.687500 0.750000
vt 0.625000 0.750000
vt 0.552023 0.764288
vt 0.552023 0.803447
vt 0.375000 0.812500
vt 0.625000 0.812500
vt 0.375000 0.875000
vt 0.625000 0.375000
vt 0.375000 0.375000
vt 0.625000 0.708333
vt 0.625000 0.875000
vt 0.333333 0.750000
vt 0.333333 0.750000
vt 0.291667 0.625000
vt 0.625000 0.541667
vt 0.625000 0.541667
vt 0.625000 0.708333
vt 0.687500 0.500000
vt 0.000000 0.000000
vt 0.291667 0.625000
vt 0.250000 0.500000
vt 0.375000 0.648438
vt 0.625000 0.632813
vt 0.375000 0.632812
vt 0.375000 0.148438
vt 0.625000 0.132812
vt 0.375000 0.132812
vt 0.580934 0.485712
vt 0.625000 0.437500
vt 0.580934 0.764288
vt 0.125000 0.648438
vt 0.125000 0.632812
vt 0.625000 0.648438
vt 0.875000 0.632812
vt 0.625000 0.617188
vt 0.875000 0.601562
vt 0.625000 0.601562
vt 0.625000 0.632813
vt 0.125000 0.617188
vt 0.375000 0.601562
vt 0.125000 0.601562
vt 0.125000 0.632812
vt 0.375000 0.117188
vt 0.625000 0.101562
vt 0.375000 0.101562
vt 0.375000 0.132812
vt 0.375000 0.617188
vt 0.375000 0.632812
vt 0.875000 0.617188
vt 0.625000 0.617188
vt 0.375000 0.617188
vt 0.125000 0.617188
vt 0.625000 0.117188
vt 0.375000 0.117188
vt 0.625000 0.117188
vt 0.875000 0.617188
vt 0.552023 0.446553
vt 0.580934 0.446553
vt 0.312500 0.500000
vt 0.625000 0.148438
vt 0.580934 0.803447
vt 0.875000 0.648438
vt 0.875000 0.632812
vt 0.625000 0.132812
vn 0.0000 0.0000 -1.0000
vn 1.0000 0.0000 0.0000
vn 0.0000 -1.0000 0.0000
vn 0.0000 1.0000 0.0000
vn -0.0000 0.0000 1.0000
vn -0.4341 0.0000 0.9009
vn -0.4341 0.0000 -0.9009
vn -1.0000 -0.0000 -0.0000
s off
f 5/1/1 27/2/1 3/3/1
f 4/4/2 1/5/2 3/3/2
f 1/5/3 10/6/3 22/7/3
f 21/8/4 11/9/4 2/10/4
f 28/11/5 30/12/5 10/13/5
f 11/14/6 9/15/6 10/13/6
f 7/16/7 5/1/7 6/17/7
f 14/18/8 9/15/8 12/19/8
f 14/18/1 20/20/1 16/21/1
f 7/16/8 15/22/8 13/23/8
f 17/24/8 20/20/8 18/25/8
f 15/22/5 17/24/5 13/23/5
f 21/8/4 8/26/4 17/27/4
f 7/16/4 17/24/4 8/26/4
f 18/25/4 12/19/4 11/14/4
f 11/14/4 21/8/4 18/25/4
f 18/25/4 21/8/4 17/27/4
f 19/28/3 6/29/3 5/1/3
f 22/7/3 19/28/3 5/1/3
f 19/28/3 22/7/3 20/20/3
f 22/7/3 10/6/3 20/20/3
f 9/15/3 20/20/3 10/6/3
f 28/30/8 32/31/8 35/32/8
f 29/33/2 34/34/2 37/35/2
f 4/4/1 23/36/1 8/37/1
f 24/38/5 2/10/5 11/14/5
f 30/39/4 35/32/4 38/40/4
f 24/41/3 33/42/3 32/31/3
f 31/43/3 25/44/3 23/45/3
f 33/42/5 40/46/5 32/31/5
f 37/47/4 27/48/4 29/49/4
f 35/32/5 46/50/5 38/40/5
f 38/51/2 26/52/2 30/53/2
f 34/34/1 45/54/1 37/35/1
f 36/55/8 23/45/8 27/48/8
f 35/32/5 40/46/5 43/56/5
f 40/46/3 42/57/3 39/58/3
f 46/50/4 44/59/4 45/60/4
f 45/54/2 41/61/2 46/62/2
f 44/59/8 40/46/8 39/58/8
f 36/55/1 39/58/1 31/43/1
f 38/51/5 41/61/5 33/63/5
f 37/47/1 44/59/1 36/55/1
f 31/43/1 42/57/1 34/64/1
f 5/1/1 8/37/1 29/65/1
f 8/37/1 25/66/1 29/65/1
f 27/2/1 4/4/1 3/3/1
f 5/1/1 29/65/1 27/2/1
f 4/4/2 2/10/2 1/5/2
f 22/7/3 5/67/3 3/3/3
f 3/3/3 1/5/3 22/7/3
f 2/10/4 4/4/4 21/8/4
f 4/4/4 8/26/4 21/8/4
f 1/5/5 2/10/5 28/11/5
f 2/10/5 24/38/5 28/11/5
f 30/12/5 11/14/5 10/13/5
f 1/5/5 28/11/5 10/13/5
f 11/14/6 12/19/6 9/15/6
f 7/16/7 8/37/7 5/1/7
f 14/18/8 16/21/8 9/15/8
f 14/18/1 18/25/1 20/20/1
f 7/16/8 6/29/8 15/22/8
f 17/24/8 19/28/8 20/20/8
f 15/22/5 19/28/5 17/24/5
f 7/16/4 13/23/4 17/24/4
f 18/25/4 14/18/4 12/19/4
f 19/28/3 15/22/3 6/29/3
f 9/15/3 16/21/3 20/20/3
f 28/30/8 24/41/8 32/31/8
f 29/33/2 25/68/2 34/34/2
f 4/4/1 27/2/1 23/36/1
f 23/36/1 25/66/1 8/37/1
f 11/14/5 30/12/5 26/69/5
f 26/69/5 24/38/5 11/14/5
f 30/39/4 28/30/4 35/32/4
f 24/41/3 26/70/3 33/42/3
f 31/43/3 34/64/3 25/44/3
f 33/42/5 41/71/5 40/46/5
f 37/47/4 36/55/4 27/48/4
f 35/32/5 43/56/5 46/50/5
f 38/51/2 33/63/2 26/52/2
f 34/34/1 42/72/1 45/54/1
f 36/55/8 31/43/8 23/45/8
f 35/32/5 32/31/5 40/46/5
f 40/46/3 41/71/3 42/57/3
f 46/50/4 43/56/4 44/59/4
f 45/54/2 42/72/2 41/61/2
f 44/59/8 43/56/8 40/46/8
f 36/55/1 44/59/1 39/58/1
f 38/51/5 46/62/5 41/61/5
f 37/47/1 45/60/1 44/59/1
f 31/43/1 39/58/1 42/57/1
