# Blender v2.83.1 OBJ File: 'Masterfile.blend'
# www.blender.org
o Hermetic_Extrerior_Cube.044
v -5.000000 0.000000 1.000000
v -5.000000 6.000000 1.000000
v -5.000000 0.000000 -1.000000
v -5.000000 6.000000 -1.000000
v 5.000000 0.000000 1.000000
v 5.000000 6.000000 1.000000
v 5.000000 0.000000 -1.000000
v 5.000000 6.000000 -1.000000
v -7.000000 0.000000 -1.000000
v -7.000000 0.000000 1.000000
v -7.000000 7.000000 1.000000
v -7.000000 7.000000 -1.000000
v 7.000000 7.000000 -1.000000
v 7.000000 0.000000 -1.000000
v 7.000000 0.000000 1.000000
v 7.000000 7.000000 1.000000
v -8.000000 0.000000 11.000000
v -8.000000 4.000000 11.000000
v 8.000000 4.000000 11.000000
v 8.000000 0.000000 11.000000
v -9.000000 0.000000 11.000000
v -9.000000 4.000000 11.000000
v 9.000000 4.000000 11.000000
v 9.000000 0.000000 11.000000
v -6.000000 0.000000 1.000000
v -6.000000 7.000000 1.000000
v -6.000000 7.000000 -1.000000
v -6.000000 0.000000 -1.000000
v 6.000000 0.000000 -1.000000
v 6.000000 7.000000 -1.000000
v 6.000000 7.000000 1.000000
v 6.000000 0.000000 1.000000
v -6.000000 6.000000 1.000000
v 6.000000 6.000000 1.000000
v 5.900000 5.200000 1.000000
v 5.900000 4.200000 1.000000
v 5.900000 1.800000 1.000000
v 5.900000 0.800000 1.000000
v -5.100000 0.800000 1.000000
v -5.100000 1.800000 1.000000
v -5.100000 4.200000 1.000000
v -5.100000 5.200000 1.000000
v 5.100000 5.200000 1.000000
v 5.100000 4.200000 1.000000
v 5.100000 1.800000 1.000000
v 5.100000 0.800000 1.000000
v -5.900000 0.800000 1.000000
v -5.900000 1.800000 1.000000
v -5.900000 4.200000 1.000000
v -5.900000 5.200000 1.000000
v -5.000000 4.100000 1.000000
v -5.000000 5.300000 1.000000
v -6.000000 4.100000 1.000000
v -6.000000 5.300000 1.000000
v 6.000000 5.300000 1.000000
v 6.000000 4.100000 1.000000
v 5.000000 5.300000 1.000000
v 5.000000 4.100000 1.000000
v 6.000000 1.900000 1.000000
v 6.000000 0.700000 1.000000
v 5.000000 1.900000 1.000000
v 5.000000 0.700000 1.000000
v -5.000000 0.700000 1.000000
v -5.000000 1.900000 1.000000
v -6.000000 0.700000 1.000000
v -6.000000 1.900000 1.000000
v -5.100000 4.200000 1.140486
v -5.100000 5.200000 1.140486
v -5.900000 4.200000 1.140486
v -5.900000 5.200000 1.140486
v 5.900000 5.200000 1.140486
v 5.900000 4.200000 1.140486
v 5.100000 5.200000 1.140486
v 5.100000 4.200000 1.140486
v 5.900000 1.800000 1.140486
v 5.900000 0.800000 1.140486
v 5.100000 1.800000 1.140486
v 5.100000 0.800000 1.140486
v -5.100000 0.800000 1.140486
v -5.100000 1.800000 1.140486
v -5.900000 0.800000 1.140486
v -5.900000 1.800000 1.140486
v -5.297952 4.200000 1.607292
v -5.702048 4.200000 1.607292
v -5.426045 4.200000 1.717030
v -5.573955 4.200000 1.717030
v -5.702048 5.200000 1.607292
v -5.297952 5.200000 1.607292
v -5.573955 5.200000 1.717030
v -5.426045 5.200000 1.717030
v 5.297952 5.200000 1.607292
v 5.702048 5.200000 1.607292
v 5.426045 5.200000 1.717030
v 5.573955 5.200000 1.717030
v 5.702048 4.200000 1.607292
v 5.297952 4.200000 1.607292
v 5.573955 4.200000 1.717030
v 5.426045 4.200000 1.717030
v 5.297952 1.800000 1.607292
v 5.702048 1.800000 1.607292
v 5.426045 1.800000 1.717030
v 5.573955 1.800000 1.717030
v 5.702048 0.800000 1.607292
v 5.297952 0.800000 1.607292
v 5.573955 0.800000 1.717030
v 5.426045 0.800000 1.717030
v -5.297952 0.800000 1.607292
v -5.702048 0.800000 1.607292
v -5.426045 0.800000 1.717030
v -5.573955 0.800000 1.717030
v -5.702048 1.800000 1.607292
v -5.297952 1.800000 1.607292
v -5.573955 1.800000 1.717030
v -5.426045 1.800000 1.717030
v -5.000000 4.350000 1.000000
v -5.000000 5.050000 1.000000
v -6.000000 4.350000 1.000000
v -6.000000 5.050000 1.000000
v -5.100000 4.408334 1.000000
v -5.100000 4.991666 1.000000
v -5.900000 4.408334 1.000000
v -5.900000 4.991666 1.000000
v -5.100000 4.408334 1.140486
v -5.100000 4.991666 1.140486
v -5.900000 4.408334 1.140486
v -5.900000 4.991666 1.140486
v -5.297952 4.408334 1.607292
v -5.297952 4.991666 1.607292
v -5.426045 4.991666 1.717030
v -5.426045 4.408334 1.717030
v -5.573955 4.991666 1.717030
v -5.573955 4.408334 1.717030
v -5.702048 4.991666 1.607292
v -5.702048 4.408334 1.607292
v -5.000000 0.950000 1.000000
v -5.000000 1.650000 1.000000
v -6.000000 0.950000 1.000000
v -6.000000 1.650000 1.000000
v -5.100000 1.008333 1.000000
v -5.100000 1.591667 1.000000
v -5.900000 1.008333 1.000000
v -5.900000 1.591667 1.000000
v -5.100000 1.008333 1.140486
v -5.100000 1.591667 1.140486
v -5.900000 1.008333 1.140486
v -5.900000 1.591667 1.140486
v -5.297952 1.008333 1.607292
v -5.297952 1.591667 1.607292
v -5.426045 1.591667 1.717030
v -5.426045 1.008333 1.717030
v -5.573955 1.591667 1.717030
v -5.573955 1.008333 1.717030
v -5.702048 1.591667 1.607292
v -5.702048 1.008333 1.607292
v 6.000000 5.050000 1.000000
v 6.000000 4.350000 1.000000
v 5.000000 5.050000 1.000000
v 5.000000 4.350000 1.000000
v 5.900000 4.991667 1.000000
v 5.900000 4.408334 1.000000
v 5.100000 4.991667 1.000000
v 5.100000 4.408334 1.000000
v 5.900000 4.991667 1.140486
v 5.900000 4.408334 1.140486
v 5.100000 4.991667 1.140486
v 5.100000 4.408334 1.140486
v 5.297952 4.991667 1.607292
v 5.297952 4.408334 1.607292
v 5.426045 4.408334 1.717030
v 5.426045 4.991667 1.717030
v 5.573955 4.408334 1.717030
v 5.573955 4.991667 1.717030
v 5.702048 4.408334 1.607292
v 5.702048 4.991667 1.607292
v 6.000000 1.650000 1.000000
v 6.000000 0.950000 1.000000
v 5.000000 1.650000 1.000000
v 5.000000 0.950000 1.000000
v 5.900000 1.591667 1.000000
v 5.900000 1.008333 1.000000
v 5.100000 1.591667 1.000000
v 5.100000 1.008333 1.000000
v 5.900000 1.591667 1.140486
v 5.900000 1.008333 1.140486
v 5.100000 1.591667 1.140486
v 5.100000 1.008333 1.140486
v 5.297952 1.591667 1.607292
v 5.297952 1.008333 1.607292
v 5.426045 1.008333 1.717030
v 5.426045 1.591667 1.717030
v 5.573955 1.008333 1.717030
v 5.573955 1.591667 1.717030
v 5.702048 1.008333 1.607292
v 5.702048 1.591667 1.607292
v 5.000000 6.000000 -0.350224
v -5.000000 6.000000 -0.350224
v -4.716702 5.704922 -1.000000
v -5.000000 0.000000 -0.350224
v 5.000000 0.000000 -0.350224
v -4.716702 0.000000 -1.000000
v -4.716702 5.704922 -0.350224
v -4.716702 0.000000 -0.350224
v 4.716702 5.704922 -1.000000
v 4.716702 0.000000 -1.000000
v 4.716702 0.000000 -0.350224
v 4.716702 5.704922 -0.350224
vt 0.375000 0.250000
vt 0.625000 0.250000
vt 0.625000 0.250000
vt 0.000000 0.000000
vt 0.589286 0.625000
vt 0.589286 0.625000
vt 0.875000 0.750000
vt 0.875000 0.750000
vt 0.875000 0.750000
vt 0.589286 0.979167
vt 0.500000 1.000000
vt 0.553571 0.979167
vt 0.875000 0.500000
vt 0.625000 0.750000
vt 0.625000 0.500000
vt 0.625000 0.000000
vt 0.375000 0.250000
vt 0.375000 0.000000
vt 0.625000 0.750000
vt 0.458333 0.750000
vt 0.450000 0.750000
vt 0.625000 0.500000
vt 0.375000 0.750000
vt 0.375000 0.500000
vt 0.375000 0.500000
vt 0.375000 0.750000
vt 0.625000 0.750000
vt 0.625000 1.000000
vt 0.375000 1.000000
vt 0.375000 1.000000
vt 0.625000 0.750000
vt 0.375000 0.750000
vt 0.450000 1.000000
vt 0.425000 1.000000
vt 0.625000 0.000000
vt 0.625000 1.000000
vt 0.589286 0.270833
vt 0.589286 0.479167
vt 0.410714 0.479167
vt 0.589286 0.770833
vt 0.500000 0.750000
vt 0.589286 0.625000
vt 0.589286 0.625000
vt 0.400000 0.750000
vt 0.410714 0.770833
vt 0.375000 0.750000
vt 0.444561 0.768750
vt 0.454258 0.768750
vt 0.454258 0.768750
vt 0.482143 0.770833
vt 0.425000 0.750000
vt 0.480573 0.997917
vt 0.542939 0.981250
vt 0.542939 0.981250
vt 0.553571 0.770833
vt 0.475000 0.750000
vt 0.400000 1.000000
vt 0.410714 0.979167
vt 0.446429 0.979167
vt 0.473654 0.981250
vt 0.463956 0.981250
vt 0.463956 0.981250
vt 0.482143 0.979167
vt 0.517857 0.979167
vt 0.513846 0.768750
vt 0.523544 0.768750
vt 0.523544 0.768750
vt 0.513846 0.981250
vt 0.529762 0.979167
vt 0.523544 0.981250
vt 0.466667 1.000000
vt 0.473405 0.997917
vt 0.475000 1.000000
vt 0.459070 0.752083
vt 0.466238 0.752083
vt 0.542939 0.768750
vt 0.541667 0.770833
vt 0.533242 0.768750
vt 0.517857 0.770833
vt 0.406927 0.752083
vt 0.408333 0.750000
vt 0.414095 0.752083
vt 0.473654 0.768750
vt 0.470238 0.770833
vt 0.463956 0.768750
vt 0.428430 0.752083
vt 0.444561 0.981250
vt 0.458333 0.979167
vt 0.454258 0.981250
vt 0.428430 0.997917
vt 0.416667 1.000000
vt 0.421262 0.997917
vt 0.406927 0.997917
vt 0.473654 0.981250
vt 0.463956 0.981250
vt 0.472904 0.993707
vt 0.462777 0.996789
vt 0.459070 0.997917
vt 0.500012 0.764541
vt 0.510140 0.767622
vt 0.513846 0.768750
vt 0.513846 0.768750
vt 0.414095 0.997917
vt 0.414095 0.997917
vt 0.459070 0.997917
vt 0.459070 0.997917
vt 0.444561 0.768750
vt 0.480573 0.752083
vt 0.480573 0.752083
vt 0.428430 0.752083
vt 0.406927 0.997917
vt 0.533242 0.981250
vt 0.533242 0.981250
vt 0.473405 0.752083
vt 0.473405 0.752083
vt 0.466238 0.997917
vt 0.466238 0.997917
vt 0.421262 0.752083
vt 0.421262 0.752083
vt 0.439851 0.756293
vt 0.431490 0.753211
vt 0.428430 0.752083
vt 0.533242 0.981250
vt 0.421262 0.752083
vt 0.523544 0.768750
vt 0.414095 0.997917
vt 0.527188 0.985459
vt 0.538719 0.982378
vt 0.542939 0.981250
vt 0.435056 0.764541
vt 0.442014 0.767622
vt 0.444561 0.768750
vt 0.496324 0.756293
vt 0.484793 0.753211
vt 0.480573 0.752083
vt 0.462232 0.985459
vt 0.470593 0.982378
vt 0.473654 0.981250
vt 0.473405 0.752083
vt 0.416432 0.993707
vt 0.409474 0.996789
vt 0.406927 0.997917
vt 0.454258 0.768750
vt 0.533242 0.981250
vt 0.542939 0.981250
vt 0.533242 0.981250
vt 0.480573 0.997917
vt 0.473405 0.997917
vt 0.473405 0.997917
vt 0.523544 0.768750
vt 0.513846 0.768750
vt 0.523544 0.768750
vt 0.459070 0.752083
vt 0.466238 0.752083
vt 0.466238 0.752083
vt 0.454258 0.768750
vt 0.444561 0.768750
vt 0.454258 0.768750
vt 0.406927 0.752083
vt 0.414095 0.752083
vt 0.414095 0.752083
vt 0.463956 0.981250
vt 0.473654 0.981250
vt 0.463956 0.981250
vt 0.428430 0.997917
vt 0.421262 0.997917
vt 0.421262 0.997917
vt 0.466238 0.997917
vt 0.473405 0.997917
vt 0.480573 0.997917
vt 0.480573 0.997917
vt 0.466238 0.997917
vt 0.459070 0.997917
vt 0.523544 0.981250
vt 0.513846 0.981250
vt 0.513846 0.981250
vt 0.523544 0.981250
vt 0.513846 0.981250
vt 0.523544 0.981250
vt 0.513846 0.981250
vt 0.458333 1.000000
vt 0.541667 0.979167
vt 0.414095 0.997917
vt 0.406927 0.997917
vt 0.454258 0.981250
vt 0.444561 0.981250
vt 0.444561 0.981250
vt 0.454258 0.981250
vt 0.444561 0.981250
vt 0.421262 0.997917
vt 0.428430 0.997917
vt 0.428430 0.997917
vt 0.466238 0.752083
vt 0.454258 0.981250
vt 0.444561 0.981250
vt 0.408333 1.000000
vt 0.470238 0.979167
vt 0.473405 0.752083
vt 0.480573 0.752083
vt 0.533242 0.768750
vt 0.533242 0.768750
vt 0.533242 0.768750
vt 0.542939 0.768750
vt 0.542939 0.768750
vt 0.414095 0.752083
vt 0.542939 0.768750
vt 0.459070 0.752083
vt 0.459070 0.752083
vt 0.463956 0.768750
vt 0.463956 0.768750
vt 0.542939 0.768750
vt 0.529762 0.770833
vt 0.466667 0.750000
vt 0.421262 0.752083
vt 0.428430 0.752083
vt 0.463956 0.768750
vt 0.473654 0.768750
vt 0.473654 0.768750
vt 0.473654 0.768750
vt 0.473654 0.768750
vt 0.406927 0.752083
vt 0.406927 0.752083
vt 0.458333 0.770833
vt 0.446429 0.770833
vt 0.416667 0.750000
vt 0.410714 0.479167
vt 0.589286 0.479167
vt 0.000000 0.000000
vt 0.000000 0.000000
vt 0.589286 0.270833
vt 0.000000 0.000000
vt 0.410714 0.270833
vt 0.410714 0.270833
vt 0.000000 0.000000
vt 0.000000 0.000000
vt 0.000000 0.000000
vt 0.000000 0.000000
vt 0.875000 0.750000
vt 0.000000 0.000000
vt 0.875000 0.500000
vt 0.625000 1.000000
vt 0.375000 1.000000
vt 0.375000 0.000000
vt 0.486739 0.989498
vt 0.486178 0.760331
vt 0.451273 0.760502
vt 0.511437 0.989669
vt 0.425551 0.760331
vt 0.512075 0.760502
vt 0.450810 0.989669
vt 0.425937 0.989498
vt 0.542939 0.981250
vt 0.513846 0.768750
vt 0.444561 0.768750
vt 0.473654 0.981250
vt 0.523544 0.981250
vt 0.454258 0.981250
vt 0.533242 0.768750
vt 0.463956 0.768750
vt 0.000000 0.000000
vn 0.0000 0.0000 -1.0000
vn 0.0000 0.0000 1.0000
vn 0.0000 0.9882 0.1535
vn 0.0000 0.9578 0.2873
vn 0.0000 0.9961 0.0886
vn 1.0000 0.0000 0.0000
vn 0.0000 1.0000 0.0000
vn -0.9961 0.0000 -0.0887
vn -1.0000 0.0000 0.0000
vn -0.9951 0.0000 -0.0985
vn -0.9806 0.0000 0.1961
vn 0.9951 0.0000 -0.0985
vn 0.9806 0.0000 -0.1961
vn 0.9806 0.0000 0.1961
vn -0.9806 0.0000 -0.1961
vn -0.9912 0.0000 0.1325
vn 0.9912 0.0000 0.1325
vn 0.9800 0.0000 0.1992
vn 0.8070 0.0000 0.5906
vn 0.0000 -1.0000 0.0000
vn -0.9800 0.0000 0.1992
vn -0.8070 0.0000 0.5906
vn 0.3468 0.0000 0.9379
vn -0.3468 0.0000 0.9379
vn 0.9961 0.0000 -0.0887
s 1
f 28/1/1 12/2/1 27/3/1
f 198/4/2 201/5/2 196/6/2
f 11/7/3 18/8/4 26/9/5
f 2/10/6 198/4/6 196/6/6
f 33/11/2 52/12/2 2/10/2
f 27/13/7 31/14/5 30/15/7
f 11/16/8 9/17/9 10/18/10
f 19/19/11 156/20/11 56/21/11
f 27/13/7 11/7/3 26/9/5
f 13/22/6 15/23/12 14/24/6
f 31/14/5 13/22/7 30/15/7
f 30/15/1 14/24/1 29/25/1
f 20/26/2 23/27/2 19/19/2
f 18/28/2 21/29/2 17/30/2
f 16/31/3 19/19/4 23/27/4
f 15/23/12 23/27/13 24/32/13
f 53/33/14 18/28/14 66/34/14
f 10/18/10 22/35/15 11/16/8
f 26/36/2 33/11/2 2/10/2
f 4/37/1 28/1/1 27/3/1
f 4/37/1 30/15/1 8/38/1
f 8/38/1 29/25/1 7/39/1
f 6/40/2 34/41/2 31/14/2
f 196/6/2 206/42/2 195/43/2
f 6/40/2 26/36/2 2/10/2
f 60/44/2 5/45/2 32/46/2
f 46/47/9 186/48/16 182/49/9
f 56/21/2 61/50/2 59/51/2
f 50/52/7 68/53/7 42/54/7
f 34/41/2 57/55/2 55/56/2
f 65/57/2 1/58/2 63/59/2
f 40/60/6 144/61/17 140/62/6
f 53/33/2 64/63/2 51/64/2
f 44/65/9 166/66/16 162/67/9
f 41/68/2 115/69/2 119/70/2
f 50/52/2 118/71/2 122/72/2
f 50/52/2 52/12/2 54/73/2
f 41/68/2 53/33/2 51/64/2
f 36/74/2 156/20/2 160/75/2
f 43/76/2 157/77/2 161/78/2
f 36/74/2 58/79/2 56/21/2
f 43/76/2 55/56/2 57/55/2
f 38/80/2 176/81/2 180/82/2
f 45/83/2 177/84/2 181/85/2
f 46/47/2 60/44/2 38/80/2
f 37/86/2 61/50/2 45/83/2
f 39/87/2 135/88/2 139/89/2
f 48/90/2 138/91/2 142/92/2
f 40/60/2 66/34/2 48/90/2
f 47/93/2 63/59/2 39/87/2
f 80/94/18 148/95/19 144/61/17
f 85/96/20 86/97/20 84/98/20
f 97/99/20 98/100/20 96/101/20
f 36/74/20 74/102/20 44/65/20
f 47/93/9 145/103/16 141/104/9
f 41/68/20 69/105/20 49/106/20
f 38/80/20 78/107/20 46/47/20
f 43/76/7 71/108/7 35/109/7
f 48/90/7 80/94/7 40/60/7
f 45/83/7 75/110/7 37/86/7
f 39/87/20 81/111/20 47/93/20
f 42/54/6 124/112/17 120/113/6
f 35/109/6 163/114/17 159/115/6
f 49/106/9 125/116/16 121/117/9
f 37/86/6 183/118/17 179/119/6
f 101/120/7 102/121/7 100/122/7
f 68/53/18 128/123/19 124/112/17
f 75/110/18 194/124/19 183/118/17
f 74/102/21 168/125/22 166/66/16
f 81/111/21 154/126/22 145/103/16
f 89/127/7 90/128/7 88/129/7
f 105/130/20 106/131/20 104/132/20
f 93/133/7 94/134/7 92/135/7
f 113/136/7 114/137/7 112/138/7
f 71/108/18 174/139/19 163/114/17
f 109/140/20 110/141/20 108/142/20
f 78/107/21 188/143/22 186/48/16
f 88/129/19 129/144/23 128/123/19
f 90/145/23 131/146/24 129/144/23
f 89/147/24 133/148/22 131/149/24
f 96/101/22 169/150/24 168/125/22
f 98/151/24 171/152/23 169/150/24
f 97/153/23 173/154/19 171/155/23
f 104/132/22 189/156/24 188/143/22
f 106/157/24 191/158/23 189/156/24
f 105/159/23 193/160/19 191/161/23
f 112/138/19 149/162/23 148/95/19
f 114/163/23 151/164/24 149/162/23
f 113/165/24 153/166/22 151/167/24
f 69/105/21 134/168/22 125/116/16
f 126/169/16 87/170/22 70/171/21
f 132/172/24 84/98/22 86/173/24
f 130/174/23 86/175/24 85/176/23
f 127/177/19 85/176/23 83/178/19
f 123/179/17 83/178/19 67/180/18
f 122/72/9 70/171/21 50/52/9
f 121/117/9 126/169/16 122/72/9
f 119/70/6 67/180/18 41/68/6
f 120/113/6 123/179/17 119/70/6
f 49/106/2 117/181/2 53/33/2
f 122/72/2 117/181/2 121/117/2
f 42/54/2 116/182/2 52/12/2
f 120/113/2 115/69/2 116/182/2
f 152/183/24 108/142/22 110/184/24
f 150/185/23 110/186/24 109/187/23
f 147/188/19 109/187/23 107/189/19
f 146/190/16 111/191/22 82/192/21
f 163/114/2 166/66/2 164/193/2
f 142/92/9 82/192/21 48/90/9
f 141/104/9 146/190/16 142/92/9
f 143/194/17 107/189/19 79/195/18
f 169/150/7 171/155/7 173/154/7
f 47/93/2 137/196/2 65/57/2
f 142/92/2 137/196/2 141/104/2
f 40/60/2 136/197/2 64/63/2
f 140/62/2 135/88/2 136/197/2
f 139/89/6 79/195/18 39/87/6
f 140/62/6 143/194/17 139/89/6
f 172/198/23 92/135/19 94/199/23
f 167/200/20 165/201/20 174/139/20
f 170/202/24 94/203/23 93/204/24
f 183/118/2 186/48/2 184/205/2
f 167/200/22 93/204/24 91/206/22
f 189/156/7 191/161/7 193/160/7
f 164/193/17 95/207/19 72/208/18
f 187/209/20 185/210/20 194/124/20
f 165/201/16 91/206/22 73/211/21
f 146/190/2 143/194/2 144/61/2
f 160/75/6 72/208/18 36/74/6
f 159/115/6 164/193/17 160/75/6
f 44/65/2 158/212/2 58/79/2
f 162/67/2 157/77/2 158/212/2
f 35/109/2 155/213/2 55/56/2
f 160/75/2 155/213/2 159/115/2
f 161/78/9 73/211/21 43/76/9
f 162/67/9 165/201/16 161/78/9
f 192/214/23 100/122/19 102/215/23
f 143/194/7 145/103/7 154/126/7
f 190/216/24 102/217/23 101/218/24
f 148/95/20 149/162/20 153/166/20
f 187/209/22 101/218/24 99/219/22
f 126/169/2 123/179/2 124/112/2
f 185/210/16 99/219/22 77/220/21
f 128/123/20 129/144/20 131/149/20
f 184/205/17 103/221/19 76/222/18
f 127/177/7 123/179/7 125/116/7
f 180/82/6 76/222/18 38/80/6
f 179/119/6 184/205/17 180/82/6
f 46/47/2 178/223/2 62/224/2
f 182/49/2 177/84/2 178/223/2
f 37/86/2 175/225/2 59/51/2
f 180/82/2 175/225/2 179/119/2
f 181/85/9 77/220/21 45/83/9
f 182/49/9 185/210/16 181/85/9
f 6/40/20 196/6/20 195/43/20
f 204/226/9 206/42/9 203/227/9
f 6/40/9 199/228/9 5/229/9
f 8/38/1 197/230/1 4/37/1
f 197/230/6 202/231/6 200/232/6
f 206/42/20 197/230/20 203/227/20
f 3/233/1 197/230/1 200/232/1
f 199/228/2 206/42/2 205/234/2
f 199/228/20 204/235/20 7/236/20
f 3/237/20 202/231/20 198/4/20
f 7/39/1 203/227/1 8/38/1
f 28/1/1 9/17/1 12/2/1
f 198/4/2 202/231/2 201/5/2
f 11/7/3 22/238/4 18/8/4
f 2/10/6 1/239/6 198/4/6
f 33/11/2 54/73/2 52/12/2
f 27/13/7 26/9/5 31/14/5
f 11/16/8 12/2/9 9/17/9
f 19/19/11 31/14/11 34/41/11
f 55/56/11 155/213/11 19/19/11
f 155/213/11 156/20/11 19/19/11
f 19/19/11 34/41/11 55/56/11
f 32/46/11 20/26/11 60/44/11
f 20/26/11 19/19/11 59/51/11
f 60/44/11 20/26/11 176/81/11
f 175/225/11 176/81/11 20/26/11
f 175/225/11 20/26/11 59/51/11
f 56/21/11 59/51/11 19/19/11
f 27/13/7 12/240/7 11/7/3
f 13/22/6 16/31/25 15/23/12
f 31/14/5 16/31/3 13/22/7
f 30/15/1 13/22/1 14/24/1
f 20/26/2 24/32/2 23/27/2
f 18/28/2 22/241/2 21/29/2
f 16/31/3 31/14/5 19/19/4
f 15/23/12 16/31/25 23/27/13
f 17/30/14 25/242/14 65/57/14
f 137/196/14 138/91/14 17/30/14
f 138/91/14 66/34/14 17/30/14
f 17/30/14 65/57/14 137/196/14
f 26/36/14 18/28/14 33/11/14
f 18/28/14 17/30/14 66/34/14
f 33/11/14 18/28/14 54/73/14
f 118/71/14 54/73/14 18/28/14
f 118/71/14 18/28/14 117/181/14
f 53/33/14 117/181/14 18/28/14
f 10/18/10 21/243/15 22/35/15
f 4/37/1 3/233/1 28/1/1
f 4/37/1 27/3/1 30/15/1
f 8/38/1 30/15/1 29/25/1
f 196/6/2 201/5/2 206/42/2
f 6/40/2 31/14/2 26/36/2
f 60/44/2 62/224/2 5/45/2
f 46/47/9 78/107/21 186/48/16
f 56/21/2 58/79/2 61/50/2
f 50/52/7 70/171/7 68/53/7
f 34/41/2 6/40/2 57/55/2
f 65/57/2 25/242/2 1/58/2
f 40/60/6 80/94/18 144/61/17
f 53/33/2 66/34/2 64/63/2
f 44/65/9 74/102/21 166/66/16
f 41/68/2 51/64/2 115/69/2
f 50/52/2 54/73/2 118/71/2
f 50/52/2 42/54/2 52/12/2
f 41/68/2 49/106/2 53/33/2
f 36/74/2 56/21/2 156/20/2
f 43/76/2 57/55/2 157/77/2
f 36/74/2 44/65/2 58/79/2
f 43/76/2 35/109/2 55/56/2
f 38/80/2 60/44/2 176/81/2
f 45/83/2 61/50/2 177/84/2
f 46/47/2 62/224/2 60/44/2
f 37/86/2 59/51/2 61/50/2
f 39/87/2 63/59/2 135/88/2
f 48/90/2 66/34/2 138/91/2
f 40/60/2 64/63/2 66/34/2
f 47/93/2 65/57/2 63/59/2
f 80/94/18 112/138/19 148/95/19
f 84/98/20 69/105/20 67/180/20
f 67/180/20 83/244/20 84/98/20
f 83/244/20 85/96/20 84/98/20
f 96/101/20 74/102/20 72/208/20
f 72/208/20 95/245/20 96/101/20
f 95/245/20 97/99/20 96/101/20
f 36/74/20 72/208/20 74/102/20
f 47/93/9 81/111/21 145/103/16
f 41/68/20 67/180/20 69/105/20
f 38/80/20 76/222/20 78/107/20
f 43/76/7 73/211/7 71/108/7
f 48/90/7 82/192/7 80/94/7
f 45/83/7 77/220/7 75/110/7
f 39/87/20 79/195/20 81/111/20
f 42/54/6 68/53/18 124/112/17
f 35/109/6 71/108/18 163/114/17
f 49/106/9 69/105/21 125/116/16
f 37/86/6 75/110/18 183/118/17
f 100/122/7 75/110/7 77/220/7
f 77/220/7 99/246/7 100/122/7
f 99/246/7 101/120/7 100/122/7
f 68/53/18 88/129/19 128/123/19
f 75/110/18 100/122/19 194/124/19
f 74/102/21 96/101/22 168/125/22
f 81/111/21 108/142/22 154/126/22
f 88/129/7 68/53/7 70/171/7
f 70/171/7 87/247/7 88/129/7
f 87/247/7 89/127/7 88/129/7
f 104/132/20 78/107/20 76/222/20
f 76/222/20 103/248/20 104/132/20
f 103/248/20 105/130/20 104/132/20
f 92/135/7 71/108/7 73/211/7
f 73/211/7 91/249/7 92/135/7
f 91/249/7 93/133/7 92/135/7
f 112/138/7 80/94/7 82/192/7
f 82/192/7 111/250/7 112/138/7
f 111/250/7 113/136/7 112/138/7
f 71/108/18 92/135/19 174/139/19
f 108/142/20 81/111/20 79/195/20
f 79/195/20 107/251/20 108/142/20
f 107/251/20 109/140/20 108/142/20
f 78/107/21 104/132/22 188/143/22
f 88/129/19 90/145/23 129/144/23
f 90/145/23 89/252/24 131/146/24
f 89/147/24 87/170/22 133/148/22
f 96/101/22 98/151/24 169/150/24
f 98/151/24 97/253/23 171/152/23
f 97/153/23 95/207/19 173/154/19
f 104/132/22 106/157/24 189/156/24
f 106/157/24 105/254/23 191/158/23
f 105/159/23 103/221/19 193/160/19
f 112/138/19 114/163/23 149/162/23
f 114/163/23 113/255/24 151/164/24
f 113/165/24 111/191/22 153/166/22
f 69/105/21 84/98/22 134/168/22
f 126/169/16 133/148/22 87/170/22
f 132/172/24 134/168/22 84/98/22
f 130/174/23 132/256/24 86/175/24
f 127/177/19 130/174/23 85/176/23
f 123/179/17 127/177/19 83/178/19
f 122/72/9 126/169/16 70/171/21
f 121/117/9 125/116/16 126/169/16
f 119/70/6 123/179/17 67/180/18
f 120/113/6 124/112/17 123/179/17
f 49/106/2 121/117/2 117/181/2
f 122/72/2 118/71/2 117/181/2
f 42/54/2 120/113/2 116/182/2
f 120/113/2 119/70/2 115/69/2
f 152/183/24 154/126/22 108/142/22
f 150/185/23 152/257/24 110/186/24
f 147/188/19 150/185/23 109/187/23
f 146/190/16 153/166/22 111/191/22
f 163/114/2 165/201/2 166/66/2
f 142/92/9 146/190/16 82/192/21
f 141/104/9 145/103/16 146/190/16
f 143/194/17 147/188/19 107/189/19
f 173/154/7 164/193/7 166/66/7
f 166/66/7 168/125/7 173/154/7
f 168/125/7 169/150/7 173/154/7
f 47/93/2 141/104/2 137/196/2
f 142/92/2 138/91/2 137/196/2
f 40/60/2 140/62/2 136/197/2
f 140/62/2 139/89/2 135/88/2
f 139/89/6 143/194/17 79/195/18
f 140/62/6 144/61/17 143/194/17
f 172/198/23 174/139/19 92/135/19
f 165/201/20 163/114/20 174/139/20
f 174/139/20 172/198/20 170/202/20
f 170/202/20 167/200/20 174/139/20
f 170/202/24 172/258/23 94/203/23
f 183/118/2 185/210/2 186/48/2
f 167/200/22 170/202/24 93/204/24
f 193/160/7 184/205/7 186/48/7
f 186/48/7 188/143/7 193/160/7
f 188/143/7 189/156/7 193/160/7
f 164/193/17 173/154/19 95/207/19
f 185/210/20 183/118/20 194/124/20
f 194/124/20 192/214/20 190/216/20
f 190/216/20 187/209/20 194/124/20
f 165/201/16 167/200/22 91/206/22
f 146/190/2 145/103/2 143/194/2
f 160/75/6 164/193/17 72/208/18
f 159/115/6 163/114/17 164/193/17
f 44/65/2 162/67/2 158/212/2
f 162/67/2 161/78/2 157/77/2
f 35/109/2 159/115/2 155/213/2
f 160/75/2 156/20/2 155/213/2
f 161/78/9 165/201/16 73/211/21
f 162/67/9 166/66/16 165/201/16
f 192/214/23 194/124/19 100/122/19
f 154/126/7 152/257/7 150/185/7
f 150/185/7 147/188/7 154/126/7
f 147/188/7 143/194/7 154/126/7
f 190/216/24 192/259/23 102/217/23
f 149/162/20 151/164/20 153/166/20
f 153/166/20 146/190/20 144/61/20
f 144/61/20 148/95/20 153/166/20
f 187/209/22 190/216/24 101/218/24
f 126/169/2 125/116/2 123/179/2
f 185/210/16 187/209/22 99/219/22
f 131/149/20 133/148/20 128/123/20
f 133/148/20 126/169/20 128/123/20
f 126/169/20 124/112/20 128/123/20
f 184/205/17 193/160/19 103/221/19
f 125/116/7 134/168/7 127/177/7
f 134/168/7 132/172/7 127/177/7
f 132/172/7 130/174/7 127/177/7
f 180/82/6 184/205/17 76/222/18
f 179/119/6 183/118/17 184/205/17
f 46/47/2 182/49/2 178/223/2
f 182/49/2 181/85/2 177/84/2
f 37/86/2 179/119/2 175/225/2
f 180/82/2 176/81/2 175/225/2
f 181/85/9 185/210/16 77/220/21
f 182/49/9 186/48/16 185/210/16
f 6/40/20 2/10/20 196/6/20
f 204/226/9 205/234/9 206/42/9
f 6/40/9 195/43/9 199/228/9
f 8/38/1 203/227/1 197/230/1
f 197/230/6 201/5/6 202/231/6
f 206/42/20 201/5/20 197/230/20
f 3/233/1 4/37/1 197/230/1
f 199/228/2 195/43/2 206/42/2
f 199/228/20 205/234/20 204/235/20
f 3/237/20 200/260/20 202/231/20
f 7/39/1 204/226/1 203/227/1
