# Blender v2.83.1 OBJ File: 'Masterfile.blend'
# www.blender.org
o Roof_Corner_Inner_Flat_Cube.014
v 0.000000 5.000000 0.000000
v 0.000000 5.500000 2.000000
v 0.000000 5.500000 1.250000
v 0.000000 5.000000 0.750000
v 0.000000 5.000000 0.000000
v 2.000000 5.500000 0.000000
v 0.750000 5.000000 0.000000
v 1.250000 5.500000 0.000000
v 0.750000 5.000000 0.750000
v 0.750000 5.500000 2.000000
v 0.750000 5.500000 1.250000
v 2.000000 5.500000 0.750000
v 1.250000 5.500000 0.750000
v 2.000000 5.500000 2.000000
vt 0.625000 0.083333
vt 0.375000 0.000000
vt 0.000000 0.000000
vt 0.625000 0.166667
vt 0.625000 0.250000
vt 0.625000 0.250000
vt 0.375000 0.250000
vt 0.375000 0.166667
vt 0.375000 0.166667
vt 0.375000 0.083333
vt 0.625000 0.166667
vt 0.375000 0.250000
vt 0.000000 0.000000
vt 0.625000 0.000000
vn 0.0000 -1.0000 0.0000
vn 0.7071 -0.7071 0.0000
vn 0.0000 -0.7071 0.7071
vn 0.5773 -0.5774 0.5774
vn 0.0000 0.0000 1.0000
s off
f 4/1/1 5/2/1 9/3/1
f 3/4/1 10/5/1 2/6/1
f 6/7/1 13/8/1 8/9/1
f 13/8/2 7/10/2 8/9/2
f 4/1/3 11/11/3 3/4/3
f 13/8/4 11/11/4 9/3/4
f 13/8/1 12/12/1 14/13/1
f 4/1/5 1/14/5 5/2/5
f 5/2/1 7/10/1 9/3/1
f 3/4/1 11/11/1 10/5/1
f 6/7/1 12/12/1 13/8/1
f 13/8/2 9/3/2 7/10/2
f 4/1/3 9/3/3 11/11/3
f 14/13/1 10/5/1 11/11/1
f 11/11/1 13/8/1 14/13/1
