# Blender v2.83.1 OBJ File: 'Masterfile.blend'
# www.blender.org
o Roof_Plain_Cube.012
v 2.000000 5.000000 0.000000
v 2.000000 5.500000 2.000000
v -2.000000 5.000000 0.000000
v -2.000000 5.500000 2.000000
v -2.000000 5.000000 0.750000
v -2.000000 5.500000 1.250000
v 2.000000 5.500000 1.250000
v 2.000000 5.000000 0.750000
vt 0.625000 0.000000
vt 0.375000 0.083333
vt 0.375000 0.000000
vt 0.625000 0.166667
vt 0.375000 0.250000
vt 0.375000 0.166667
vt 0.625000 0.083333
vt 0.625000 0.250000
vn 0.0000 -1.0000 0.0000
vn 0.0000 -0.7071 0.7071
s off
f 1/1/1 5/2/1 3/3/1
f 7/4/1 4/5/1 6/6/1
f 8/7/2 6/6/2 5/2/2
f 1/1/1 8/7/1 5/2/1
f 7/4/1 2/8/1 4/5/1
f 8/7/2 7/4/2 6/6/2
