# Blender v2.83.1 OBJ File: 'Masterfile.blend'
# www.blender.org
o Roof_Corner_Inner_Angled_Cube.015
v 0.000000 5.000000 0.000000
v 0.000000 5.500000 2.000000
v 0.000000 5.500000 1.250000
v 0.000000 5.000000 0.750000
v 0.000000 5.000000 0.000000
v 2.000000 5.500000 0.000000
v 0.750000 5.000000 0.000000
v 1.250000 5.500000 0.000000
v 0.375000 5.500000 1.250000
v 0.750000 5.500000 2.000000
v 0.750000 5.500000 1.250000
v 2.000000 5.500000 0.750000
v 1.250000 5.500000 0.750000
v 2.000000 5.500000 2.000000
v 0.375000 5.000000 0.750000
v 0.750000 5.000000 0.375000
v 1.250000 5.500000 0.375000
vt 0.625000 0.166667
vt 0.312500 0.041667
vt 0.625000 0.166667
vt 0.625000 0.250000
vt 0.375000 0.250000
vt 0.375000 0.166667
vt 0.375000 0.166667
vt 0.625000 0.083333
vt 0.625000 0.166667
vt 0.187500 0.041667
vt 0.375000 0.083333
vt 0.375000 0.166667
vt 0.000000 0.000000
vt 0.375000 0.000000
vt 0.625000 0.250000
vt 0.375000 0.250000
vt 0.625000 0.000000
vn 0.0000 -0.7071 0.7071
vn 0.0000 -1.0000 0.0000
vn 0.7071 -0.7071 0.0000
vn 0.4444 -0.7778 0.4444
vn 0.0000 0.0000 1.0000
s off
f 9/1/1 15/2/1 11/3/1
f 9/1/2 11/3/2 10/4/2
f 12/5/2 13/6/2 17/7/2
f 4/8/1 9/1/1 3/9/1
f 17/7/3 13/6/3 16/10/3
f 17/7/3 7/11/3 8/12/3
f 13/6/2 12/5/2 14/13/2
f 15/2/2 4/8/2 5/14/2
f 11/3/4 16/10/4 13/6/4
f 10/4/2 2/15/2 9/1/2
f 2/15/2 3/9/2 9/1/2
f 17/7/2 8/12/2 6/16/2
f 6/16/2 12/5/2 17/7/2
f 4/8/1 15/2/1 9/1/1
f 17/7/3 16/10/3 7/11/3
f 14/13/2 10/4/2 11/3/2
f 11/3/2 13/6/2 14/13/2
f 4/8/5 1/17/5 5/14/5
f 5/14/2 7/11/2 16/10/2
f 16/10/2 15/2/2 5/14/2
f 11/3/4 15/2/4 16/10/4
