# Blender v2.83.1 OBJ File: 'Masterfile.blend'
# www.blender.org
o Wall_Corner_Inner_Angled_Cube.011
v 0.000000 0.000000 0.000000
v 0.000000 5.000000 0.000000
v 0.500000 0.000000 0.000000
v 0.500000 5.000000 0.000000
v 0.000000 0.000000 0.500000
v 0.000000 5.000000 0.500000
vt 0.000000 0.000000
vt 0.000000 0.000000
vt 0.000000 0.000000
vt 0.000000 0.000000
vt 0.000000 0.000000
vt 0.000000 0.000000
vn 0.7071 0.0000 0.7071
vn 0.0000 1.0000 0.0000
vn 0.0000 -1.0000 0.0000
s off
f 4/1/1 5/2/1 3/3/1
f 2/4/2 6/5/2 4/1/2
f 1/6/3 3/3/3 5/2/3
f 4/1/1 6/5/1 5/2/1
