# Blender v2.83.1 OBJ File: 'Masterfile.blend'
# www.blender.org
o Wall_Single_Recess_Pipes_Cube.007
v -2.000000 0.000000 0.500000
v -2.000000 5.000000 0.500000
v 2.000000 0.000000 0.500000
v 2.000000 5.000000 0.500000
v -2.000000 0.000000 0.000000
v -2.000000 5.000000 0.000000
v 2.000000 0.000000 0.000000
v 2.000000 5.000000 0.000000
v -1.827996 4.291151 0.500000
v -1.827996 2.576461 0.500000
v 1.827996 2.576461 0.500000
v 1.827996 4.291151 0.500000
v -1.827996 2.576461 0.100000
v -1.827996 4.291151 0.100000
v 1.827996 4.291151 0.100000
v 1.827996 2.576461 0.100000
v 1.881467 4.005369 0.143886
v -1.881467 4.005369 0.143886
v 1.881467 3.891066 0.191232
v -1.881467 3.891066 0.191232
v 1.881467 3.843720 0.305536
v -1.881467 3.843720 0.305536
v 1.881467 3.891066 0.419839
v -1.881467 3.891066 0.419839
v 1.881467 4.005369 0.467185
v -1.881467 4.005369 0.467185
v 1.881467 4.119673 0.419839
v -1.881467 4.119673 0.419839
v 1.881467 4.167018 0.305536
v -1.881467 4.167018 0.305536
v 1.881467 4.119673 0.191232
v -1.881467 4.119673 0.191232
v 1.881467 3.433806 0.143886
v -1.881467 3.433806 0.143886
v 1.881467 3.319503 0.191232
v -1.881467 3.319503 0.191232
v 1.881467 3.272157 0.305536
v -1.881467 3.272157 0.305536
v 1.881467 3.319503 0.419839
v -1.881467 3.319503 0.419839
v 1.881467 3.433806 0.467185
v -1.881467 3.433806 0.467185
v 1.881467 3.548110 0.419839
v -1.881467 3.548110 0.419839
v 1.881467 3.595455 0.305536
v -1.881467 3.595455 0.305536
v 1.881467 3.548110 0.191232
v -1.881467 3.548110 0.191232
v 1.881467 2.862243 0.143886
v -1.881467 2.862243 0.143886
v 1.881467 2.747939 0.191232
v -1.881467 2.747939 0.191232
v 1.881467 2.700593 0.305536
v -1.881467 2.700593 0.305536
v 1.881467 2.747939 0.419839
v -1.881467 2.747939 0.419839
v 1.881467 2.862243 0.467185
v -1.881467 2.862243 0.467185
v 1.881467 2.976546 0.419839
v -1.881467 2.976546 0.419839
v 1.881467 3.023892 0.305536
v -1.881467 3.023892 0.305536
v 1.881467 2.976546 0.191232
v -1.881467 2.976546 0.191232
vt 0.610721 0.982151
vt 0.610721 0.767849
vt 0.610721 0.767849
vt 0.375000 0.625000
vt 0.125000 0.750000
vt 0.125000 0.625000
vt 0.875000 0.625000
vt 0.625000 0.750000
vt 0.625000 0.625000
vt 0.389279 0.982151
vt 0.625000 1.000000
vt 0.375000 1.000000
vt 0.389279 0.767849
vt 0.375000 0.750000
vt 0.389279 0.767849
vt 0.610721 0.982151
vt 0.389279 0.982151
vt 1.000000 1.000000
vt 0.875000 0.500000
vt 1.000000 0.500000
vt 0.875000 1.000000
vt 0.750000 0.500000
vt 0.750000 1.000000
vt 0.625000 0.500000
vt 0.625000 1.000000
vt 0.500000 0.500000
vt 0.500000 1.000000
vt 0.375000 0.500000
vt 0.375000 1.000000
vt 0.250000 0.500000
vt 0.250000 1.000000
vt 0.125000 0.500000
vt 0.125000 1.000000
vt 0.000000 0.500000
vt 1.000000 1.000000
vt 0.875000 0.500000
vt 1.000000 0.500000
vt 0.875000 1.000000
vt 0.750000 0.500000
vt 0.750000 1.000000
vt 0.625000 0.500000
vt 0.625000 1.000000
vt 0.500000 0.500000
vt 0.500000 1.000000
vt 0.375000 0.500000
vt 0.375000 1.000000
vt 0.250000 0.500000
vt 0.250000 1.000000
vt 0.125000 0.500000
vt 0.125000 1.000000
vt 0.000000 0.500000
vt 1.000000 1.000000
vt 0.875000 0.500000
vt 1.000000 0.500000
vt 0.875000 1.000000
vt 0.750000 0.500000
vt 0.750000 1.000000
vt 0.625000 0.500000
vt 0.625000 1.000000
vt 0.500000 0.500000
vt 0.500000 1.000000
vt 0.375000 0.500000
vt 0.375000 1.000000
vt 0.250000 0.500000
vt 0.250000 1.000000
vt 0.125000 0.500000
vt 0.125000 1.000000
vt 0.000000 0.500000
vt 0.875000 0.750000
vt 0.000000 1.000000
vt 0.000000 1.000000
vt 0.000000 1.000000
vn 0.0000 -1.0000 0.0000
vn 0.0000 1.0000 0.0000
vn 0.0000 0.0000 1.0000
vn -1.0000 0.0000 0.0000
vn 1.0000 0.0000 0.0000
vn 0.0000 0.7071 0.7071
vn 0.0000 0.7071 -0.7071
vn 0.0000 0.0000 -1.0000
vn 0.0000 -0.7071 -0.7071
vn 0.0000 -0.7071 0.7071
s 1
f 9/1/1 15/2/1 12/3/1
f 7/4/1 1/5/1 5/6/1
f 6/7/2 4/8/2 8/9/2
f 10/10/3 2/11/3 1/12/3
f 11/13/3 4/8/3 12/3/3
f 10/10/3 3/14/3 11/13/3
f 12/3/3 2/11/3 9/1/3
f 12/3/4 16/15/4 11/13/4
f 10/10/5 14/16/5 9/1/5
f 11/13/2 13/17/2 10/10/2
f 18/18/3 19/19/6 17/20/3
f 20/21/6 21/22/2 19/19/6
f 22/23/2 23/24/7 21/22/2
f 24/25/7 25/26/8 23/24/7
f 26/27/8 27/28/9 25/26/8
f 28/29/9 29/30/1 27/28/9
f 30/31/1 31/32/10 29/30/1
f 32/33/10 17/34/3 31/32/10
f 15/2/3 13/17/3 16/15/3
f 34/35/3 35/36/6 33/37/3
f 36/38/6 37/39/2 35/36/6
f 38/40/2 39/41/7 37/39/2
f 40/42/7 41/43/8 39/41/7
f 42/44/8 43/45/9 41/43/8
f 44/46/9 45/47/1 43/45/9
f 46/48/1 47/49/10 45/47/1
f 48/50/10 33/51/3 47/49/10
f 50/52/3 51/53/6 49/54/3
f 52/55/6 53/56/2 51/53/6
f 54/57/2 55/58/7 53/56/2
f 56/59/7 57/60/8 55/58/7
f 58/61/8 59/62/9 57/60/8
f 60/63/9 61/64/1 59/62/9
f 62/65/1 63/66/10 61/64/1
f 64/67/10 49/68/3 63/66/10
f 9/1/1 14/16/1 15/2/1
f 7/4/1 3/14/1 1/5/1
f 6/7/2 2/69/2 4/8/2
f 10/10/3 9/1/3 2/11/3
f 11/13/3 3/14/3 4/8/3
f 10/10/3 1/12/3 3/14/3
f 12/3/3 4/8/3 2/11/3
f 12/3/4 15/2/4 16/15/4
f 10/10/5 13/17/5 14/16/5
f 11/13/2 16/15/2 13/17/2
f 18/18/3 20/21/6 19/19/6
f 20/21/6 22/23/2 21/22/2
f 22/23/2 24/25/7 23/24/7
f 24/25/7 26/27/8 25/26/8
f 26/27/8 28/29/9 27/28/9
f 28/29/9 30/31/1 29/30/1
f 30/31/1 32/33/10 31/32/10
f 32/33/10 18/70/3 17/34/3
f 15/2/3 14/16/3 13/17/3
f 34/35/3 36/38/6 35/36/6
f 36/38/6 38/40/2 37/39/2
f 38/40/2 40/42/7 39/41/7
f 40/42/7 42/44/8 41/43/8
f 42/44/8 44/46/9 43/45/9
f 44/46/9 46/48/1 45/47/1
f 46/48/1 48/50/10 47/49/10
f 48/50/10 34/71/3 33/51/3
f 50/52/3 52/55/6 51/53/6
f 52/55/6 54/57/2 53/56/2
f 54/57/2 56/59/7 55/58/7
f 56/59/7 58/61/8 57/60/8
f 58/61/8 60/63/9 59/62/9
f 60/63/9 62/65/1 61/64/1
f 62/65/1 64/67/10 63/66/10
f 64/67/10 50/72/3 49/68/3
