# Blender v2.83.1 OBJ File: 'Masterfile.blend'
# www.blender.org
o Wall_Single_Recess_Cube.006
v -2.000000 0.000000 0.500000
v -2.000000 5.000000 0.500000
v 2.000000 0.000000 0.500000
v 2.000000 5.000000 0.500000
v -2.000000 0.000000 0.000000
v -2.000000 5.000000 0.000000
v 2.000000 0.000000 0.000000
v 2.000000 5.000000 0.000000
v -1.827996 4.291151 0.500000
v -1.827996 2.576461 0.500000
v 1.827996 2.576461 0.500000
v 1.827996 4.291151 0.500000
v -1.827996 2.576461 0.100000
v -1.827996 4.291151 0.100000
v 1.827996 4.291151 0.100000
v 1.827996 2.576461 0.100000
vt 0.610721 0.982151
vt 0.610721 0.767849
vt 0.610721 0.767849
vt 0.375000 0.625000
vt 0.125000 0.750000
vt 0.125000 0.625000
vt 0.875000 0.625000
vt 0.625000 0.750000
vt 0.625000 0.625000
vt 0.389279 0.982151
vt 0.625000 1.000000
vt 0.375000 1.000000
vt 0.389279 0.767849
vt 0.375000 0.750000
vt 0.389279 0.982151
vt 0.389279 0.767849
vt 0.610721 0.982151
vt 0.875000 0.750000
vn 0.0000 -1.0000 0.0000
vn 0.0000 1.0000 0.0000
vn 0.0000 0.0000 1.0000
vn -1.0000 0.0000 0.0000
vn 1.0000 0.0000 0.0000
s off
f 9/1/1 15/2/1 12/3/1
f 7/4/1 1/5/1 5/6/1
f 6/7/2 4/8/2 8/9/2
f 10/10/3 2/11/3 1/12/3
f 11/13/3 4/8/3 12/3/3
f 10/10/3 3/14/3 11/13/3
f 12/3/3 2/11/3 9/1/3
f 15/2/3 13/15/3 16/16/3
f 12/3/4 16/16/4 11/13/4
f 10/10/5 14/17/5 9/1/5
f 11/13/2 13/15/2 10/10/2
f 9/1/1 14/17/1 15/2/1
f 7/4/1 3/14/1 1/5/1
f 6/7/2 2/18/2 4/8/2
f 10/10/3 9/1/3 2/11/3
f 11/13/3 3/14/3 4/8/3
f 10/10/3 1/12/3 3/14/3
f 12/3/3 4/8/3 2/11/3
f 15/2/3 14/17/3 13/15/3
f 12/3/4 15/2/4 16/16/4
f 10/10/5 13/15/5 14/17/5
f 11/13/2 16/16/2 13/15/2
