# Blender v2.83.1 OBJ File: 'Masterfile.blend'
# www.blender.org
o Wall_Corner_Outer_Flat_Cube.008
v 0.000000 0.000000 1.000000
v 0.000000 5.000000 1.000000
v 0.000000 0.000000 0.000000
v 0.000000 5.000000 0.000000
v 1.000000 0.000000 0.000000
v 1.000000 5.000000 0.000000
v 0.500000 0.000000 0.000000
v 0.500000 5.000000 0.000000
v 0.500000 0.000000 1.000000
v 0.500000 5.000000 1.000000
v 0.000000 0.000000 0.500000
v 0.000000 5.000000 0.500000
v 1.000000 0.000000 0.500000
v 1.000000 5.000000 0.500000
v 0.500000 5.000000 0.500000
v 0.500000 0.000000 0.500000
vt 0.375000 0.625000
vt 0.750000 0.625000
vt 0.250000 0.625000
vt 0.875000 0.625000
vt 0.750000 0.750000
vt 0.125000 0.750000
vt 0.125000 0.625000
vt 0.375000 0.875000
vt 0.625000 0.875000
vt 0.250000 0.500000
vt 0.125000 0.500000
vt 0.750000 0.500000
vt 0.625000 0.625000
vt 0.625000 0.500000
vt 0.875000 0.500000
vt 0.375000 0.500000
vt 0.875000 0.750000
vt 0.250000 0.750000
vn 0.0000 0.0000 1.0000
vn 0.0000 1.0000 0.0000
vn 0.0000 -1.0000 0.0000
vn 1.0000 0.0000 0.0000
s off
f 13/1/1 15/2/1 16/3/1
f 12/4/2 10/5/2 15/2/2
f 16/3/3 1/6/3 11/7/3
f 9/8/4 15/2/4 10/9/4
f 7/10/3 11/7/3 3/11/3
f 8/12/2 14/13/2 6/14/2
f 4/15/2 15/2/2 8/12/2
f 5/16/3 16/3/3 7/10/3
f 13/1/1 14/13/1 15/2/1
f 12/4/2 2/17/2 10/5/2
f 16/3/3 9/18/3 1/6/3
f 9/8/4 16/3/4 15/2/4
f 7/10/3 16/3/3 11/7/3
f 8/12/2 15/2/2 14/13/2
f 4/15/2 12/4/2 15/2/2
f 5/16/3 13/1/3 16/3/3
