# Blender v2.82 (sub 7) OBJ File: 'speedStuff.blend'
# www.blender.org
o Breaker_Housing_Cube.043
v -0.305247 0.160622 -0.098123
v -0.305247 0.481865 -0.334923
v -0.305247 -0.481865 -0.334923
v 0.305247 0.481865 -0.334923
v 0.305247 0.160621 -0.098123
v 0.305247 -0.160622 -0.098123
v -0.240076 0.481865 -0.098123
v -0.240076 0.160622 -0.098123
v 0.305247 -0.481865 -0.334923
v 0.240076 -0.481865 -0.098123
v -0.240076 -0.481865 -0.098123
v 0.240076 0.481865 -0.098123
v -0.240076 -0.160621 -0.098123
v -0.305247 -0.481865 -0.098123
v 0.240076 -0.022963 0.069223
v 0.240076 0.022963 0.069223
v 0.240076 0.062736 0.037425
v 0.305247 -0.481865 -0.098123
v 0.240076 -0.160622 -0.098123
v -0.240076 0.022963 0.069223
v -0.240076 -0.022963 0.069223
v -0.240076 -0.062736 0.037425
v 0.240076 0.160622 -0.098123
v 0.305247 0.481865 -0.098123
v 0.240076 -0.062736 0.037425
v -0.305247 -0.062736 0.037425
v -0.305247 -0.160621 -0.098123
v 0.305247 0.062736 0.037425
v -0.305247 -0.022963 0.069223
v -0.305247 0.022963 0.069223
v -0.305247 0.062736 0.037425
v 0.305247 0.022963 0.069223
v 0.305247 -0.022963 0.069223
v 0.305247 -0.062736 0.037425
v -0.240076 0.062736 0.037425
v 0.054121 0.432580 -0.080849
v -0.054121 0.432580 -0.001546
v -0.054121 0.432580 -0.080849
v 0.054121 0.339802 -0.108523
v -0.054121 0.339802 -0.080849
v -0.054121 0.339802 -0.108523
v -0.054121 0.460198 -0.108523
v 0.054121 0.460198 -0.080849
v 0.054121 0.460198 -0.108523
v 0.054121 0.460198 -0.012565
v 0.054121 0.432580 -0.001546
v -0.054121 0.367420 -0.080849
v 0.054121 0.367420 -0.080849
v 0.054121 0.367420 -0.001546
v -0.054121 0.339802 -0.012565
v 0.054121 0.339802 -0.012565
v 0.054121 0.339802 -0.080849
v -0.054121 0.460198 -0.080849
v -0.054121 0.460198 -0.012565
v -0.054121 0.367420 -0.001546
v 0.054121 -0.367420 -0.080849
v -0.054121 -0.367420 -0.001546
v -0.054121 -0.367420 -0.080849
v 0.054121 -0.460198 -0.108523
v -0.054121 -0.460198 -0.080849
v -0.054121 -0.460198 -0.108523
v -0.054121 -0.339802 -0.108523
v 0.054121 -0.339802 -0.080849
v 0.054121 -0.339802 -0.108523
v 0.054121 -0.339802 -0.012565
v 0.054121 -0.367420 -0.001546
v -0.054121 -0.432580 -0.080849
v 0.054121 -0.432580 -0.080849
v 0.054121 -0.432580 -0.001546
v -0.054121 -0.460198 -0.012565
v 0.054121 -0.460198 -0.012565
v 0.054121 -0.460198 -0.080849
v -0.054121 -0.339802 -0.080849
v -0.054121 -0.339802 -0.012565
v -0.054121 -0.432580 -0.001546
v -0.305247 0.481865 -0.098123
vt 0.520508 0.204102
vt 0.687500 0.000000
vt 0.687500 0.612305
vt 0.972656 0.612305
vt 0.805664 0.408203
vt 0.805664 0.204102
vt 0.018555 0.612305
vt -0.027344 0.408203
vt 0.018555 0.408203
vt -0.027344 0.612305
vt 0.139648 0.653320
vt 0.139648 0.958984
vt 0.306641 1.000000
vt 0.139648 0.958984
vt 0.139648 0.653320
vt 0.018555 0.204102
vt -0.027344 0.000000
vt 0.018555 0.000000
vt 0.306641 0.728516
vt 0.306641 0.699219
vt 0.329102 0.674805
vt 0.403320 0.204102
vt 0.357422 0.000000
vt 0.403320 0.000000
vt 0.357422 0.204102
vt 0.424805 0.728516
vt 0.424805 0.699219
vt 0.447266 0.674805
vt 0.357422 0.408203
vt 0.403320 0.612305
vt 0.403320 0.408203
vt 0.618164 0.843750
vt 0.664062 0.757812
vt 0.664062 0.843750
vt 0.664062 0.843750
vt 0.709961 0.757812
vt 0.709961 0.843750
vt 0.709961 0.843750
vt 0.755859 0.757812
vt 0.755859 0.843750
vt 0.403320 0.320312
vt 0.403320 0.291992
vt 0.425781 0.266602
vt 0.687500 0.320312
vt 0.687500 0.291992
vt 0.709961 0.266602
vt 0.912109 0.688477
vt 0.866211 0.713867
vt 0.866211 0.688477
vt 0.912109 0.713867
vt 0.866211 0.743164
vt 0.912109 0.743164
vt 0.866211 0.768555
vt 0.922852 0.774414
vt 0.876953 0.799805
vt 0.876953 0.774414
vt 0.922852 0.799805
vt 0.876953 0.829102
vt 0.922852 0.829102
vt 0.876953 0.854492
vt 0.820312 0.774414
vt 0.866211 0.774414
vt 0.755859 0.757812
vt 0.811523 0.826172
vt 0.755859 0.826172
vt 0.685547 0.688477
vt 0.705078 0.757812
vt 0.685547 0.757812
vt 0.752930 0.688477
vt 0.772461 0.757812
vt 0.752930 0.757812
vt 0.598633 0.670898
vt 0.549805 0.688477
vt 0.541992 0.670898
vt 0.892578 0.680664
vt 0.938477 0.612305
vt 0.938477 0.680664
vt 0.618164 0.688477
vt 0.598633 0.629883
vt 0.749023 0.670898
vt 0.749023 0.629883
vt 0.768555 0.612305
vt 0.951172 0.688477
vt 0.931641 0.757812
vt 0.931641 0.688477
vt 0.942383 0.774414
vt 0.922852 0.843750
vt 0.922852 0.774414
vt 0.705078 0.688477
vt 0.752930 0.757812
vt 0.772461 0.688477
vt 0.820312 0.757812
vt 0.876953 0.843750
vt 0.820312 0.774414
vt 0.876953 0.774414
vt 0.701172 0.612305
vt 0.749023 0.612305
vt 0.701172 0.688477
vt 0.693359 0.670898
vt 0.549805 0.612305
vt 0.598633 0.612305
vt 0.541992 0.765625
vt 0.598633 0.833984
vt 0.541992 0.833984
vt 0.618164 0.688477
vt 0.637695 0.757812
vt 0.618164 0.757812
vt 0.768555 0.612305
vt 0.788086 0.680664
vt 0.768555 0.680664
vt 0.673828 0.670898
vt 0.625977 0.688477
vt 0.618164 0.670898
vt 0.496094 0.884766
vt 0.541992 0.816406
vt 0.541992 0.884766
vt 0.693359 0.688477
vt 0.673828 0.629883
vt 0.598633 0.748047
vt 0.598633 0.706055
vt 0.618164 0.688477
vt 0.618164 0.765625
vt 0.598633 0.765625
vt 0.931641 0.688477
vt 0.912109 0.757812
vt 0.912109 0.688477
vt 0.637695 0.688477
vt 0.685547 0.757812
vt 0.788086 0.612305
vt 0.835938 0.680664
vt 0.892578 0.680664
vt 0.835938 0.612305
vt 0.892578 0.612305
vt 0.549805 0.688477
vt 0.598633 0.688477
vt 0.549805 0.765625
vt 0.541992 0.748047
vt 0.625977 0.612305
vt 0.673828 0.612305
vt 0.520508 0.612305
vt 0.520508 0.408203
vt 0.520508 0.000000
vt 0.805664 0.000000
vt 0.972656 0.000000
vt 0.805664 0.612305
vt -0.027344 0.612305
vt 0.139648 1.000000
vt -0.027344 1.000000
vt 0.139648 0.612305
vt 0.139648 0.612305
vt 0.306641 0.612305
vt 0.139648 1.000000
vt -0.027344 0.204102
vt 0.424805 0.612305
vt 0.424805 0.816406
vt 0.329102 0.753906
vt 0.541992 0.612305
vt 0.541992 0.816406
vt 0.447266 0.753906
vt 0.357422 0.612305
vt 0.618164 0.757812
vt 0.664062 0.757812
vt 0.709961 0.757812
vt 0.425781 0.345703
vt 0.709961 0.345703
vt 0.912109 0.768555
vt 0.922852 0.854492
vt 0.820312 0.688477
vt 0.811523 0.757812
vt 0.598633 0.688477
vt 0.892578 0.612305
vt 0.618164 0.612305
vt 0.768555 0.688477
vt 0.749023 0.688477
vt 0.951172 0.757812
vt 0.942383 0.843750
vt 0.752930 0.688477
vt 0.820312 0.688477
vt 0.820312 0.843750
vt 0.693359 0.629883
vt 0.541992 0.629883
vt 0.673828 0.688477
vt 0.496094 0.816406
vt 0.693359 0.612305
vt 0.618164 0.765625
vt 0.598633 0.765625
vt 0.618164 0.833984
vt 0.931641 0.757812
vt 0.685547 0.688477
vt 0.835938 0.612305
vt 0.835938 0.680664
vt 0.541992 0.706055
vt 0.618164 0.629883
vn -1.0000 0.0000 0.0000
vn 1.0000 0.0000 0.0000
vn 0.0000 -0.0000 1.0000
vn 0.0000 -1.0000 -0.0000
vn 0.0000 1.0000 0.0000
vn 0.0000 -0.8107 0.5855
vn 0.0000 -0.7242 0.6896
vn 0.0000 -0.8107 0.5854
vn 0.0000 0.8107 0.5854
vn 0.0000 0.7242 0.6896
vn 0.0000 0.3309 0.9437
vn 0.0000 -0.3309 0.9437
vn 0.0000 0.8107 0.5855
vn 0.0000 0.3706 0.9288
vn 0.0000 -0.3706 0.9288
s 1
f 1/1/1 2/2/1 3/3/1
f 4/4/2 5/5/2 6/6/2
f 7/7/3 1/8/3 8/9/3
f 9/10/4 10/11/4 11/12/4
f 2/13/5 7/14/5 12/15/5
f 13/16/3 14/17/3 11/18/3
f 15/19/1 16/20/1 17/21/1
f 6/22/3 10/23/3 18/24/3
f 19/25/3 11/18/3 10/23/3
f 20/26/2 21/27/2 22/28/2
f 23/29/3 13/16/3 19/25/3
f 24/30/3 23/29/3 5/31/3
f 23/29/3 7/7/3 8/9/3
f 6/32/6 25/33/7 19/34/6
f 13/35/8 26/36/7 27/37/8
f 23/38/9 28/39/10 5/40/9
f 29/41/1 30/42/1 31/43/1
f 32/44/2 33/45/2 34/46/2
f 31/47/10 20/48/11 35/49/10
f 30/50/11 21/51/12 20/48/11
f 29/52/12 22/53/7 21/51/12
f 17/54/10 32/55/11 28/56/10
f 16/57/11 33/58/12 32/55/11
f 15/59/12 34/60/7 33/58/12
f 1/61/13 35/49/10 8/62/13
f 36/63/4 37/64/4 38/65/4
f 39/66/4 40/67/4 41/68/4
f 42/69/5 43/70/5 44/71/5
f 36/72/2 45/73/2 46/74/2
f 36/75/3 47/76/3 48/77/3
f 44/78/2 36/72/2 48/79/2
f 47/80/1 38/81/1 42/82/1
f 45/83/14 37/84/14 46/85/14
f 49/86/15 50/87/15 51/88/15
f 52/89/4 50/90/4 40/67/4
f 53/91/5 45/92/5 43/70/5
f 47/93/5 49/94/5 48/95/5
f 38/81/1 54/96/1 53/97/1
f 47/80/1 50/98/1 55/99/1
f 48/79/2 51/100/2 52/101/2
f 56/102/4 57/103/4 58/104/4
f 59/105/4 60/106/4 61/107/4
f 62/108/5 63/109/5 64/110/5
f 56/111/2 65/112/2 66/113/2
f 56/114/3 67/115/3 68/116/3
f 64/117/2 56/111/2 68/118/2
f 67/119/1 58/120/1 62/121/1
f 65/122/14 57/103/14 66/123/14
f 69/124/15 70/125/15 71/126/15
f 72/127/4 70/128/4 60/106/4
f 73/129/5 65/130/5 63/109/5
f 67/131/5 69/132/5 68/133/5
f 58/120/1 74/134/1 73/135/1
f 67/119/1 70/136/1 75/137/1
f 68/118/2 71/138/2 72/139/2
f 3/3/1 14/140/1 27/141/1
f 1/1/1 76/142/1 2/2/1
f 3/3/1 27/141/1 1/1/1
f 18/143/2 9/144/2 6/6/2
f 9/144/2 4/4/2 6/6/2
f 4/4/2 24/145/2 5/5/2
f 7/7/3 76/146/3 1/8/3
f 14/147/4 3/148/4 11/12/4
f 3/148/4 9/10/4 11/12/4
f 9/10/4 18/149/4 10/11/4
f 24/150/5 4/151/5 12/15/5
f 4/151/5 2/13/5 12/15/5
f 2/13/5 76/152/5 7/14/5
f 13/16/3 27/153/3 14/17/3
f 17/21/1 23/154/1 19/155/1
f 19/155/1 25/156/1 17/21/1
f 25/156/1 15/19/1 17/21/1
f 6/22/3 19/25/3 10/23/3
f 19/25/3 13/16/3 11/18/3
f 22/28/2 13/157/2 8/158/2
f 8/158/2 35/159/2 22/28/2
f 35/159/2 20/26/2 22/28/2
f 23/29/3 8/9/3 13/16/3
f 24/30/3 12/160/3 23/29/3
f 23/29/3 12/160/3 7/7/3
f 6/32/6 34/161/7 25/33/7
f 13/35/8 22/162/7 26/36/7
f 23/38/9 17/163/10 28/39/10
f 31/43/1 1/1/1 27/141/1
f 27/141/1 26/164/1 31/43/1
f 26/164/1 29/41/1 31/43/1
f 34/46/2 6/6/2 5/5/2
f 5/5/2 28/165/2 34/46/2
f 28/165/2 32/44/2 34/46/2
f 31/47/10 30/50/11 20/48/11
f 30/50/11 29/52/12 21/51/12
f 29/52/12 26/166/7 22/53/7
f 17/54/10 16/57/11 32/55/11
f 16/57/11 15/59/12 33/58/12
f 15/59/12 25/167/7 34/60/7
f 1/61/13 31/168/10 35/49/10
f 36/63/4 46/169/4 37/64/4
f 39/66/4 52/89/4 40/67/4
f 42/69/5 53/91/5 43/70/5
f 36/72/2 43/170/2 45/73/2
f 36/75/3 38/171/3 47/76/3
f 52/101/2 39/172/2 48/79/2
f 39/172/2 44/78/2 48/79/2
f 44/78/2 43/170/2 36/72/2
f 41/173/1 40/174/1 47/80/1
f 38/81/1 53/97/1 42/82/1
f 41/173/1 47/80/1 42/82/1
f 45/83/14 54/175/14 37/84/14
f 49/86/15 55/176/15 50/87/15
f 52/89/4 51/177/4 50/90/4
f 53/91/5 54/178/5 45/92/5
f 47/93/5 55/179/5 49/94/5
f 38/81/1 37/180/1 54/96/1
f 47/80/1 40/174/1 50/98/1
f 48/79/2 49/181/2 51/100/2
f 56/102/4 66/123/4 57/103/4
f 59/105/4 72/127/4 60/106/4
f 62/108/5 73/129/5 63/109/5
f 56/111/2 63/182/2 65/112/2
f 56/114/3 58/183/3 67/115/3
f 72/139/2 59/184/2 68/118/2
f 59/184/2 64/117/2 68/118/2
f 64/117/2 63/182/2 56/111/2
f 61/185/1 60/186/1 67/119/1
f 58/120/1 73/135/1 62/121/1
f 61/185/1 67/119/1 62/121/1
f 65/122/14 74/187/14 57/103/14
f 69/124/15 75/188/15 70/125/15
f 72/127/4 71/189/4 70/128/4
f 73/129/5 74/190/5 65/130/5
f 67/131/5 75/191/5 69/132/5
f 58/120/1 57/192/1 74/134/1
f 67/119/1 60/186/1 70/136/1
f 68/118/2 69/193/2 71/138/2
