# Blender v2.82 (sub 7) OBJ File: 'speedStuff.blend'
# www.blender.org
o Breaker_Handle_Cylinder.005
v 0.258757 -0.004189 -0.034113
v -0.258757 -0.016924 -0.029913
v -0.258757 -0.004189 -0.034113
v 0.258757 -0.016924 -0.029913
v -0.258757 -0.027083 -0.021160
v 0.258757 -0.027083 -0.021160
v -0.258757 -0.033119 -0.009185
v 0.258757 -0.033119 -0.009185
v -0.258757 -0.034113 0.004189
v 0.258757 -0.034113 0.004189
v -0.258757 -0.029913 0.016924
v 0.258757 -0.029913 0.016924
v -0.258757 -0.021160 0.027083
v 0.258757 -0.021160 0.027083
v -0.258757 -0.009185 0.033119
v 0.258757 -0.009185 0.033119
v -0.258757 0.004189 0.034113
v 0.258757 0.004189 0.034113
v -0.258757 0.016924 0.029913
v 0.258757 0.016924 0.029913
v -0.258757 0.027083 0.021160
v 0.258757 0.027083 0.021160
v -0.258757 0.033119 0.009185
v 0.258757 0.033119 0.009185
v -0.258757 0.034113 -0.004189
v 0.258757 0.034113 -0.004189
v -0.258757 0.029913 -0.016924
v 0.258757 0.021160 -0.027083
v -0.258757 0.021160 -0.027083
v -0.232615 0.400997 -0.074452
v -0.205026 -0.004189 -0.034113
v -0.232615 -0.004189 -0.034113
v -0.258757 0.009185 -0.033119
v 0.258757 0.009185 -0.033119
v -0.232615 0.000000 0.000000
v -0.205026 0.400997 -0.074452
v -0.205026 0.004189 0.034113
v -0.205026 0.407097 -0.024769
v -0.232615 0.004189 0.034113
v 0.232615 0.400997 -0.074452
v -0.222615 0.391723 -0.071394
v 0.222615 0.391723 -0.071394
v -0.222615 0.384325 -0.065020
v 0.222615 0.384325 -0.065020
v -0.222615 0.379929 -0.056299
v 0.222615 0.379929 -0.056299
v -0.222615 0.379206 -0.046561
v 0.222615 0.379206 -0.046561
v -0.222615 0.382264 -0.037286
v 0.222615 0.382264 -0.037286
v -0.222615 0.388638 -0.029888
v 0.222615 0.388638 -0.029888
v -0.222615 0.397359 -0.025493
v 0.222615 0.397359 -0.025493
v -0.232615 0.407097 -0.024769
v 0.232615 0.416371 -0.027827
v -0.232615 0.416371 -0.027827
v -0.232615 0.423770 -0.034202
v 0.232615 0.428165 -0.042922
v -0.232615 0.428165 -0.042922
v -0.232615 0.428889 -0.052661
v 0.232615 0.428889 -0.052661
v -0.232615 0.425830 -0.061935
v 0.232615 0.419456 -0.069333
v -0.232615 0.419456 -0.069333
v -0.232615 0.410736 -0.073729
v 0.232615 0.410736 -0.073729
v 0.205026 0.400997 -0.074452
v 0.232615 -0.004189 -0.034113
v 0.205026 -0.004189 -0.034113
v 0.205026 0.407097 -0.024769
v 0.205026 0.004189 0.034113
v 0.232615 0.004189 0.034113
v 0.232615 0.407097 -0.024769
v 0.258758 0.029913 -0.016924
v 0.232615 0.423769 -0.034202
v 0.232615 0.425830 -0.061935
vt 1.008789 0.050781
vt 0.008789 0.025391
vt 0.008789 0.050781
vt 1.008789 0.025391
vt 0.008789 0.005859
vt 1.008789 0.512695
vt 0.008789 0.536133
vt 0.008789 0.512695
vt 1.008789 0.536133
vt 0.008789 0.561523
vt 1.008789 0.561523
vt 0.008789 0.585938
vt 1.008789 0.585938
vt 0.008789 0.606445
vt 1.008789 0.017578
vt 0.008789 0.041016
vt 0.008789 0.017578
vt 1.008789 0.041016
vt 0.008789 0.066406
vt 1.008789 0.066406
vt 0.008789 0.090820
vt 1.008789 0.090820
vt 0.008789 0.110352
vt 1.008789 0.594727
vt 0.008789 0.571289
vt 0.008789 0.594727
vt 1.008789 0.571289
vt 0.008789 0.545898
vt 1.008789 0.545898
vt 0.008789 0.521484
vt 1.008789 0.500977
vt 0.008789 0.500977
vt 0.058594 0.833008
vt 0.112305 0.050781
vt 0.058594 0.050781
vt 1.008789 0.099609
vt 0.008789 0.076172
vt 0.008789 0.099609
vt 1.008789 0.076172
vt 0.833008 0.410156
vt 0.050781 0.487305
vt 0.058594 0.553711
vt 0.833008 0.410156
vt 0.066406 0.619141
vt 0.050781 0.487305
vt 0.112305 0.844727
vt 0.058594 0.066406
vt 0.112305 0.066406
vt 0.112305 0.619141
vt 0.058594 0.619141
vt 0.058594 0.410156
vt 0.112305 0.505859
vt 0.112305 0.410156
vt 0.958008 0.833008
vt 0.078125 0.815430
vt 0.938477 0.815430
vt 0.078125 0.800781
vt 0.938477 0.427734
vt 0.078125 0.445312
vt 0.078125 0.427734
vt 0.938477 0.445312
vt 0.078125 0.463867
vt 0.938477 0.463867
vt 0.078125 0.481445
vt 0.938477 0.481445
vt 0.078125 0.496094
vt 0.938477 0.809570
vt 0.078125 0.826172
vt 0.078125 0.809570
vt 0.938477 0.826172
vt 0.058594 0.844727
vt 0.958008 0.863281
vt 0.058594 0.863281
vt 0.058594 0.876953
vt 0.058594 0.487305
vt 0.958008 0.470703
vt 0.058594 0.470703
vt 0.058594 0.452148
vt 0.958008 0.452148
vt 0.058594 0.433594
vt 0.958008 0.419922
vt 0.058594 0.419922
vt 0.958008 0.869141
vt 0.058594 0.852539
vt 0.058594 0.869141
vt 0.958008 0.852539
vt 0.852539 0.411133
vt 0.863281 0.500000
vt 0.904297 0.833008
vt 0.958008 0.050781
vt 0.904297 0.050781
vt 0.844727 0.505859
vt 0.050781 0.487305
vt 0.066406 0.619141
vt 0.833008 0.410156
vt 0.066406 0.619141
vt 0.050781 0.487305
vt 0.958008 0.844727
vt 0.904297 0.066406
vt 0.958008 0.066406
vt 0.958008 0.487305
vt 0.904297 0.619141
vt 0.904297 0.487305
vt 0.904297 0.410156
vt 0.958008 0.505859
vt 0.958008 0.410156
vt 0.863281 0.500000
vt 0.869141 0.419922
vt 0.887695 0.452148
vt 1.008789 0.005859
vt 1.008789 0.606445
vt 1.008789 0.110352
vt 1.008789 0.521484
vt 0.112305 0.833008
vt 0.066406 0.619141
vt 0.844727 0.505859
vt 0.844727 0.505859
vt 0.058594 0.487305
vt 0.112305 0.487305
vt 0.058594 0.505859
vt 0.938477 0.800781
vt 0.938477 0.496094
vt 0.958008 0.876953
vt 0.958008 0.487305
vt 0.958008 0.433594
vt 0.876953 0.487305
vt 0.885742 0.470703
vt 0.887695 0.452148
vt 0.880859 0.433594
vt 0.869141 0.419922
vt 0.833008 0.410156
vt 0.844727 0.505859
vt 0.904297 0.844727
vt 0.958008 0.619141
vt 0.904297 0.505859
vt 0.885742 0.470703
vt 0.876953 0.487305
vt 0.852539 0.411133
vt 0.880859 0.433594
vn 0.0000 -0.1219 -0.9925
vn 0.0000 -0.4924 -0.8704
vn 0.0000 -0.7880 -0.6157
vn 0.0000 -0.9636 -0.2672
vn 0.0000 -0.9925 0.1219
vn 0.0000 -0.8704 0.4924
vn 0.0000 -0.6157 0.7880
vn 0.0000 -0.2672 0.9636
vn 0.0000 0.1219 0.9925
vn 0.0000 0.4924 0.8704
vn 0.0000 0.7880 0.6157
vn 0.0000 0.9636 0.2672
vn 0.0000 0.9925 -0.1219
vn 0.0000 0.8704 -0.4924
vn 0.0000 0.6157 -0.7880
vn 0.0000 -0.0991 -0.9951
vn 0.0000 0.2672 -0.9636
vn -1.0000 -0.0000 0.0000
vn 1.0000 0.0000 0.0000
vn 0.0000 0.1446 0.9895
vn 0.0000 -0.0546 -0.9985
vn 0.0000 -0.4570 -0.8895
vn 0.0000 -0.6156 0.7880
vn 0.0000 -0.2282 0.9736
vn -0.0000 0.1886 0.9821
vn 0.0000 0.4924 0.8703
vn 0.0000 0.9636 0.2673
vn 0.0000 0.8703 -0.4924
s 1
f 1/1/1 2/2/2 3/3/1
f 4/4/2 5/5/3 2/2/2
f 6/6/3 7/7/4 5/8/3
f 8/9/4 9/10/5 7/7/4
f 10/11/5 11/12/6 9/10/5
f 12/13/6 13/14/7 11/12/6
f 14/15/7 15/16/8 13/17/7
f 16/18/8 17/19/9 15/16/8
f 18/20/9 19/21/10 17/19/9
f 20/22/10 21/23/11 19/21/10
f 22/24/11 23/25/12 21/26/11
f 24/27/12 25/28/13 23/25/12
f 26/29/13 27/30/14 25/28/13
f 27/30/14 28/31/15 29/32/15
f 30/33/16 31/34/16 32/35/16
f 28/36/15 33/37/17 29/38/15
f 34/39/17 3/3/1 33/37/17
f 30/40/18 32/41/18 35/42/18
f 36/43/19 37/44/19 31/45/19
f 38/46/20 39/47/20 37/48/20
f 37/49/5 39/50/5 35/42/5
f 30/51/13 38/52/13 36/53/13
f 40/54/21 41/55/22 30/33/21
f 42/56/22 43/57/3 41/55/22
f 44/58/3 45/59/4 43/60/3
f 46/61/4 47/62/5 45/59/4
f 48/63/5 49/64/6 47/62/5
f 50/65/6 51/66/23 49/64/6
f 52/67/7 53/68/24 51/69/23
f 54/70/24 55/71/25 53/68/24
f 55/71/25 56/72/26 57/73/10
f 56/72/26 58/74/11 57/73/10
f 58/75/11 59/76/27 60/77/12
f 59/76/27 61/78/13 60/77/12
f 62/79/13 63/80/28 61/78/13
f 63/80/28 64/81/15 65/82/15
f 64/83/15 66/84/17 65/85/15
f 67/86/17 30/33/21 66/84/17
f 66/87/18 30/40/18 57/88/18
f 68/89/16 69/90/16 70/91/16
f 71/92/18 70/93/18 72/94/18
f 40/95/19 73/96/19 69/97/19
f 74/98/20 72/99/20 73/100/20
f 69/101/5 72/102/5 70/103/5
f 68/104/13 74/105/13 40/106/13
f 56/107/19 64/108/19 62/109/19
f 1/1/1 4/4/2 2/2/2
f 4/4/2 6/110/3 5/5/3
f 6/6/3 8/9/4 7/7/4
f 8/9/4 10/11/5 9/10/5
f 10/11/5 12/13/6 11/12/6
f 12/13/6 14/111/7 13/14/7
f 14/15/7 16/18/8 15/16/8
f 16/18/8 18/20/9 17/19/9
f 18/20/9 20/22/10 19/21/10
f 20/22/10 22/112/11 21/23/11
f 22/24/11 24/27/12 23/25/12
f 24/27/12 26/29/13 25/28/13
f 26/29/13 75/113/14 27/30/14
f 27/30/14 75/113/14 28/31/15
f 30/33/16 36/114/16 31/34/16
f 28/36/15 34/39/17 33/37/17
f 34/39/17 1/1/1 3/3/1
f 35/42/18 39/115/18 55/116/18
f 55/116/18 30/40/18 35/42/18
f 36/43/19 38/117/19 37/44/19
f 38/46/20 55/71/20 39/47/20
f 35/42/5 32/118/5 31/119/5
f 31/119/5 37/49/5 35/42/5
f 30/51/13 55/120/13 38/52/13
f 40/54/21 42/56/22 41/55/22
f 42/56/22 44/121/3 43/57/3
f 44/58/3 46/61/4 45/59/4
f 46/61/4 48/63/5 47/62/5
f 48/63/5 50/65/6 49/64/6
f 50/65/6 52/122/7 51/66/23
f 52/67/7 54/70/24 53/68/24
f 54/70/24 74/98/25 55/71/25
f 55/71/25 74/98/25 56/72/26
f 56/72/26 76/123/11 58/74/11
f 58/75/11 76/124/11 59/76/27
f 59/76/27 62/79/13 61/78/13
f 62/79/13 77/125/28 63/80/28
f 63/80/28 77/125/28 64/81/15
f 64/83/15 67/86/17 66/84/17
f 67/86/17 40/54/21 30/33/21
f 30/40/18 55/116/18 57/88/18
f 57/88/18 58/126/18 60/127/18
f 60/127/18 61/128/18 57/88/18
f 61/128/18 63/129/18 57/88/18
f 63/129/18 65/130/18 57/88/18
f 65/130/18 66/87/18 57/88/18
f 68/89/16 40/54/16 69/90/16
f 71/92/18 68/131/18 70/93/18
f 40/95/19 74/132/19 73/96/19
f 74/98/20 71/133/20 72/99/20
f 69/101/5 73/134/5 72/102/5
f 68/104/13 71/135/13 74/105/13
f 59/136/19 76/137/19 56/107/19
f 56/107/19 74/132/19 40/95/19
f 40/95/19 67/138/19 64/108/19
f 64/108/19 77/139/19 62/109/19
f 62/109/19 59/136/19 56/107/19
f 56/107/19 40/95/19 64/108/19
