# Blender v2.82 (sub 7) OBJ File: 'speedStuff.blend'
# www.blender.org
o Cabinet_Filing_Drawer_Cube.037
v -0.542431 0.205852 0.871135
v -0.542431 0.295503 0.871135
v -0.496975 0.419547 -0.654159
v 0.542431 -0.464848 -0.699615
v -0.542431 -0.464848 -0.699615
v 0.496975 0.419547 -0.654159
v 0.542431 0.295503 0.871135
v 0.542431 0.205852 0.871135
v -0.483416 0.419547 0.693972
v -0.483416 0.295503 0.871135
v 0.483416 -0.464848 0.871135
v -0.483416 -0.464848 0.871135
v 0.483416 0.419547 0.871135
v -0.483416 0.205852 0.871135
v -0.542431 -0.464848 0.871135
v 0.542431 -0.464848 0.871135
v 0.483416 0.205852 0.871135
v 0.483416 0.295503 0.871135
v 0.483416 0.315287 0.732583
v 0.483416 0.355606 0.826647
v -0.483416 0.315287 0.732583
v -0.483416 0.355606 0.826647
v -0.496975 0.419547 0.693972
v 0.496975 0.419547 0.693972
v -0.483416 0.419547 0.871135
v 0.483416 0.419547 0.693972
v -0.542431 0.419547 -0.699615
v -0.542431 0.419547 0.871135
v 0.542431 0.419547 -0.699615
v 0.542431 0.419547 0.871135
v -0.496975 -0.267869 -0.654159
v 0.483416 -0.267870 0.693972
v -0.483416 -0.267870 0.693972
v 0.496975 -0.267869 -0.654159
v -0.496975 -0.267870 0.693972
v 0.496975 -0.267870 0.693972
vt 0.558367 0.747162
vt 0.615442 0.747162
vt 0.694413 -0.252838
vt 0.154495 0.694413
vt 0.845160 0.131373
vt 0.154495 0.131373
vt 0.694413 -0.252838
vt 0.615442 0.747162
vt 0.558367 0.747162
vt 0.192066 0.694413
vt 0.154495 0.615442
vt 0.192066 0.615442
vt 0.845160 -0.252838
vt 0.807589 0.747162
vt 0.192066 0.747162
vt 0.816221 0.694413
vt 0.807589 0.256777
vt 0.807589 0.694413
vt 0.192066 0.558367
vt 0.154495 0.131373
vt 0.192066 0.131373
vt 0.154495 0.558367
vt 0.845160 0.558367
vt 0.807589 0.131373
vt 0.845160 0.131373
vt 0.807589 0.558367
vt 0.807589 0.615442
vt 0.615442 0.747162
vt 0.628037 0.658955
vt 0.558367 0.747162
vt 0.845160 0.615442
vt 0.807589 0.694413
vt 0.807589 0.718839
vt 0.192066 0.658955
vt 0.807589 0.658955
vt 0.807589 0.747162
vt 0.192066 0.747162
vt 0.615442 0.747162
vt 0.628037 0.658955
vt 0.653706 0.718839
vt 0.807589 0.653706
vt 0.131373 -0.252838
vt 0.131373 0.747162
vt 0.694413 0.747162
vt 0.845160 0.694413
vt 0.131373 0.747162
vt 0.131373 -0.252838
vt 0.694413 0.747162
vt 0.154495 0.694413
vt 0.154495 0.747162
vt 0.154495 -0.252838
vt 0.845160 0.747162
vt 0.192066 0.256777
vt 0.192066 0.694413
vt 0.183434 0.694413
vt 0.816221 0.256777
vt 0.816221 0.694413
vt 0.183434 0.256777
vt 0.183434 0.694413
vt 0.653706 0.718839
vt 0.845160 0.694413
vt 0.192066 0.718839
vt 0.558367 0.747162
vt 0.192066 0.653706
vt 0.192066 0.634373
vt 0.807589 0.747162
vt 0.807589 0.634373
vt 0.183434 0.634373
vt 0.154495 -0.252838
vt 0.154495 0.747162
vt 0.816221 -0.223899
vt 0.183434 -0.223899
vt 0.816221 0.634373
vt 0.845160 -0.252838
vt 0.192066 0.747162
vt 0.845160 0.747162
vt 0.183434 -0.223899
vt 0.192066 0.634373
vt 0.807589 0.634373
vt 0.816221 0.634373
vt 0.816221 -0.223899
vt 0.183434 0.634373
vt 0.694413 -0.223899
vt 0.256777 0.634373
vt 0.694413 0.634373
vt 0.694413 0.634373
vt 0.256777 -0.223899
vt 0.694413 -0.223899
vt 0.816221 0.256777
vt 0.183434 0.256777
vt 0.256777 -0.223899
vt 0.256777 0.634373
vn -1.0000 0.0000 0.0000
vn 0.0000 0.0000 -1.0000
vn 1.0000 0.0000 0.0000
vn 0.0000 0.0000 1.0000
vn 0.0000 -1.0000 -0.0000
vn -0.7071 0.0000 -0.7071
vn 0.0000 -0.9191 0.3940
vn 0.0000 0.7847 0.6198
vn 0.0000 -0.5949 -0.8038
vn 0.7071 -0.0000 0.7071
vn -0.7071 -0.0000 0.7071
vn 0.7071 0.0000 -0.7071
vn 0.0000 1.0000 0.0000
s 1
f 1/1/1 2/2/1 27/3/1
f 27/4/2 4/5/2 5/6/2
f 29/7/3 7/8/3 8/9/3
f 25/10/4 2/11/4 10/12/4
f 4/13/5 11/14/5 12/15/5
f 24/16/6 32/17/2 26/18/2
f 14/19/4 15/20/4 12/21/4
f 10/12/4 1/22/4 14/19/4
f 8/23/4 11/24/4 16/25/4
f 17/26/4 12/21/4 11/24/4
f 8/23/4 18/27/4 17/26/4
f 18/28/1 19/29/1 17/30/1
f 7/31/4 13/32/4 18/27/4
f 13/32/4 10/12/4 18/27/4
f 20/33/7 21/34/7 19/35/7
f 17/36/8 21/34/8 14/37/8
f 10/38/3 21/39/3 22/40/3
f 10/12/9 20/41/9 18/27/9
f 5/42/1 15/43/1 1/1/1
f 2/2/1 28/44/1 27/3/1
f 5/42/1 1/1/1 27/3/1
f 27/4/2 29/45/2 4/5/2
f 16/46/3 4/47/3 8/9/3
f 4/47/3 29/7/3 8/9/3
f 29/7/3 30/48/3 7/8/3
f 25/10/4 28/49/4 2/11/4
f 15/50/5 5/51/5 12/15/5
f 5/51/5 4/13/5 12/15/5
f 4/13/5 16/52/5 11/14/5
f 26/18/2 33/53/2 9/54/2
f 3/55/10 34/56/11 6/57/11
f 9/54/2 35/58/12 23/59/12
f 14/19/4 1/22/4 15/20/4
f 10/12/4 2/11/4 1/22/4
f 8/23/4 17/26/4 11/24/4
f 17/26/4 14/19/4 12/21/4
f 8/23/4 7/31/4 18/27/4
f 18/28/1 20/60/1 19/29/1
f 7/31/4 30/61/4 13/32/4
f 13/32/4 25/10/4 10/12/4
f 20/33/7 22/62/7 21/34/7
f 17/36/8 19/35/8 21/34/8
f 10/38/3 14/63/3 21/39/3
f 10/12/9 22/64/9 20/41/9
f 9/65/13 13/66/13 26/67/13
f 23/68/13 27/69/13 28/70/13
f 6/71/13 27/69/13 3/72/13
f 24/73/13 29/74/13 6/71/13
f 23/68/13 25/75/13 9/65/13
f 24/73/13 13/66/13 30/76/13
f 31/77/13 33/78/13 32/79/13
f 36/80/13 34/81/13 32/79/13
f 34/81/13 31/77/13 32/79/13
f 31/77/13 35/82/13 33/78/13
f 6/83/11 36/84/6 24/85/6
f 23/86/12 31/87/10 3/88/10
f 24/16/6 36/89/6 32/17/2
f 26/18/2 32/17/2 33/53/2
f 3/55/10 31/90/10 34/56/11
f 9/54/2 33/53/2 35/58/12
f 9/65/13 25/75/13 13/66/13
f 23/68/13 3/72/13 27/69/13
f 6/71/13 29/74/13 27/69/13
f 24/73/13 30/76/13 29/74/13
f 23/68/13 28/70/13 25/75/13
f 24/73/13 26/67/13 13/66/13
f 6/83/11 34/91/11 36/84/6
f 23/86/12 35/92/12 31/87/10
