# Blender v2.82 (sub 7) OBJ File: 'speedStuff.blend'
# www.blender.org
o Crate_Square_Cube.031
v -0.750000 1.750000 -1.000000
v -0.750000 0.250000 -0.900000
v -0.750000 0.250000 -1.000000
v 0.750000 1.750000 1.000000
v 0.750000 0.250000 0.900000
v 0.750000 0.250000 1.000000
v -1.000000 0.250000 0.750000
v -0.900000 0.250000 -0.750000
v -1.000000 0.250000 -0.750000
v 1.000000 0.250000 -0.750000
v 0.900000 0.250000 0.750000
v 1.000000 0.250000 0.750000
v -0.750000 0.250000 1.000000
v -0.750000 1.750000 0.900000
v -0.750000 1.750000 1.000000
v 1.000000 1.750000 -0.750000
v 0.900000 0.250000 -0.750000
v 1.000000 2.000000 -1.000000
v 1.000000 0.000000 -1.000000
v 1.000000 2.000000 1.000000
v 1.000000 1.750000 0.750000
v 1.000000 -0.000000 1.000000
v -1.000000 -0.000000 1.000000
v -1.000000 2.000000 1.000000
v -1.000000 1.750000 0.750000
v -1.000000 2.000000 -1.000000
v -1.000000 1.750000 -0.750000
v -1.000000 0.000000 -1.000000
v 0.750000 0.250000 -1.000000
v 0.750000 1.750000 -1.000000
v -0.750000 2.000000 -0.750000
v -0.750000 2.000000 0.750000
v 0.750000 2.000000 -0.750000
v 0.750000 2.000000 0.750000
v -0.750000 -0.000000 0.750000
v -0.750000 0.000000 -0.750000
v 0.750000 0.000000 -0.750000
v 0.750000 -0.000000 0.750000
v -0.900000 1.750000 0.750000
v -0.900000 0.250000 0.750000
v -0.750000 1.750000 -0.900000
v 0.750000 0.250000 -0.900000
v 0.900000 1.750000 -0.750000
v 0.750000 1.750000 0.900000
v -0.750000 0.250000 0.900000
v 0.750000 0.100000 -0.750000
v -0.750000 0.100000 0.750000
v -0.750000 0.100000 -0.750000
v -0.750000 1.900000 -0.750000
v 0.750000 1.900000 0.750000
v 0.750000 1.900000 -0.750000
v 0.900000 1.750000 0.750000
v -0.900000 1.750000 -0.750000
v 0.750000 1.750000 -0.900000
v -0.750000 1.900000 0.750000
v 0.750000 0.100000 0.750000
vt 0.593750 0.031250
vt 0.406250 0.218750
vt 0.406250 0.031250
vt 0.593750 0.281250
vt 0.406250 0.468750
vt 0.406250 0.281250
vt 0.593750 0.531250
vt 0.406250 0.718750
vt 0.406250 0.531250
vt 0.593750 0.781250
vt 0.406250 0.968750
vt 0.406250 0.781250
vt 0.343750 0.531250
vt 0.156250 0.718750
vt 0.156250 0.531250
vt 0.843750 0.531250
vt 0.656250 0.718750
vt 0.656250 0.531250
vt 0.593750 0.218750
vt 0.593750 0.468750
vt 0.593750 0.718750
vt 0.593750 0.968750
vt 0.343750 0.718750
vt 0.843750 0.718750
vt 0.875000 0.000000
vt 0.125000 0.050000
vt 0.125000 0.000000
vt 0.875000 1.000000
vt 0.125000 0.950000
vt 0.125000 1.000000
vt 0.000000 0.875000
vt 0.050000 0.125000
vt 0.000000 0.125000
vt 1.000000 0.125000
vt 0.950000 0.875000
vt 1.000000 0.875000
vt 0.125000 1.000000
vt 0.875000 0.950000
vt 0.875000 1.000000
vt 1.000000 0.875000
vt 0.950000 0.125000
vt 0.125000 0.125000
vt 1.000000 0.000000
vt 0.875000 0.125000
vt 0.125000 0.875000
vt 0.000000 0.000000
vt 1.000000 1.000000
vt 0.875000 0.875000
vt 0.000000 1.000000
vt 0.125000 0.875000
vt 0.000000 0.000000
vt 0.125000 0.125000
vt 0.875000 0.125000
vt 0.875000 0.875000
vt 1.000000 0.000000
vt 0.000000 1.000000
vt 0.125000 0.125000
vt 0.000000 1.000000
vt 0.125000 0.875000
vt 1.000000 1.000000
vt 0.875000 0.875000
vt 1.000000 0.000000
vt 0.875000 0.125000
vt 0.000000 0.000000
vt 0.125000 0.125000
vt 0.000000 1.000000
vt 0.125000 0.875000
vt 0.875000 0.125000
vt 1.000000 1.000000
vt 0.875000 0.875000
vt 1.000000 0.000000
vt 0.125000 0.125000
vt 0.125000 0.875000
vt 0.875000 0.125000
vt 0.000000 0.000000
vt 0.875000 0.875000
vt 0.125000 0.875000
vt 0.125000 0.125000
vt 0.875000 0.125000
vt 1.000000 1.000000
vt 0.875000 0.875000
vt 1.000000 0.875000
vt 0.950000 0.125000
vt 1.000000 0.125000
vt 0.000000 0.875000
vt 0.050000 0.125000
vt 0.000000 0.125000
vt 1.000000 0.875000
vt 0.950000 0.125000
vt 1.000000 0.125000
vt 0.875000 1.000000
vt 0.125000 0.950000
vt 0.875000 0.050000
vt 0.875000 0.000000
vt 0.000000 0.125000
vt 0.050000 0.875000
vt 0.000000 0.875000
vt 1.000000 0.125000
vt 0.950000 0.875000
vt 0.000000 0.125000
vt 0.050000 0.875000
vt 0.125000 1.000000
vt 0.875000 0.950000
vt 0.875000 1.000000
vt 0.125000 1.000000
vt 0.875000 0.950000
vt 0.875000 0.000000
vt 0.125000 0.050000
vt 0.125000 0.000000
vt 0.875000 0.000000
vt 0.125000 0.050000
vt 0.125000 0.000000
vt 0.050000 0.875000
vt 0.000000 0.875000
vt 1.000000 0.125000
vt 0.950000 0.875000
vt 1.000000 0.875000
vt 0.125000 0.000000
vt 0.875000 0.050000
vt 0.000000 0.875000
vt 0.050000 0.125000
vt 0.000000 0.125000
vt 0.875000 1.000000
vt 0.125000 0.950000
vt 0.125000 1.000000
vt 0.125000 0.000000
vt 0.875000 0.050000
vt 0.875000 0.000000
vt 0.875000 0.050000
vt 0.050000 0.875000
vt 0.950000 0.875000
vt 0.950000 0.875000
vt 0.875000 0.950000
vt 0.050000 0.125000
vt 0.950000 0.125000
vt 0.050000 0.125000
vt 0.125000 0.950000
vt 0.125000 0.950000
vt 0.875000 0.050000
vt 0.950000 0.125000
vt 0.125000 0.050000
vt 0.050000 0.875000
vt 0.875000 0.950000
vt 0.125000 0.050000
vn -1.0000 0.0000 0.0000
vn 0.0000 0.0000 -1.0000
vn 1.0000 -0.0000 0.0000
vn 0.0000 -0.0000 1.0000
vn 0.0000 -1.0000 -0.0000
vn 0.0000 1.0000 0.0000
s 1
f 39/1/1 8/2/1 40/3/1
f 41/4/2 42/5/2 2/6/2
f 43/7/3 11/8/3 17/9/3
f 44/10/4 45/11/4 5/12/4
f 46/13/5 47/14/5 48/15/5
f 49/16/6 50/17/6 51/18/6
f 39/1/1 53/19/1 8/2/1
f 41/4/2 54/20/2 42/5/2
f 43/7/3 52/21/3 11/8/3
f 44/10/4 14/22/4 45/11/4
f 46/13/5 56/23/5 47/14/5
f 49/16/6 55/24/6 50/17/6
f 1/25/3 2/26/3 3/27/3
f 4/28/1 5/29/1 6/30/1
f 7/31/6 8/32/6 9/33/6
f 10/34/6 11/35/6 12/36/6
f 13/37/3 14/38/3 15/39/3
f 16/40/4 17/41/4 10/34/4
f 10/42/3 18/43/3 16/44/3
f 12/45/3 19/46/3 10/42/3
f 16/44/3 20/47/3 21/48/3
f 21/48/3 22/49/3 12/45/3
f 15/50/4 23/51/4 13/52/4
f 6/53/4 20/47/4 4/54/4
f 13/52/4 22/55/4 6/53/4
f 4/54/4 24/56/4 15/50/4
f 9/57/1 23/58/1 7/59/1
f 7/59/1 24/60/1 25/61/1
f 25/61/1 26/62/1 27/63/1
f 27/63/1 28/64/1 9/57/1
f 3/65/2 26/66/2 1/67/2
f 29/68/2 28/64/2 3/65/2
f 1/67/2 18/69/2 30/70/2
f 30/70/2 19/71/2 29/68/2
f 31/72/6 24/56/6 32/73/6
f 33/74/6 26/75/6 31/72/6
f 34/76/6 18/43/6 33/74/6
f 32/73/6 20/47/6 34/76/6
f 35/77/5 28/64/5 36/78/5
f 36/78/5 19/71/5 37/79/5
f 37/79/5 22/80/5 38/81/5
f 38/81/5 23/58/5 35/77/5
f 21/82/5 43/83/5 16/84/5
f 25/85/2 40/86/2 7/87/2
f 32/88/3 49/89/3 31/90/3
f 6/91/6 45/92/6 13/37/6
f 3/27/6 42/93/6 29/94/6
f 36/95/3 47/96/3 35/97/3
f 12/98/2 52/99/2 21/82/2
f 27/100/5 39/101/5 25/85/5
f 31/102/4 51/103/4 33/104/4
f 15/105/5 44/106/5 4/28/5
f 30/107/5 41/108/5 1/109/5
f 37/110/4 48/111/4 36/112/4
f 9/33/4 53/113/4 27/114/4
f 33/115/1 50/116/1 34/117/1
f 29/118/1 54/119/1 30/107/1
f 38/120/1 46/121/1 37/122/1
f 34/123/2 55/124/2 32/125/2
f 35/126/2 56/127/2 38/128/2
f 1/25/3 41/129/3 2/26/3
f 4/28/1 44/106/1 5/29/1
f 7/31/6 40/130/6 8/32/6
f 10/34/6 17/41/6 11/35/6
f 13/37/3 45/92/3 14/38/3
f 16/40/4 43/131/4 17/41/4
f 10/42/3 19/46/3 18/43/3
f 12/45/3 22/49/3 19/46/3
f 16/44/3 18/43/3 20/47/3
f 21/48/3 20/47/3 22/49/3
f 15/50/4 24/56/4 23/51/4
f 6/53/4 22/55/4 20/47/4
f 13/52/4 23/51/4 22/55/4
f 4/54/4 20/47/4 24/56/4
f 9/57/1 28/64/1 23/58/1
f 7/59/1 23/58/1 24/60/1
f 25/61/1 24/60/1 26/62/1
f 27/63/1 26/62/1 28/64/1
f 3/65/2 28/64/2 26/66/2
f 29/68/2 19/71/2 28/64/2
f 1/67/2 26/66/2 18/69/2
f 30/70/2 18/69/2 19/71/2
f 31/72/6 26/75/6 24/56/6
f 33/74/6 18/43/6 26/75/6
f 34/76/6 20/47/6 18/43/6
f 32/73/6 24/56/6 20/47/6
f 35/77/5 23/58/5 28/64/5
f 36/78/5 28/64/5 19/71/5
f 37/79/5 19/71/5 22/80/5
f 38/81/5 22/80/5 23/58/5
f 21/82/5 52/99/5 43/83/5
f 25/85/2 39/101/2 40/86/2
f 32/88/3 55/132/3 49/89/3
f 6/91/6 5/133/6 45/92/6
f 3/27/6 2/26/6 42/93/6
f 36/95/3 48/134/3 47/96/3
f 12/98/2 11/135/2 52/99/2
f 27/100/5 53/136/5 39/101/5
f 31/102/4 49/137/4 51/103/4
f 15/105/5 14/138/5 44/106/5
f 30/107/5 54/119/5 41/108/5
f 37/110/4 46/139/4 48/111/4
f 9/33/4 8/32/4 53/113/4
f 33/115/1 51/140/1 50/116/1
f 29/118/1 42/141/1 54/119/1
f 38/120/1 56/142/1 46/121/1
f 34/123/2 50/143/2 55/124/2
f 35/126/2 47/144/2 56/127/2
