# Blender v2.82 (sub 7) OBJ File: 'speedStuff.blend'
# www.blender.org
o RoofJointInnerB_Roof_Corner_Inner_Flat_Cube.001
v 0.000000 5.000000 0.750001
v 0.000000 5.000000 0.000001
v 0.750000 5.000000 0.750001
v 0.000000 5.500000 1.250001
v 1.250000 5.500000 0.750001
v 1.250000 5.500000 0.000001
v 0.750000 5.000000 0.000001
v 0.750000 5.500000 1.250001
v 0.000000 5.000000 0.000001
vt 0.058333 0.633333
vt 0.058333 0.033333
vt 0.658333 0.633333
vt 1.058333 0.633333
vt 0.658333 0.033333
vt 1.058333 0.033333
vt 0.058333 0.366666
vt 0.658333 0.766666
vt 0.058333 0.766666
vt 1.058333 0.766666
vt 0.658333 0.366666
vt 0.058333 0.366666
vt 0.058333 0.366666
vn 0.0000 -1.0000 0.0000
vn 0.7071 -0.7071 0.0000
vn 0.0000 -0.7071 0.7071
vn 0.5774 -0.5774 0.5774
vn 0.0000 0.0000 0.0000
s 1
f 1/1/1 2/2/1 3/3/1
f 5/4/2 7/5/2 6/6/2
f 1/7/3 8/8/3 4/9/3
f 5/10/4 8/8/4 3/11/4
f 1/7/5 9/12/5 2/13/5
f 2/2/1 7/5/1 3/3/1
f 5/4/2 3/3/2 7/5/2
f 1/7/3 3/11/3 8/8/3
