# Blender v2.82 (sub 7) OBJ File: 'speedStuff.blend'
# www.blender.org
o RoofJointOuter_Roof_Corner_Outer_Cube.001
v 6.000000 5.000000 0.000001
v 2.000000 5.000000 0.750001
v 2.000000 5.000000 0.000001
v 1.250000 5.000000 0.750001
v 2.000000 5.500000 1.250001
v 1.250000 5.500000 1.250001
v 6.000000 5.000000 0.750001
v 0.000000 5.000000 2.000001
v 0.750000 4.999999 6.000001
v 0.000000 4.999999 6.000001
v 0.750000 5.000000 1.250001
v 1.250000 5.500000 2.000001
v 0.750000 5.000000 2.000001
v 1.250000 5.499999 6.000001
v 0.000000 5.000000 0.000001
v 6.000000 5.500000 1.250001
vt 1.039062 -0.403320
vt -0.052734 -0.199219
vt -0.052734 -0.403320
vt -0.257812 0.006836
vt -0.052734 0.144531
vt -0.257812 0.144531
vt 1.039062 0.006836
vt -0.052734 0.006836
vt -0.597656 0.141602
vt -0.393555 1.233398
vt -0.597656 1.233398
vt -0.393555 -0.063477
vt -0.257812 0.141602
vt -0.393555 0.141602
vt -0.257812 1.233398
vt -0.393555 0.006836
vt -0.597656 -0.403320
vt -0.257812 -0.199219
vt 1.039062 -0.199219
vt 1.039062 0.144531
vt -0.257812 -0.063477
vn 0.0000 -1.0000 0.0000
vn 0.0000 -0.7071 0.7071
vn 0.7071 -0.7071 -0.0000
vn 0.5774 -0.5774 0.5774
s 1
f 1/1/1 2/2/1 3/3/1
f 4/4/2 5/5/2 6/6/2
f 7/7/2 5/5/2 2/8/2
f 8/9/1 9/10/1 10/11/1
f 11/12/3 12/13/3 13/14/3
f 13/14/3 14/15/3 9/10/3
f 6/6/4 11/16/4 4/4/4
f 11/12/1 13/14/1 8/9/1
f 8/9/1 15/17/1 11/12/1
f 11/12/1 15/17/1 4/18/1
f 2/2/1 4/18/1 3/3/1
f 15/17/1 3/3/1 4/18/1
f 1/1/1 7/19/1 2/2/1
f 4/4/2 2/8/2 5/5/2
f 7/7/2 16/20/2 5/5/2
f 8/9/1 13/14/1 9/10/1
f 11/12/3 6/21/3 12/13/3
f 13/14/3 12/13/3 14/15/3
