# Blender v2.82 (sub 7) OBJ File: 'speedStuff.blend'
# www.blender.org
o Door_Single_Door_Cube.016
v -0.875369 4.200000 -0.187499
v 0.875369 4.200000 0.187501
v 0.875369 4.200000 -0.187499
v 1.250000 3.825369 -0.187499
v 1.250000 -0.000000 0.187500
v 1.250000 0.000000 -0.187500
v -1.250000 3.825369 0.187501
v -1.250000 0.000000 -0.187500
v -1.250000 -0.000000 0.187500
v -1.250000 3.825369 -0.187499
v -0.875369 4.200000 0.187501
v 1.250000 3.825369 0.187501
vt 0.291579 0.455357
vt 0.708421 0.544643
vt 0.708421 0.455357
vt 0.746481 0.455357
vt -0.164321 0.544643
vt -0.164321 0.455357
vt 0.746481 0.544643
vt -0.164321 0.455357
vt -0.164321 0.544643
vt 0.797619 0.455357
vt 0.202381 0.544643
vt 0.202381 0.455357
vt 0.797619 0.746481
vt 0.797619 -0.164321
vt 0.202381 0.746481
vt 0.202381 0.544643
vt 0.291579 0.544643
vt 0.797619 0.455357
vt 0.202381 0.746481
vt 0.202381 -0.164321
vt 0.797619 0.746481
vt 0.746481 0.544643
vt 0.746481 0.455357
vt 0.797619 0.544643
vt 0.202381 -0.164321
vt 0.291579 0.835679
vt 0.708421 0.835679
vt 0.202381 0.455357
vt 0.797619 0.544643
vt 0.797619 -0.164321
vt 0.708421 0.835679
vt 0.291579 0.835679
vn 0.0000 1.0000 0.0000
vn 1.0000 0.0000 0.0000
vn -1.0000 -0.0000 0.0000
vn 0.0000 -1.0000 -0.0000
vn 0.0000 0.0000 -1.0000
vn -0.7071 0.7071 0.0000
vn 0.7071 0.7071 0.0000
vn 0.0000 -0.0000 1.0000
s 1
f 1/1/1 2/2/1 3/3/1
f 4/4/2 5/5/2 6/6/2
f 7/7/3 8/8/3 9/9/3
f 6/10/4 9/11/4 8/12/4
f 4/13/5 6/14/5 10/15/5
f 1/1/6 7/16/6 11/17/6
f 2/2/7 4/18/7 3/3/7
f 7/19/8 9/20/8 12/21/8
f 1/1/1 11/17/1 2/2/1
f 4/4/2 12/22/2 5/5/2
f 7/7/3 10/23/3 8/8/3
f 6/10/4 5/24/4 9/11/4
f 6/14/5 8/25/5 10/15/5
f 10/15/5 1/26/5 3/27/5
f 3/27/5 4/13/5 10/15/5
f 1/1/6 10/28/6 7/16/6
f 2/2/7 12/29/7 4/18/7
f 9/20/8 5/30/8 12/21/8
f 12/21/8 2/31/8 11/32/8
f 11/32/8 7/19/8 12/21/8
