# Blender v2.82 (sub 7) OBJ File: 'speedStuff.blend'
# www.blender.org
o Cabinet_Wall_Small_Cube.029
v -1.000000 4.000000 1.000001
v -1.000000 2.000000 0.500000
v -1.000000 2.000000 1.000000
v 1.000000 4.000000 0.500001
v 1.000000 2.000000 1.000000
v 1.000000 2.000000 0.500000
v 0.950000 2.050000 1.000000
v -0.950000 2.050000 0.563408
v -0.950000 2.050000 1.000000
v -1.000000 4.000000 0.500001
v 1.000000 4.000000 1.000001
v -0.950000 3.950000 1.000001
v 0.950000 3.950000 1.000001
v 0.950000 3.950000 0.563409
v 0.950000 2.050000 0.563408
v -0.950000 3.950000 0.563409
v 0.973753 3.025000 0.925000
v -0.973753 2.975000 0.925000
v 0.973753 2.975000 0.925000
v 0.973753 2.975000 0.525000
v -0.973753 2.975000 0.525000
v -0.973753 3.025000 0.525000
v 0.973753 3.025000 0.525000
v -1.000000 1.500000 0.500000
v -0.930000 1.500000 0.500000
v -0.930000 2.000000 0.500000
v -0.930000 2.000000 1.000000
v 0.930000 1.500000 0.500000
v 0.930000 2.000000 1.000000
v 0.930000 2.000000 0.500000
v 1.000000 1.500000 0.500000
v -0.973753 3.025000 0.925000
vt 0.996667 0.582029
vt 0.196667 0.382029
vt 0.196667 0.582029
vt 0.996667 0.382029
vt 0.196667 0.582029
vt 0.196667 0.382029
vt 0.880000 0.582029
vt 0.120000 0.407392
vt 0.120000 0.582029
vt 0.900000 0.382029
vt 0.100000 0.582029
vt 0.100000 0.382029
vt 0.100000 0.382029
vt 0.900000 0.582029
vt 0.900000 0.382029
vt 0.120000 0.976667
vt 0.100000 0.196667
vt 0.120000 0.216667
vt 0.880000 0.216667
vt 0.900000 0.996667
vt 0.880000 0.976667
vt 0.900000 0.196667
vt 0.100000 0.996667
vt 0.880000 0.976667
vt 0.120000 0.216667
vt 0.880000 0.216667
vt 0.216667 0.582029
vt 0.976667 0.407392
vt 0.976667 0.582029
vt 0.120000 0.582029
vt 0.880000 0.407392
vt 0.880000 0.582029
vt 0.976667 0.582029
vt 0.216667 0.407392
vt 0.216667 0.582029
vt 0.889501 0.606667
vt 0.110499 0.586667
vt 0.889501 0.586667
vt 0.889501 0.392029
vt 0.110499 0.552029
vt 0.110499 0.392029
vt 0.110499 0.392029
vt 0.889501 0.552029
vt 0.889501 0.392029
vt -0.003333 0.382029
vt -0.003333 0.382029
vt 0.196667 0.382029
vt 0.196667 0.582029
vt 0.128000 0.196667
vt 0.100000 -0.003333
vt 0.128000 -0.003333
vt -0.003333 0.382029
vt 0.196667 0.582029
vt 0.196667 0.382029
vt -0.003333 0.382029
vt 0.872000 -0.003333
vt 0.900000 -0.003333
vt 0.996667 0.382029
vt 0.996667 0.582029
vt 0.880000 0.407392
vt 0.900000 0.582029
vt 0.100000 0.582029
vt 0.120000 0.976667
vt 0.216667 0.407392
vt 0.120000 0.407392
vt 0.976667 0.407392
vt 0.110499 0.606667
vt 0.889501 0.552029
vt 0.110499 0.552029
vt 0.872000 0.196667
vn -1.0000 0.0000 0.0000
vn 1.0000 0.0000 0.0000
vn 0.0000 1.0000 0.0000
vn 0.0000 -1.0000 0.0000
vn -0.0000 -0.0000 1.0000
vn 0.0000 -0.7071 0.7071
s 1
f 1/1/1 2/2/1 3/3/1
f 4/4/2 5/5/2 6/6/2
f 7/7/3 8/8/3 9/9/3
f 6/10/4 3/11/4 2/12/4
f 10/13/3 11/14/3 4/15/3
f 12/16/5 3/17/5 9/18/5
f 7/19/5 11/20/5 13/21/5
f 9/18/5 5/22/5 7/19/5
f 13/21/5 1/23/5 12/16/5
f 14/24/5 8/25/5 15/26/5
f 9/27/2 16/28/2 12/29/2
f 12/30/4 14/31/4 13/32/4
f 13/33/1 15/34/1 7/35/1
f 17/36/5 18/37/5 19/38/5
f 20/39/4 18/40/4 21/41/4
f 22/42/3 17/43/3 23/44/3
f 24/45/1 3/3/1 2/2/1
f 25/46/2 26/47/2 27/48/2
f 27/49/6 24/50/6 25/51/6
f 28/52/1 29/53/1 30/54/1
f 31/55/2 6/6/2 5/5/2
f 5/22/6 28/56/6 31/57/6
f 1/1/1 10/58/1 2/2/1
f 4/4/2 11/59/2 5/5/2
f 7/7/3 15/60/3 8/8/3
f 6/10/4 5/61/4 3/11/4
f 10/13/3 1/62/3 11/14/3
f 12/16/5 1/23/5 3/17/5
f 7/19/5 5/22/5 11/20/5
f 9/18/5 3/17/5 5/22/5
f 13/21/5 11/20/5 1/23/5
f 14/24/5 16/63/5 8/25/5
f 9/27/2 8/64/2 16/28/2
f 12/30/4 16/65/4 14/31/4
f 13/33/1 14/66/1 15/34/1
f 17/36/5 32/67/5 18/37/5
f 20/39/4 19/68/4 18/40/4
f 22/42/3 32/69/3 17/43/3
f 27/49/6 3/17/6 24/50/6
f 5/22/6 29/70/6 28/56/6
