# Blender v2.82 (sub 7) OBJ File: 'speedStuff.blend'
# www.blender.org
o Desk_Small_Cube.034
v -0.950000 1.793059 2.000000
v 0.950000 1.793059 2.000000
v 1.000000 1.793059 1.950000
v 1.000000 1.793059 -1.950000
v 1.000000 1.703702 1.950000
v 1.000000 1.703702 -1.950000
v -1.000000 1.703702 1.950000
v -1.000000 1.703702 -1.950000
v -0.924805 1.703702 1.924805
v -1.000000 1.793059 1.950000
v 0.924805 1.703702 -1.924805
v -0.924805 1.703702 -1.924805
v -0.950000 1.793059 -2.000000
v 0.950000 1.703702 -2.000000
v -0.950000 1.703702 -2.000000
v 0.950000 1.703702 2.000000
v -0.950000 1.703702 2.000000
v 0.924805 1.703702 1.924805
v -0.924805 1.703702 -1.774805
v -0.924805 0.000000 -1.924805
v -0.924805 0.000000 -1.774805
v -0.774805 0.000000 -1.924805
v -0.774805 1.703702 -1.924805
v -0.774805 0.000000 -1.774805
v -0.774805 1.703702 -1.774805
v -0.924805 -0.000000 1.774805
v -0.924805 -0.000000 1.924805
v -0.924805 1.703702 1.774805
v -0.774805 -0.000000 1.774805
v -0.774805 1.703702 1.774805
v -0.774805 -0.000000 1.924805
v -0.774805 1.703702 1.924805
v 0.774805 1.703702 1.924805
v 0.774805 -0.000000 1.774805
v 0.774805 -0.000000 1.924805
v 0.774805 1.703702 1.774805
v 0.924805 -0.000000 1.774805
v 0.924805 1.703702 1.774805
v 0.924805 -0.000000 1.924805
v 0.774805 1.703702 -1.774805
v 0.774805 0.000000 -1.924805
v 0.774805 0.000000 -1.774805
v 0.774805 1.703702 -1.924805
v 0.924805 0.000000 -1.924805
v 0.924805 0.000000 -1.774805
v 0.924805 1.703702 -1.774805
v -0.964645 1.703702 -1.964645
v -0.964645 1.703702 1.964645
v 0.964645 1.703702 -1.964645
v 0.964645 1.703702 1.964645
v -1.000000 1.793059 -1.950000
v 0.950000 1.793059 -2.000000
vt 0.262500 1.000000
vt 0.737500 1.000000
vt 0.750000 0.987500
vt 0.616940 0.012500
vt 0.583510 0.987500
vt 0.583510 0.012500
vt 0.250000 0.987500
vt 0.250000 0.012500
vt 0.268799 0.981201
vt 0.616940 0.987500
vt 0.583510 0.012500
vt 0.583510 0.987500
vt 0.731201 0.018799
vt 0.268799 0.018799
vt 0.262500 0.616940
vt 0.737500 0.583510
vt 0.262500 0.583510
vt 0.262500 0.000000
vt 0.737500 0.000000
vt 0.737500 1.000000
vt 0.262500 1.000000
vt 0.731201 0.981201
vt 0.750000 0.012500
vt 0.750000 0.987500
vt 0.304985 0.943359
vt 0.731672 0.981445
vt 0.731672 0.943359
vt 0.620235 0.416016
vt 0.582111 0.842773
vt 0.620235 0.842773
vt 0.304985 0.981445
vt 0.731672 0.943359
vt 0.731672 0.981445
vt 0.582111 0.416016
vt 0.620235 0.842773
vt 0.582111 0.842773
vt 0.304985 0.018555
vt 0.731672 0.056641
vt 0.731672 0.018555
vt 0.620235 0.416016
vt 0.582111 0.842773
vt 0.620235 0.842773
vt 0.304985 0.056641
vt 0.731672 0.018555
vt 0.731672 0.056641
vt 0.582111 0.416016
vt 0.620235 0.842773
vt 0.582111 0.842773
vt 0.304985 0.018555
vt 0.731672 0.056641
vt 0.731672 0.018555
vt 0.195015 0.416016
vt 0.156891 0.842773
vt 0.195015 0.842773
vt 0.304985 0.056641
vt 0.731672 0.018555
vt 0.731672 0.056641
vt 0.156891 0.416016
vt 0.195015 0.842773
vt 0.156891 0.842773
vt 0.304985 0.943359
vt 0.731672 0.981445
vt 0.731672 0.943359
vt 0.195015 0.416016
vt 0.156891 0.842773
vt 0.195015 0.842773
vt 0.304985 0.981445
vt 0.731672 0.943359
vt 0.731672 0.981445
vt 0.156891 0.416016
vt 0.195015 0.842773
vt 0.156891 0.842773
vt 0.258839 0.008839
vt 0.258839 0.991161
vt 0.741161 0.008839
vt 0.741161 0.991161
vt 0.262500 0.616940
vt 0.250000 0.583510
vt 0.262500 0.583510
vt 0.250000 0.616940
vt 0.750000 0.583510
vt 0.737500 0.616940
vt 0.750000 0.616940
vt 0.737500 0.583510
vt 0.750000 0.616940
vt 0.737500 0.616940
vt 0.750000 0.012500
vt 0.250000 0.012500
vt 0.737500 0.000000
vt 0.262500 0.000000
vt 0.250000 0.987500
vt 0.616940 0.987500
vt 0.616940 0.012500
vt 0.304985 0.981445
vt 0.582111 0.416016
vt 0.304985 0.943359
vt 0.620235 0.416016
vt 0.304985 0.056641
vt 0.582111 0.416016
vt 0.304985 0.018555
vt 0.620235 0.416016
vt 0.304985 0.056641
vt 0.156891 0.416016
vt 0.304985 0.018555
vt 0.195015 0.416016
vt 0.304985 0.981445
vt 0.156891 0.416016
vt 0.304985 0.943359
vt 0.195015 0.416016
vt 0.250000 0.616940
vt 0.250000 0.583510
vt 0.750000 0.583510
vn 0.0000 1.0000 -0.0000
vn 1.0000 0.0000 0.0000
vn -0.0000 -1.0000 -0.0000
vn -1.0000 0.0000 0.0000
vn 0.0000 0.0000 -1.0000
vn 0.0000 -0.0000 1.0000
vn -0.7071 0.0000 0.7071
vn -0.7071 0.0000 -0.7071
vn 0.7071 0.0000 -0.7071
vn 0.7071 0.0000 0.7071
s 1
f 1/1/1 2/2/1 3/3/1
f 4/4/2 5/5/2 6/6/2
f 7/7/3 8/8/3 9/9/3
f 10/10/4 8/11/4 7/12/4
f 11/13/3 9/9/3 12/14/3
f 13/15/5 14/16/5 15/17/5
f 15/18/3 14/19/3 12/14/3
f 16/20/3 17/21/3 18/22/3
f 6/23/3 5/24/3 11/13/3
f 19/25/4 20/26/4 21/27/4
f 12/28/5 22/29/5 20/30/5
f 23/31/2 24/32/2 22/33/2
f 25/34/6 21/35/6 24/36/6
f 9/37/4 26/38/4 27/39/4
f 28/40/5 29/41/5 26/42/5
f 30/43/2 31/44/2 29/45/2
f 32/46/6 27/47/6 31/48/6
f 33/49/4 34/50/4 35/51/4
f 36/52/5 37/53/5 34/54/5
f 38/55/2 39/56/2 37/57/2
f 18/58/6 35/59/6 39/60/6
f 40/61/4 41/62/4 42/63/4
f 43/64/5 44/65/5 41/66/5
f 11/67/2 45/68/2 44/69/2
f 46/70/6 42/71/6 45/72/6
f 8/8/3 15/18/3 47/73/3
f 17/21/3 7/7/3 48/74/3
f 14/19/3 6/23/3 49/75/3
f 5/24/3 16/20/3 50/76/3
f 1/77/7 7/78/7 17/79/7
f 15/17/8 51/80/8 13/15/8
f 6/81/9 52/82/9 4/83/9
f 16/84/10 3/85/10 2/86/10
f 2/86/6 17/79/6 16/84/6
f 3/3/1 4/87/1 51/88/1
f 4/87/1 52/89/1 51/88/1
f 52/89/1 13/90/1 51/88/1
f 51/88/1 10/91/1 3/3/1
f 10/91/1 1/1/1 3/3/1
f 4/4/2 3/92/2 5/5/2
f 47/73/3 12/14/3 8/8/3
f 12/14/3 9/9/3 8/8/3
f 9/9/3 48/74/3 7/7/3
f 10/10/4 51/93/4 8/11/4
f 11/13/3 18/22/3 9/9/3
f 13/15/5 52/82/5 14/16/5
f 49/75/3 11/13/3 14/19/3
f 11/13/3 12/14/3 14/19/3
f 12/14/3 47/73/3 15/18/3
f 48/74/3 9/9/3 17/21/3
f 9/9/3 18/22/3 17/21/3
f 18/22/3 50/76/3 16/20/3
f 50/76/3 18/22/3 5/24/3
f 18/22/3 11/13/3 5/24/3
f 11/13/3 49/75/3 6/23/3
f 19/25/4 12/94/4 20/26/4
f 12/28/5 23/95/5 22/29/5
f 23/31/2 25/96/2 24/32/2
f 25/34/6 19/97/6 21/35/6
f 9/37/4 28/98/4 26/38/4
f 28/40/5 30/99/5 29/41/5
f 30/43/2 32/100/2 31/44/2
f 32/46/6 9/101/6 27/47/6
f 33/49/4 36/102/4 34/50/4
f 36/52/5 38/103/5 37/53/5
f 38/55/2 18/104/2 39/56/2
f 18/58/6 33/105/6 35/59/6
f 40/61/4 43/106/4 41/62/4
f 43/64/5 11/107/5 44/65/5
f 11/67/2 46/108/2 45/68/2
f 46/70/6 40/109/6 42/71/6
f 1/77/7 10/110/7 7/78/7
f 15/17/8 8/111/8 51/80/8
f 6/81/9 14/16/9 52/82/9
f 16/84/10 5/112/10 3/85/10
f 2/86/6 1/77/6 17/79/6
