# Blender v2.82 (sub 7) OBJ File: 'speedStuff.blend'
# www.blender.org
o Wall_Corner_Outer_Angled_Cube.009
v 0.500000 -0.000000 0.500000
v 1.000000 -0.000000 0.500000
v 0.500000 -0.000000 1.000000
v 0.000000 5.000000 0.500001
v 0.500000 5.000000 1.000001
v 0.500000 5.000000 0.500001
v 0.000000 -0.000000 1.000000
v 0.000000 -0.000000 0.500000
v 1.000000 5.000000 0.500001
v 0.500000 0.000000 0.000000
v 0.000000 0.000000 0.000000
v 0.500000 5.000000 0.000001
v 1.000000 5.000000 0.000001
v 0.000000 5.000000 0.000001
v 1.000000 0.000000 0.000000
v 0.000000 5.000000 1.000001
vt 0.502083 0.502083
vt 0.602083 0.502083
vt 0.502083 0.602083
vt 0.402083 0.502083
vt 0.502083 0.602083
vt 0.502083 0.502083
vt 0.402083 0.602083
vt 0.402083 0.502083
vt 0.602083 0.502083
vt 0.502083 0.402083
vt 0.402083 0.402083
vt 0.502083 0.402083
vt 0.602083 0.402083
vt 0.402083 0.402083
vt 0.602083 0.402083
vt 0.502083 -0.000000
vt 0.602083 1.000000
vt 0.502083 1.000000
vt 0.402083 0.602083
vt 0.602083 -0.000000
vn 0.0000 -1.0000 -0.0000
vn 0.0000 1.0000 0.0000
vn 0.7071 -0.0000 0.7071
s 1
f 1/1/1 2/2/1 3/3/1
f 4/4/2 5/5/2 6/6/2
f 1/1/1 7/7/1 8/8/1
f 5/5/2 9/9/2 6/6/2
f 10/10/1 8/8/1 11/11/1
f 12/12/2 9/9/2 13/13/2
f 14/14/2 6/6/2 12/12/2
f 15/15/1 1/1/1 10/10/1
f 3/16/3 9/17/3 5/18/3
f 4/4/2 16/19/2 5/5/2
f 1/1/1 3/3/1 7/7/1
f 10/10/1 1/1/1 8/8/1
f 12/12/2 6/6/2 9/9/2
f 14/14/2 4/4/2 6/6/2
f 15/15/1 2/2/1 1/1/1
f 3/16/3 2/20/3 9/17/3
