# Blender v2.82 (sub 7) OBJ File: 'speedStuff.blend'
# www.blender.org
o Wall_Single_Plain_Cube.005
v 2.000000 5.000000 0.500001
v -2.000000 -0.000000 0.500000
v 2.000000 -0.000000 0.500000
v 2.000000 0.000000 0.000000
v -2.000000 0.000000 0.000000
v -2.000000 5.000000 0.000001
v 2.000000 5.000000 0.000001
v -2.000000 5.000000 0.500001
vt 1.000000 1.000000
vt -0.000000 0.000000
vt 1.000000 0.000000
vt 1.000000 0.433594
vt -0.000000 0.533203
vt -0.000000 0.433594
vt -0.000000 0.433594
vt 1.000000 0.533203
vt 1.000000 0.433594
vt -0.000000 1.000000
vt 1.000000 0.533203
vt -0.000000 0.533203
vn 0.0000 -0.0000 1.0000
vn 0.0000 -1.0000 -0.0000
vn 0.0000 1.0000 0.0000
s 1
f 1/1/1 2/2/1 3/3/1
f 4/4/2 2/5/2 5/6/2
f 6/7/3 1/8/3 7/9/3
f 1/1/1 8/10/1 2/2/1
f 4/4/2 3/11/2 2/5/2
f 6/7/3 8/12/3 1/8/3
