# Blender v2.82 (sub 7) OBJ File: 'speedStuff.blend'
# www.blender.org
o Wall_Triple_Plain_Cube.024
v 2.000000 5.000000 0.500001
v -2.000000 -0.000000 0.500000
v 2.000000 -0.000000 0.500000
v 2.000000 0.000000 0.000000
v -2.000000 0.000000 0.000000
v -2.000000 5.000000 0.000001
v 2.000000 5.000000 0.000001
v 6.000000 5.000000 0.500001
v 6.000000 -0.000000 0.500000
v 6.000000 0.000000 0.000000
v 6.000000 5.000000 0.000001
v -2.000000 5.000000 0.500001
v -6.000000 -0.000000 0.500000
v -6.000000 0.000000 0.000000
v -6.000000 5.000000 0.000001
v -6.000000 5.000000 0.500001
vt 1.000000 1.000000
vt 0.000000 0.000000
vt 1.000000 0.000000
vt 1.000000 0.416992
vt 0.000000 0.541992
vt 0.000000 0.416992
vt 0.000000 0.416992
vt 1.000000 0.541992
vt 1.000000 0.416992
vt 2.000000 1.000000
vt 2.000000 0.000000
vt 2.000000 0.416992
vt 1.000000 0.541992
vt 2.000000 0.541992
vt 2.000000 0.416992
vt 0.000000 1.000000
vt -1.000000 0.000000
vt -1.000000 0.541992
vt -1.000000 0.416992
vt -1.000000 0.416992
vt 0.000000 0.541992
vt 2.000000 0.541992
vt -1.000000 1.000000
vt -1.000000 0.541992
vn 0.0000 -0.0000 1.0000
vn 0.0000 -1.0000 -0.0000
vn 0.0000 1.0000 0.0000
s 1
f 1/1/1 2/2/1 3/3/1
f 4/4/2 2/5/2 5/6/2
f 6/7/3 1/8/3 7/9/3
f 8/10/1 3/3/1 9/11/1
f 10/12/2 3/13/2 4/4/2
f 7/9/3 8/14/3 11/15/3
f 12/16/1 13/17/1 2/2/1
f 5/6/2 13/18/2 14/19/2
f 15/20/3 12/21/3 6/7/3
f 1/1/1 12/16/1 2/2/1
f 4/4/2 3/13/2 2/5/2
f 6/7/3 12/21/3 1/8/3
f 8/10/1 1/1/1 3/3/1
f 10/12/2 9/22/2 3/13/2
f 7/9/3 1/8/3 8/14/3
f 12/16/1 16/23/1 13/17/1
f 5/6/2 2/5/2 13/18/2
f 15/20/3 16/24/3 12/21/3
