# Blender v2.82 (sub 7) OBJ File: 'speedStuff.blend'
# www.blender.org
o Rock_Icosphere.001
v -0.005952 -0.992433 0.000000
v 0.682048 -0.331007 0.404198
v -0.258044 -0.420257 0.551495
v -0.737236 -0.251073 0.000000
v -0.272973 -0.441978 -0.601919
v 0.593342 -0.277720 -0.363443
v 0.269647 0.321972 0.582303
v -0.738758 0.410043 0.395287
v -0.676172 0.413840 -0.335629
v 0.290361 0.474123 -0.668823
v 0.967544 0.498505 0.002847
v 0.003253 0.573601 -0.022864
v -0.154371 -0.817562 0.341006
v 0.308825 -0.685747 0.206050
v 0.269720 -0.536134 0.609850
v 0.573540 -0.177284 0.000000
v 0.388436 -0.778863 -0.240789
v -0.459666 -0.736805 0.000000
v -0.622360 -0.427426 0.339982
v -0.171000 -0.902557 -0.399161
v -0.696754 -0.477854 -0.392519
v 0.300439 -0.582915 -0.684878
v 0.862129 0.122738 0.219030
v 0.883061 0.119468 -0.226052
v 0.000002 0.000023 0.720430
v 0.560998 0.008649 0.548903
v -0.844222 0.081377 0.196728
v -0.550865 0.006324 0.525054
v -0.539155 0.008175 -0.506051
v -0.941612 0.078258 -0.232746
v 0.599766 0.004997 -0.606462
v -0.000005 0.000008 -0.713458
v 0.677343 0.440519 0.347132
v -0.254445 0.392136 0.537951
v -0.882540 0.531496 0.002617
v -0.267125 0.536539 -0.598745
v 0.636695 0.480078 -0.312567
v 0.165293 0.586546 0.392679
v 0.520540 0.725672 -0.002677
v -0.431857 0.636808 0.235799
v -0.413452 0.678176 -0.215757
v 0.161639 0.731653 -0.355347
vt 0.071289 1.100586
vt 0.148438 0.938477
vt 0.196289 1.103516
vt 0.203125 0.749023
vt 0.071289 0.722656
vt 1.007812 1.123047
vt 0.883789 1.048828
vt 1.014648 0.945312
vt 1.130859 1.041016
vt -0.053711 1.103516
vt -0.005859 0.938477
vt 0.148438 0.573242
vt 0.549805 0.351562
vt 0.520508 0.153320
vt 0.704102 0.253906
vt 1.005859 0.726562
vt 0.883789 0.816406
vt 0.918945 0.599609
vt 0.280273 0.345703
vt 0.208984 0.480469
vt 0.092773 0.369141
vt -0.059570 0.749023
vt -0.130859 0.906250
vt -0.130859 0.680664
vt 0.273438 0.680664
vt 0.708008 0.458984
vt 1.072266 0.594727
vt 0.193359 0.170898
vt -0.005859 0.573242
vt 0.425781 0.659180
vt 0.549805 0.530273
vt 0.521484 0.720703
vt 0.433594 1.042969
vt 0.407227 0.857422
vt 0.531250 0.946289
vt 0.677734 1.111328
vt 0.556641 1.121094
vt 0.685547 0.985352
vt 0.093750 0.006836
vt -0.015625 0.170898
vt -0.027344 0.003906
vt 0.678711 0.490234
vt 0.785156 0.594727
vt 0.688477 0.618164
vt 0.774414 0.783203
vt 0.638672 0.811523
vt 0.121094 -0.130859
vt 0.785156 0.960938
vt -0.075195 0.345703
vt -0.120117 0.207031
vt -0.053711 0.515625
vt 0.071289 0.480469
vt 0.266602 -0.113281
vt 0.275391 -0.015625
vt -0.000000 0.480469
vt -0.130859 0.393555
vt 0.977539 0.490234
vt 0.427734 1.130859
vt 0.851562 0.335938
vt 0.840820 0.490234
vt 0.819336 0.140625
vt 0.701172 0.028320
vt 0.851562 -0.030273
vt 0.734375 -0.105469
vt 0.847656 -0.130859
vt 0.384766 0.184570
vt 1.130859 0.808594
vt 0.788086 0.703125
vt 0.847656 0.554688
vt 0.785156 0.908203
vt 0.592773 0.000977
vt 0.407227 0.389648
vt 0.407227 0.293945
vt 0.273438 0.906250
vn 0.0728 -0.9863 0.1476
vn 0.6298 -0.7302 0.2648
vn -0.1890 -0.7986 0.5714
vn 0.8311 -0.4708 0.2958
vn 0.8354 -0.5474 -0.0487
vn -0.6659 -0.7362 0.1208
vn -0.2277 -0.8426 -0.4880
vn 0.7013 -0.7046 -0.1080
vn 0.9117 -0.2160 0.3493
vn -0.3278 -0.3638 0.8719
vn 0.2739 -0.5454 0.7921
vn -0.0458 0.0586 0.9972
vn -0.8896 -0.4335 0.1439
vn -0.7399 -0.4567 0.4939
vn -0.9075 -0.1624 0.3874
vn -0.3207 -0.2401 -0.9162
vn -0.7654 -0.4431 -0.4667
vn -0.4766 0.0379 -0.8783
vn 0.8781 -0.4462 -0.1726
vn 0.3557 -0.4613 -0.8128
vn 0.6280 -0.0405 -0.7771
vn 0.5194 0.0553 0.8527
vn -0.5187 -0.0560 0.8531
vn -0.9376 -0.0457 -0.3447
vn -0.1087 0.0092 -0.9940
vn 0.9174 -0.2172 -0.3334
vn 0.2033 0.4230 0.8830
vn 0.5147 0.5045 0.6931
vn 0.0399 0.8530 0.5204
vn -0.6131 0.3907 0.6867
vn -0.1705 0.4978 0.8503
vn -0.1287 0.9278 0.3502
vn -0.5877 0.4444 -0.6761
vn -0.7898 0.6133 -0.0100
vn -0.2337 0.9568 -0.1726
vn 0.2742 0.4684 -0.8399
vn -0.3156 0.5322 -0.7856
vn 0.0717 0.9723 -0.2225
vn 0.8775 0.4794 -0.0046
vn 0.5770 0.5726 -0.5823
vn 0.2360 0.9701 0.0571
vn -0.0457 0.9822 0.1819
s 1
f 1/1/1 14/2/2 13/3/3
f 2/4/4 14/2/2 16/5/5
f 1/6/1 13/7/3 18/8/6
f 1/6/1 18/8/6 20/9/7
f 1/1/1 20/10/7 17/11/8
f 2/4/4 16/5/5 23/12/9
f 3/13/10 15/14/11 25/15/12
f 4/16/13 19/17/14 27/18/15
f 5/19/16 21/20/17 29/21/18
f 6/22/19 22/23/20 31/24/21
f 2/4/4 23/12/9 26/25/22
f 3/13/10 25/15/12 28/26/23
f 4/16/13 27/18/15 30/27/24
f 5/19/16 29/21/18 32/28/25
f 6/22/19 31/24/21 24/29/26
f 7/30/27 33/31/28 38/32/29
f 8/33/30 34/34/31 40/35/32
f 9/36/33 35/37/34 41/38/35
f 10/39/36 36/40/37 42/41/38
f 11/42/39 37/43/40 39/44/41
f 39/44/41 42/45/38 12/46/42
f 39/44/41 37/43/40 42/45/38
f 37/47/40 10/39/36 42/41/38
f 42/45/38 41/38/35 12/46/42
f 42/45/38 36/48/37 41/38/35
f 36/40/37 9/49/33 41/50/35
f 41/38/35 40/35/32 12/46/42
f 41/38/35 35/37/34 40/35/32
f 35/37/34 8/33/30 40/35/32
f 40/35/32 38/32/29 12/46/42
f 40/35/32 34/34/31 38/32/29
f 34/34/31 7/30/27 38/32/29
f 38/32/29 39/44/41 12/46/42
f 38/32/29 33/31/28 39/44/41
f 33/31/28 11/42/39 39/44/41
f 24/29/26 37/51/40 11/52/39
f 24/53/26 31/54/21 37/47/40
f 31/54/21 10/39/36 37/47/40
f 32/28/25 36/40/37 10/39/36
f 32/28/25 29/21/18 36/40/37
f 29/21/18 9/49/33 36/40/37
f 30/55/24 35/56/34 9/49/33
f 30/27/24 27/18/15 35/57/34
f 27/58/15 8/33/30 35/37/34
f 28/26/23 34/59/31 8/60/30
f 28/26/23 25/15/12 34/59/31
f 25/15/12 7/61/27 34/59/31
f 26/62/22 33/63/28 7/61/27
f 26/62/22 23/64/9 33/63/28
f 23/64/9 11/65/39 33/63/28
f 31/54/21 32/28/25 10/39/36
f 31/54/21 22/66/20 32/28/25
f 22/66/20 5/19/16 32/28/25
f 29/21/18 30/55/24 9/49/33
f 29/21/18 21/20/17 30/55/24
f 21/67/17 4/16/13 30/27/24
f 27/18/15 28/68/23 8/69/30
f 27/18/15 19/17/14 28/68/23
f 19/17/14 3/70/10 28/68/23
f 25/15/12 26/62/22 7/61/27
f 25/15/12 15/14/11 26/62/22
f 15/14/11 2/71/4 26/62/22
f 23/12/9 24/29/26 11/52/39
f 23/12/9 16/5/5 24/29/26
f 16/5/5 6/22/19 24/29/26
f 17/11/8 22/23/20 6/22/19
f 17/11/8 20/10/7 22/23/20
f 20/72/7 5/19/16 22/66/20
f 20/72/7 21/20/17 5/19/16
f 20/9/7 18/8/6 21/67/17
f 18/8/6 4/16/13 21/67/17
f 18/8/6 19/17/14 4/16/13
f 18/8/6 13/7/3 19/17/14
f 13/7/3 3/70/10 19/17/14
f 16/5/5 17/11/8 6/22/19
f 16/5/5 14/2/2 17/11/8
f 14/2/2 1/1/1 17/11/8
f 13/73/3 15/14/11 3/13/10
f 13/3/3 14/2/2 15/74/11
f 14/2/2 2/4/4 15/74/11
