# Blender v2.82 (sub 7) OBJ File: 'speedStuff.blend'
# www.blender.org
o Rock_Icosphere.001
v -0.005952 -0.992433 0.000000
v 0.682048 -0.331007 0.404198
v -0.258044 -0.420257 0.551495
v -0.737236 -0.251073 0.000000
v -0.272973 -0.441978 -0.601919
v 0.593342 -0.277720 -0.363443
v 0.269647 0.321972 0.582303
v -0.738758 0.410043 0.395287
v -0.676172 0.413840 -0.335629
v 0.290361 0.474123 -0.668823
v 0.967544 0.498505 0.002847
v 0.003253 0.573601 -0.022864
v -0.154371 -0.817562 0.341006
v 0.308825 -0.685747 0.206050
v 0.269720 -0.536134 0.609850
v 0.573540 -0.177284 0.000000
v 0.388436 -0.778863 -0.240789
v -0.459666 -0.736805 0.000000
v -0.622360 -0.427426 0.339982
v -0.171000 -0.902557 -0.399161
v -0.696754 -0.477854 -0.392519
v 0.300439 -0.582915 -0.684878
v 0.862129 0.122738 0.219030
v 0.883061 0.119468 -0.226052
v 0.000002 0.000023 0.720430
v 0.560998 0.008649 0.548903
v -0.844222 0.081377 0.196728
v -0.550865 0.006324 0.525054
v -0.539155 0.008175 -0.506051
v -0.941612 0.078258 -0.232746
v 0.599766 0.004997 -0.606462
v -0.000005 0.000008 -0.713458
v 0.677343 0.440519 0.347132
v -0.254445 0.392136 0.537951
v -0.882540 0.531496 0.002617
v -0.267125 0.536539 -0.598745
v 0.636695 0.480078 -0.312567
v 0.165293 0.586546 0.392679
v 0.520540 0.725672 -0.002677
v -0.431857 0.636808 0.235799
v -0.413452 0.678176 -0.215757
v 0.161639 0.731653 -0.355347
vt 0.248707 0.844099
vt 0.193936 0.680686
vt 0.324993 0.713788
vt 0.127333 0.543157
vt 0.047750 0.680684
vt 0.331147 0.911137
vt 0.203892 1.000000
vt 0.119092 0.857572
vt 0.017115 0.536898
vt 0.443639 0.442899
vt 0.404492 0.536898
vt 0.335396 0.370986
vt 0.661592 0.268450
vt 0.558994 0.370988
vt 0.558994 0.165910
vt 0.751450 0.153584
vt 0.881332 0.146536
vt 0.801977 0.319609
vt 0.108244 0.442900
vt 0.000001 0.370991
vt 0.095488 0.268450
vt 0.797299 0.997247
vt 0.714222 0.863745
vt 0.860317 0.856507
vt 0.430883 0.268448
vt 0.670791 0.102540
vt 0.671855 0.280037
vt 0.223598 0.370988
vt 0.910844 0.690482
vt 0.780962 0.683434
vt 0.862040 0.536898
vt 0.662294 0.844097
vt 0.604589 1.000000
vt 0.543201 0.857572
vt 0.534961 0.543157
vt 0.614544 0.680684
vt 0.468358 0.680686
vt 0.108243 0.093999
vt 0.069096 0.000000
vt 0.207286 0.000000
vt 0.326196 0.268448
vt 0.223598 0.165910
vt 0.335396 0.102538
vt 0.331147 0.911137
vt 0.337301 0.713789
vt 0.413586 0.844099
vt 0.408642 0.536899
vt 0.458402 1.000000
vt 0.991503 0.619404
vt 0.715946 0.544137
vt 0.662294 0.702798
vt 0.000000 0.165912
vt 0.738596 0.460349
vt 0.864995 0.460349
vt 0.645178 0.536898
vt 0.542681 0.000000
vt 0.443639 0.093998
vt 0.335396 0.165907
vt 0.990438 0.816935
vt 0.670791 0.082506
vt 0.948072 0.326848
vt 1.000000 0.165900
vt 0.923698 0.997247
vt 0.335396 0.434358
vt 0.207286 0.536898
vt 0.057705 1.000000
vt 0.000000 0.844097
vt 0.800254 0.000000
vt 0.946348 0.007240
vt 0.670791 0.434359
vt 0.542682 0.536898
vt 0.253651 0.536899
vn 0.0728 -0.9863 0.1476
vn 0.6298 -0.7302 0.2648
vn -0.1890 -0.7986 0.5714
vn 0.8311 -0.4708 0.2958
vn 0.8354 -0.5474 -0.0487
vn -0.6659 -0.7362 0.1208
vn -0.2277 -0.8426 -0.4880
vn 0.7013 -0.7046 -0.1080
vn 0.9117 -0.2160 0.3493
vn -0.3278 -0.3638 0.8719
vn 0.2739 -0.5454 0.7921
vn -0.0458 0.0586 0.9972
vn -0.8896 -0.4335 0.1439
vn -0.7399 -0.4567 0.4939
vn -0.9075 -0.1624 0.3874
vn -0.3207 -0.2401 -0.9162
vn -0.7654 -0.4431 -0.4667
vn -0.4766 0.0379 -0.8783
vn 0.8781 -0.4462 -0.1726
vn 0.3557 -0.4613 -0.8128
vn 0.6280 -0.0405 -0.7771
vn 0.5194 0.0553 0.8527
vn -0.5187 -0.0560 0.8531
vn -0.9376 -0.0457 -0.3447
vn -0.1087 0.0092 -0.9940
vn 0.9174 -0.2172 -0.3334
vn 0.2033 0.4230 0.8830
vn 0.5147 0.5045 0.6931
vn 0.0399 0.8530 0.5204
vn -0.6131 0.3907 0.6867
vn -0.1705 0.4978 0.8503
vn -0.1287 0.9278 0.3502
vn -0.5877 0.4444 -0.6761
vn -0.7898 0.6133 -0.0100
vn -0.2337 0.9568 -0.1726
vn 0.2742 0.4684 -0.8399
vn -0.3156 0.5322 -0.7856
vn 0.0717 0.9723 -0.2225
vn 0.8775 0.4794 -0.0046
vn 0.5770 0.5726 -0.5823
vn 0.2360 0.9701 0.0571
vn -0.0457 0.9822 0.1819
s 1
f 1/1/1 14/2/2 13/3/3
f 2/4/4 14/2/2 16/5/5
f 1/1/1 13/3/3 18/6/6
f 1/1/1 18/6/6 20/7/7
f 1/1/1 20/7/7 17/8/8
f 2/4/4 16/5/5 23/9/9
f 3/10/10 15/11/11 25/12/12
f 4/13/13 19/14/14 27/15/15
f 5/16/16 21/17/17 29/18/18
f 6/19/19 22/20/20 31/21/21
f 2/22/4 23/23/9 26/24/22
f 3/10/10 25/12/12 28/25/23
f 4/13/13 27/15/15 30/26/24
f 5/16/16 29/18/18 32/27/25
f 6/19/19 31/21/21 24/28/26
f 7/29/27 33/30/28 38/31/29
f 8/32/30 34/33/31 40/34/32
f 9/35/33 35/36/34 41/37/35
f 10/38/36 36/39/37 42/40/38
f 11/41/39 37/42/40 39/43/41
f 39/44/41 42/45/38 12/46/42
f 39/43/41 37/42/40 42/40/38
f 37/42/40 10/38/36 42/40/38
f 42/45/38 41/37/35 12/46/42
f 42/45/38 36/47/37 41/37/35
f 36/47/37 9/35/33 41/37/35
f 41/37/35 40/34/32 12/46/42
f 41/37/35 35/36/34 40/34/32
f 35/36/34 8/32/30 40/34/32
f 40/34/32 38/48/29 12/46/42
f 40/34/32 34/33/31 38/48/29
f 34/49/31 7/29/27 38/31/29
f 38/48/29 39/44/41 12/46/42
f 38/31/29 33/30/28 39/50/41
f 33/30/28 11/51/39 39/50/41
f 24/28/26 37/42/40 11/41/39
f 24/28/26 31/21/21 37/42/40
f 31/21/21 10/38/36 37/42/40
f 32/52/25 36/39/37 10/38/36
f 32/27/25 29/18/18 36/53/37
f 29/18/18 9/54/33 36/53/37
f 30/55/24 35/36/34 9/35/33
f 30/26/24 27/15/15 35/56/34
f 27/15/15 8/57/30 35/56/34
f 28/25/23 34/58/31 8/57/30
f 28/25/23 25/12/12 34/58/31
f 25/59/12 7/29/27 34/49/31
f 26/24/22 33/30/28 7/29/27
f 26/24/22 23/23/9 33/30/28
f 23/23/9 11/51/39 33/30/28
f 31/21/21 32/52/25 10/38/36
f 31/21/21 22/20/20 32/52/25
f 22/60/20 5/16/16 32/27/25
f 29/18/18 30/61/24 9/54/33
f 29/18/18 21/17/17 30/61/24
f 21/17/17 4/62/13 30/61/24
f 27/15/15 28/25/23 8/57/30
f 27/15/15 19/14/14 28/25/23
f 19/14/14 3/10/10 28/25/23
f 25/59/12 26/24/22 7/29/27
f 25/59/12 15/63/11 26/24/22
f 15/63/11 2/22/4 26/24/22
f 23/64/9 24/28/26 11/41/39
f 23/64/9 16/65/5 24/28/26
f 16/65/5 6/19/19 24/28/26
f 17/8/8 22/66/20 6/67/19
f 17/8/8 20/7/7 22/66/20
f 20/68/7 5/16/16 22/60/20
f 20/68/7 21/17/17 5/16/16
f 20/68/7 18/69/6 21/17/17
f 18/69/6 4/62/13 21/17/17
f 18/70/6 19/14/14 4/13/13
f 18/70/6 13/71/3 19/14/14
f 13/71/3 3/10/10 19/14/14
f 16/5/5 17/8/8 6/67/19
f 16/5/5 14/2/2 17/8/8
f 14/2/2 1/1/1 17/8/8
f 13/71/3 15/11/11 3/10/10
f 13/3/3 14/2/2 15/72/11
f 14/2/2 2/4/4 15/72/11
